<svg xmlns="http://www.w3.org/2000/svg" xmlns:xlink="http://www.w3.org/1999/xlink" width="1440.588" height="800.001" viewBox="0 0 1440.588 800.001">
  <defs>
    <clipPath id="clip-path">
      <rect id="Layer_22_copy_19" data-name="Layer 22 copy 19" width="1440.588" height="800" transform="translate(0 8943.08)" fill="none"/>
    </clipPath>
  </defs>
  <g id="auto-form-bg" transform="translate(0 -11072.009)">
    <rect id="Layer_22_copy_19-2" data-name="Layer 22 copy 19" width="1440.588" height="800" transform="translate(0 11072.01)" fill="#f5f5f5"/>
    <g id="Группа_масок_286" data-name="Группа масок 286" transform="translate(0 2128.929)" clip-path="url(#clip-path)">
      <g id="Сгруппировать_29451" data-name="Сгруппировать 29451" transform="translate(-1099.466 7293.09)">
        <path id="Контур_230" data-name="Контур 230" d="M3335.469,1490.853c37.033-58.77,148.132-158.6,138.471-272.112-7.245-85.337-152.962-38.643-235.079,74.871-52.329,72.456-63.6,100.633-46.694,200.462-16.1,16.1-28.177,31.4-45.084,47.5-16.1,15.3-33.812,30.592-48.3,46.694-61.185,66.82-227.029,223.808-304.315,265.672,23.347-108.684,170.675-379.186,156.183-466.133-23.347-20.127-39.448-24.152-83.727-15.3-13.686,22.542-19.322,29.787-24.957,57.16-38.643,5.636-88.557,45.889-119.955,68.431l-329.272,229.444c-40.253,26.567-74.871,50.719-114.32,75.676-74.066,46.694-259.231,139.276-346.984,165.039-1.61.805-15.3,4.025-17.712,4.025l-16.1-3.22c-12.076-31.4,35.423-132.836,49.914-164.234,46.694-99.828,161.818-256.011,242.325-326.857,16.906-15.3,44.279-37.033,55.55-57.965-5.635-57.965-52.329-63.6-87.752-32.2-130.421,114.319-295.459,326.052-353.424,487.065-37.033,103.853-14.491,180.335,99.828,177.919,130.421-3.22,379.186-148.132,475.794-207.707,77.286-47.5,371.941-256.816,404.948-273.723-18.516,62.8-52.329,121.565-74.871,185.97-21.737,62.8-41.863,132.031-49.109,202.877-4.025,40.253,22.542,59.575,62.8,59.575,36.228,0,59.574-28.982,82.116-47.5l214.148-176.31c70.041-57.16,133.641-123.175,198.047-185.97,94.193-91.778,45.889-35.423,185.165-49.109,83.727-8.856,133.641-30.592,206.1-52.329-25.762,51.524-202.877,232.664-105.464,337.323,90.167,96.608,239.105,59.575,371.941,5.636,204.487-82.922,364.7-211.732,541.005-332.492,22.542-16.1,48.3-37.838,70.846-50.719-27.373,104.659-87.752,231.859-128.006,336.518-66.82,174.7-400.923,557.911-488.676,900.869-17.711,68.431-35.423,205.292,19.322,242.325,141.691,96.608,331.687-487.065,355.034-549.055,56.354-149.742,114.319-294.654,169.869-444.4,34.618-93.388,234.274-380.8,309.146-464.523l76.481-78.9c49.109-50.719,138.472-107.074,212.538-94.193,16.906,82.117-127.2,243.935-181.945,312.366-27.373,34.618-140.082,157.793-182.751,194.826-9.661,8.051-22.542,18.516-33.007,28.177-61.99,60.38,86.947,83.727,194.021,57.965,58.77-14.491,132.031-43.473,184.361-68.431,59.575-28.177,109.489-55.55,165.842-86.947,53.94-30.592,99.023-72.456,154.574-100.633-11.271,84.532-12.077,141.692,53.94,172.284,82.921,37.838,185.165-26.567,242.325-89.362l171.479-181.945c-8.855,78.091-24.152,154.573,72.456,194.021,148.938,61.185,310.756-50.719,435.541-128.006,59.575-37.033,115.124-85.337,173.894-123.175-19.321,57.965-57.16,108.684-49.109,181.945,6.44,61.185,55.55,94.193,119.15,97.413,105.463,4.831,171.479-57.965,236.689-119.15,19.322-17.711,37.838-41.864,55.55-55.55-7.246,24.152-46.693,98.218-59.575,122.37-20.932,40.253-40.253,80.507-60.38,121.565-40.254,82.117-80.507,158.6-123.175,239.91-39.448,74.871-15.3,50.719-101.438,82.922-46.693,16.906-89.363,33.008-134.446,51.524-158.6,64.405-329.272,157.793-433.125,299.485-48.3,65.21-99.024,135.251-125.59,231.859-70.042,251.986,180.334,318,368.72,191.606,165.843-111.9,341.348-453.252,446.812-647.273,39.448-72.456,16.906-78.9,84.532-98.219,46.694-13.686,90.973-27.372,139.276-41.863,390.458-116.735,775.279-214.953,1187.473-295.46,387.238-74.871,955.614-141.692,1339.631-100.633,346.983,37.033,240.716,111.9,268.893,152.963,32.2,46.694,158.6,39.448,115.125-78.092-50.72-137.666-384.016-153.768-516.853-160.208-722.95-36.228-1521.576,137.667-2230.034,339.738-93.388,26.567-194.021,61.185-286.6,82.922,13.686-38.643,40.253-85.337,58.769-123.98l169.87-358.254c34.617-70.041,206.9-383.212,265.671-440.372,13.686-12.881,40.253-28.983,24.152-57.16-8.05-14.491-33.008-26.567-58.77-25.762-59.575,2.415-76.481,49.109-99.024,80.507-20.126,27.372-60.379,65.211-86.142,91.778-121.564,128.811-196.437,244.74-335.713,375.161-19.322,18.516-76.481,67.626-115.124,61.99-29.788-86.947,147.326-373.551,211.732-446.007,27.372-30.592,81.312-85.337,123.979-103.854,0,17.712-1.61,43.474,6.441,57.16,24.151,43.473,90.972,21.737,94.192-55.55,4.831-109.489-127.2-137.666-261.647,7.245-32.2,34.618-46.693,36.228-70.04,57.965-223.809,208.512-282.578,272.112-559.522,428.3-214.953,121.565-224.613-18.516-144.106-184.36,79.7-164.234,243.935-263.257,156.987-308.341-68.43-35.423-111.1,49.109-149.742,94.193-41.058,48.3-91.777,84.532-130.421,131.226l-123.98,136.861c-53.939,63.6-173.089,213.343-251.986,243.13-11.271,4.83-.805.805-10.466,2.415l-6.44-.8c-13.687-62.8,34.617-142.5,61.99-181.14,20.127-28.177,35.423-46.693,54.745-72.456,46.694-63.6,132.031-140.082,199.656-184.36,148.938-97.413,113.514-31.4,190.8-57.965,7.246-17.712,9.661-22.542,7.246-49.109-66.016-43.473-82.117-46.693-164.234-12.076-33.813,14.491-48.3,22.542-83.727,33.008-24.957,7.246-43.474,30.592-65.21,47.5-50.719,39.448-79.7,62.8-120.76,107.074-37.033,40.253-77.287,67.625-123.175,104.658-111.9,89.362-444.4,322.832-585.283,337.323,80.506-89.363,369.525-386.432,336.517-519.268-10.466-41.059-72.456-74.871-127.2-78.091-118.344-5.636-221.393,67.625-299.484,140.886L4591.375,1482.8c9.661-60.38,38.643-114.319,38.643-174.7,0-41.058,13.686-65.21-26.567-76.481-38.643-10.466-63.6,5.635-82.117,22.542,0,34.618,32.2,46.694-1.61,74.871-10.466,8.856-24.957,15.3-34.618,21.737l-154.574,119.15c-82.117,62.8-163.429,125.591-257.621,183.555-90.972,56.355-185.165,105.464-293.044,150.547-39.448,16.907-139.277,53.94-176.309,28.178-45.084-31.4-12.881-126.4,12.881-155.378,137.667,36.228,376.771-156.183,441.177-270.5,33.813-59.575,49.109-123.98-13.686-153.768-58.77-27.372-137.666,4.83-186.776,34.618-130.421,78.9-367.111,214.147-521.683,203.682m316.391,127.2c15.3-36.228,46.694-61.185,71.651-89.362,27.373-30.592,47.5-54.744,77.287-83.727,42.669-41.058,112.709-113.514,187.581-133.641C3983.548,1428.058,3750.884,1593.9,3651.86,1618.054Zm2845.911,639.223c-9.661,28.982-90.972,170.674-111.1,204.487-70.041,119.149-111.9,181.945-185.971,289.019-20.931,30.592-45.083,63.6-70.041,85.337-34.618,29.788-156.988,124.785-215.757,61.185-82.922-88.557,85.337-329.272,173.089-409.779C6171.719,2411.044,6352.859,2295.115,6497.771,2257.277ZM2308.2,282.449c29.787-62.8-53.135-91.778-92.583-70.846-21.737,11.271-10.466,20.932-19.322,41.058-4.025,9.661-41.863,61.99-51.524,75.676-86.947,123.98-168.259,235.079-252.791,366.305-66.82,103.854-135.251,194.826-200.461,296.265-33.008,51.524-66.821,95-99.828,148.937-162.624,262.452-310.756,491.09-474.989,767.228-75.676,128.005-318,541.809-315.586,676.256.8,39.448,27.372,53.135,61.185,60.38,39.448,8.856,84.532,3.22,58.77-45.083-10.466-19.322-10.466-13.687-.805-45.084,4.83-16.1,9.661-29.788,15.3-45.084a902.013,902.013,0,0,1,35.423-85.337c54.745-111.9,110.294-220.588,169.869-326.052,167.454-295.46,464.523-784.94,665.79-1073.154C1949.95,818.623,2117.4,547.315,2259.1,354.1,2274.391,332.363,2297.739,304.99,2308.2,282.449Zm376.771,2115.715c82.117-8.051,404.144-37.033,454.863-9.661,82.117,44.279,164.233-20.127,113.515-71.651-30.593-31.4-141.692-25.762-199.656-26.567-565.962-7.246-1184.253,144.912-1738.944,273.722-380.8,88.558-796.211,207.708-1152.05,366.306-37.838,16.906-169.869,72.456-111.9,107.074,43.474,25.762,140.082-26.567,183.555-45.084C837.348,2740.316,2039.312,2463.374,2684.975,2398.163Zm4592.1-932.267c95,24.957,189.19-42.668,253.6-85.337,78.091-50.719,260.036-214.148,209.317-306.73-18.517-33.813-70.041-53.134-128.005-37.838-138.472,37.838-313.171,210.928-393.678,330.882-34.618,52.329-119.149,179.53-61.184,258.427,184.36,250.376,875.912-272.917,1057.857-421.05,18.517-15.3,31.4-24.152,49.108-40.253,15.3-13.686,40.253-32.2,24.957-56.355-41.058-62.8-185.166,60.38-226.224,92.583-183.556,143.3-441.982,338.128-679.476,412.194C7168.391,1680.849,7255.338,1490.853,7277.075,1465.9Zm35.422-59.575c15.3-36.228,46.694-61.185,71.651-89.362,61.99-70.041,170.674-191.606,264.867-217.368C7644.185,1216.326,7411.521,1382.169,7312.5,1406.321Zm-4962.43-285.8-107.073,83.727c-43.474,44.279,24.957,133.641,185.165-20.932C2471.633,1140.649,2388.711,1096.371,2350.068,1120.523Zm1622.21,1658.437c4.83-70.846,99.828-313.976,161.818-384.822C4115.579,2464.984,4014.141,2724.215,3972.277,2778.959Z" transform="translate(0)" fill="#e7e7e7" fill-rule="evenodd"/>
        <path id="Контур_231" data-name="Контур 231" d="M1683.372,570.225h23.347V736.069h-27.373V599.207l-33.813,9.661-6.441-23.347Zm-87.752,0h23.347V736.069h-27.372V599.207l-33.813,9.661-6.441-23.347Zm-116.735,142.5c12.076,0,21.737-4.83,28.178-15.3s9.661-24.957,9.661-44.279-3.22-33.813-9.661-44.279-16.1-15.3-28.178-15.3-21.737,4.83-28.177,15.3-9.661,24.957-9.661,44.279,3.221,33.813,9.661,44.279C1457.147,707.086,1466.808,712.722,1478.884,712.722Zm48.3,2.415c-11.271,15.3-27.372,23.347-48.3,23.347s-36.228-8.051-48.3-23.347q-16.907-22.944-16.906-62.795,0-38.643,16.906-62.8c11.271-15.3,27.372-23.347,48.3-23.347s36.228,8.051,48.3,23.347q16.906,22.945,16.906,62.8T1527.189,715.137Zm-239.1,20.931V715.137l57.965-58.77c13.686-13.686,20.932-26.567,20.932-36.228,0-8.05-2.415-14.491-7.246-18.516-4.83-4.83-11.271-6.44-18.516-6.44-13.687,0-24.152,7.246-30.592,20.932l-23.347-13.686a55.389,55.389,0,0,1,21.737-24.957,61.627,61.627,0,0,1,31.4-8.855,57.46,57.46,0,0,1,37.838,13.686c10.466,8.856,15.3,21.737,15.3,37.838,0,16.906-9.661,34.618-28.178,53.939l-37.838,37.838h68.43v26.567H1288.084ZM1139.952,709.5h73.261v25.762H1112.579V569.42h99.829v25.762h-72.456v43.474h66.015v25.762h-66.015Zm-120.76,29.788c-24.957,0-45.889-8.051-61.99-24.957s-24.957-37.033-24.957-61.185,8.051-45.083,24.957-61.185c16.1-16.906,37.032-24.957,61.99-24.957,15.3,0,28.982,3.22,41.863,10.466a79.267,79.267,0,0,1,29.788,28.982L1067.5,620.14q-6.038-12.076-19.322-19.322c-8.051-4.83-17.712-7.246-28.177-7.246-17.712,0-32.2,5.636-42.668,16.906-11.271,11.271-16.1,25.762-16.1,42.669s5.636,31.4,16.1,42.668c11.271,11.271,24.956,16.906,42.668,16.906,10.466,0,20.127-2.415,28.177-7.246q13.283-7.246,19.322-19.322l23.347,13.686a79.258,79.258,0,0,1-29.788,28.982C1048.174,735.264,1033.683,739.289,1019.192,739.289ZM879.915,570.225h27.372V736.069H885.551L807.459,623.359V736.069H780.087V570.225h20.932L879.11,682.935V570.225Zm-160.209,0h27.373V736.069H719.707ZM639.2,739.289c-16.1,0-29.787-4.026-40.253-11.271-11.271-7.246-19.322-16.906-23.347-29.787l23.347-13.686c6.44,18.516,20.126,28.177,41.058,28.177,10.466,0,17.712-2.415,23.347-6.44,4.83-4.025,8.051-9.661,8.051-16.1s-2.415-12.076-8.051-15.3-15.3-7.246-29.787-12.076c-8.051-2.415-14.492-4.83-19.322-6.441-4.83-2.415-10.466-4.83-15.3-8.855-5.636-4.025-9.661-8.051-12.076-13.686a48.643,48.643,0,0,1-4.025-19.322c0-14.491,4.83-26.567,15.3-34.618C608.608,571.03,621.489,567,635.98,567c13.686,0,24.957,3.22,34.618,9.661a68.261,68.261,0,0,1,23.347,26.567L670.6,616.114c-7.246-15.3-18.516-23.347-34.618-23.347-8.051,0-14.491,1.61-19.322,5.635a18.7,18.7,0,0,0-7.246,15.3q0,9.66,7.246,14.491c4.83,3.22,13.686,7.246,26.567,11.271,6.44,2.415,11.271,3.221,13.686,4.83a62.1,62.1,0,0,1,12.076,4.83,75.264,75.264,0,0,1,12.076,6.44c2.415,2.415,5.636,4.83,8.856,8.051a22.948,22.948,0,0,1,6.44,11.271c1.61,4.025,1.61,8.855,1.61,14.491,0,15.3-5.636,26.567-16.1,35.423C670.6,734.458,656.107,739.289,639.2,739.289Z" transform="translate(3802.43 2547.667)" fill="#e7e7e7"/>
      </g>
    </g>
  </g>
</svg>
