<svg xmlns="http://www.w3.org/2000/svg" width="1189.983" height="102.379" viewBox="0 0 1189.983 102.379">
  <g id="achievs-bg-desktop" transform="translate(-121.113 -595.621)">
    <path id="Контур_23079" data-name="Контур 23079" d="M38.273,194.16a5.235,5.235,0,0,0-.369,6.188c1.626,2.6,14.088,9.48,17.464,11.3,2.875,1.547,14.242,7.36,16.877,7.5a5.218,5.218,0,0,0,5.024-2.878c1.329-2.6.24-14.131-.03-17.225-.252-2.872-1.36-15.229-2.442-17.369a5.207,5.207,0,0,0-4.735-2.9c-2.48.005-13.582,5.339-16.4,6.694-2.777,1.333-13.757,6.673-15.385,8.69" transform="translate(474.977 815.776) rotate(180)" fill="none" stroke="#eb3656" stroke-miterlimit="10" stroke-width="2" fill-rule="evenodd"/>
    <path id="Контур_23079-2" data-name="Контур 23079" d="M38.273,194.16a5.235,5.235,0,0,0-.369,6.188c1.626,2.6,14.088,9.48,17.464,11.3,2.875,1.547,14.242,7.36,16.877,7.5a5.218,5.218,0,0,0,5.024-2.878c1.329-2.6.24-14.131-.03-17.225-.252-2.872-1.36-15.229-2.442-17.369a5.207,5.207,0,0,0-4.735-2.9c-2.48.005-13.582,5.339-16.4,6.694-2.777,1.333-13.757,6.673-15.385,8.69" transform="translate(383.318 815.776) rotate(180)" fill="none" stroke="#e0e0e0" stroke-miterlimit="10" stroke-width="2" fill-rule="evenodd"/>
    <path id="Контур_190" data-name="Контур 190" d="M38.273,194.16a5.235,5.235,0,0,0-.369,6.188c1.626,2.6,14.088,9.48,17.464,11.3,2.875,1.547,14.242,7.36,16.877,7.5a5.218,5.218,0,0,0,5.024-2.878c1.329-2.6.24-14.131-.03-17.225-.252-2.872-1.36-15.229-2.442-17.369a5.207,5.207,0,0,0-4.735-2.9c-2.48.005-13.582,5.339-16.4,6.694-2.777,1.333-13.757,6.673-15.385,8.69" transform="translate(333.857 873.736) rotate(180)" fill="none" stroke="#e0e0e0" stroke-miterlimit="10" stroke-width="2" fill-rule="evenodd"/>
    <path id="Контур_23079-3" data-name="Контур 23079" d="M38.273,194.16a5.235,5.235,0,0,0-.369,6.188c1.626,2.6,14.088,9.48,17.464,11.3,2.875,1.547,14.242,7.36,16.877,7.5a5.218,5.218,0,0,0,5.024-2.878c1.329-2.6.24-14.131-.03-17.225-.252-2.872-1.36-15.229-2.442-17.369a5.207,5.207,0,0,0-4.735-2.9c-2.48.005-13.582,5.339-16.4,6.694-2.777,1.333-13.757,6.673-15.385,8.69" transform="translate(291.66 815.776) rotate(180)" fill="none" stroke="#e0e0e0" stroke-miterlimit="10" stroke-width="2" fill-rule="evenodd"/>
    <path id="Контур_190-2" data-name="Контур 190" d="M38.273,194.16a5.235,5.235,0,0,0-.369,6.188c1.626,2.6,14.088,9.48,17.464,11.3,2.875,1.547,14.242,7.36,16.877,7.5a5.218,5.218,0,0,0,5.024-2.878c1.329-2.6.24-14.131-.03-17.225-.252-2.872-1.36-15.229-2.442-17.369a5.207,5.207,0,0,0-4.735-2.9c-2.48.005-13.582,5.339-16.4,6.694-2.777,1.333-13.757,6.673-15.385,8.69" transform="translate(242.199 873.736) rotate(180)" fill="none" stroke="#e0e0e0" stroke-miterlimit="10" stroke-width="2" fill-rule="evenodd"/>
    <path id="Контур_23079-4" data-name="Контур 23079" d="M38.273,194.16a5.235,5.235,0,0,0-.369,6.188c1.626,2.6,14.088,9.48,17.464,11.3,2.875,1.547,14.242,7.36,16.877,7.5a5.218,5.218,0,0,0,5.024-2.878c1.329-2.6.24-14.131-.03-17.225-.252-2.872-1.36-15.229-2.442-17.369a5.207,5.207,0,0,0-4.735-2.9c-2.48.005-13.582,5.339-16.4,6.694-2.777,1.333-13.757,6.673-15.385,8.69" transform="translate(200.002 815.776) rotate(180)" fill="none" stroke="#e0e0e0" stroke-miterlimit="10" stroke-width="2" fill-rule="evenodd"/>
    <path id="Контур_23177" data-name="Контур 23177" d="M38.273,194.16a5.235,5.235,0,0,0-.369,6.188c1.626,2.6,14.088,9.48,17.464,11.3,2.875,1.547,14.242,7.36,16.877,7.5a5.218,5.218,0,0,0,5.024-2.878c1.329-2.6.24-14.131-.03-17.225-.252-2.872-1.36-15.229-2.442-17.369a5.207,5.207,0,0,0-4.735-2.9c-2.48.005-13.582,5.339-16.4,6.694-2.777,1.333-13.757,6.673-15.385,8.69" transform="translate(423.318 875.776) rotate(180)" fill="none" stroke="#eb3656" stroke-miterlimit="10" stroke-width="2" fill-rule="evenodd"/>
    <path id="Контур_23079-5" data-name="Контур 23079" d="M38.273,194.16a5.235,5.235,0,0,0-.369,6.188c1.626,2.6,14.088,9.48,17.464,11.3,2.875,1.547,14.242,7.36,16.877,7.5a5.218,5.218,0,0,0,5.024-2.878c1.329-2.6.24-14.131-.03-17.225-.252-2.872-1.36-15.229-2.442-17.369a5.207,5.207,0,0,0-4.735-2.9c-2.48.005-13.582,5.339-16.4,6.694-2.777,1.333-13.757,6.673-15.385,8.69" transform="translate(1176.476 815.776) rotate(180)" fill="none" stroke="#eb3656" stroke-miterlimit="10" stroke-width="2" fill-rule="evenodd"/>
    <path id="Контур_23079-6" data-name="Контур 23079" d="M38.273,194.16a5.235,5.235,0,0,0-.369,6.188c1.626,2.6,14.088,9.48,17.464,11.3,2.875,1.547,14.242,7.36,16.877,7.5a5.218,5.218,0,0,0,5.024-2.878c1.329-2.6.24-14.131-.03-17.225-.252-2.872-1.36-15.229-2.442-17.369a5.207,5.207,0,0,0-4.735-2.9c-2.48.005-13.582,5.339-16.4,6.694-2.777,1.333-13.757,6.673-15.385,8.69" transform="translate(1084.818 815.776) rotate(180)" fill="none" stroke="#e0e0e0" stroke-miterlimit="10" stroke-width="2" fill-rule="evenodd"/>
    <path id="Контур_190-3" data-name="Контур 190" d="M38.273,194.16a5.235,5.235,0,0,0-.369,6.188c1.626,2.6,14.088,9.48,17.464,11.3,2.875,1.547,14.242,7.36,16.877,7.5a5.218,5.218,0,0,0,5.024-2.878c1.329-2.6.24-14.131-.03-17.225-.252-2.872-1.36-15.229-2.442-17.369a5.207,5.207,0,0,0-4.735-2.9c-2.48.005-13.582,5.339-16.4,6.694-2.777,1.333-13.757,6.673-15.385,8.69" transform="translate(1035.356 873.736) rotate(180)" fill="none" stroke="#eb3656" stroke-miterlimit="10" stroke-width="2" fill-rule="evenodd"/>
    <path id="Контур_23079-7" data-name="Контур 23079" d="M38.273,194.16a5.235,5.235,0,0,0-.369,6.188c1.626,2.6,14.088,9.48,17.464,11.3,2.875,1.547,14.242,7.36,16.877,7.5a5.218,5.218,0,0,0,5.024-2.878c1.329-2.6.24-14.131-.03-17.225-.252-2.872-1.36-15.229-2.442-17.369a5.207,5.207,0,0,0-4.735-2.9c-2.48.005-13.582,5.339-16.4,6.694-2.777,1.333-13.757,6.673-15.385,8.69" transform="translate(993.159 815.776) rotate(180)" fill="none" stroke="#e0e0e0" stroke-miterlimit="10" stroke-width="2" fill-rule="evenodd"/>
    <path id="Контур_190-4" data-name="Контур 190" d="M38.273,194.16a5.235,5.235,0,0,0-.369,6.188c1.626,2.6,14.088,9.48,17.464,11.3,2.875,1.547,14.242,7.36,16.877,7.5a5.218,5.218,0,0,0,5.024-2.878c1.329-2.6.24-14.131-.03-17.225-.252-2.872-1.36-15.229-2.442-17.369a5.207,5.207,0,0,0-4.735-2.9c-2.48.005-13.582,5.339-16.4,6.694-2.777,1.333-13.757,6.673-15.385,8.69" transform="translate(943.699 873.736) rotate(180)" fill="none" stroke="#e0e0e0" stroke-miterlimit="10" stroke-width="2" fill-rule="evenodd"/>
    <path id="Контур_23079-8" data-name="Контур 23079" d="M38.273,194.16a5.235,5.235,0,0,0-.369,6.188c1.626,2.6,14.088,9.48,17.464,11.3,2.875,1.547,14.242,7.36,16.877,7.5a5.218,5.218,0,0,0,5.024-2.878c1.329-2.6.24-14.131-.03-17.225-.252-2.872-1.36-15.229-2.442-17.369a5.207,5.207,0,0,0-4.735-2.9c-2.48.005-13.582,5.339-16.4,6.694-2.777,1.333-13.757,6.673-15.385,8.69" transform="translate(901.502 815.776) rotate(180)" fill="none" stroke="#e0e0e0" stroke-miterlimit="10" stroke-width="2" fill-rule="evenodd"/>
    <path id="Контур_23177-2" data-name="Контур 23177" d="M38.273,194.16a5.235,5.235,0,0,0-.369,6.188c1.626,2.6,14.088,9.48,17.464,11.3,2.875,1.547,14.242,7.36,16.877,7.5a5.218,5.218,0,0,0,5.024-2.878c1.329-2.6.24-14.131-.03-17.225-.252-2.872-1.36-15.229-2.442-17.369a5.207,5.207,0,0,0-4.735-2.9c-2.48.005-13.582,5.339-16.4,6.694-2.777,1.333-13.757,6.673-15.385,8.69" transform="translate(1124.818 875.776) rotate(180)" fill="none" stroke="#e0e0e0" stroke-miterlimit="10" stroke-width="2" fill-rule="evenodd"/>
    <path id="Контур_23079-9" data-name="Контур 23079" d="M38.273,194.16a5.235,5.235,0,0,0-.369,6.188c1.626,2.6,14.088,9.48,17.464,11.3,2.875,1.547,14.242,7.36,16.877,7.5a5.218,5.218,0,0,0,5.024-2.878c1.329-2.6.24-14.131-.03-17.225-.252-2.872-1.36-15.229-2.442-17.369a5.207,5.207,0,0,0-4.735-2.9c-2.48.005-13.582,5.339-16.4,6.694-2.777,1.333-13.757,6.673-15.385,8.69" transform="translate(828.977 815.776) rotate(180)" fill="none" stroke="#eb3656" stroke-miterlimit="10" stroke-width="2" fill-rule="evenodd"/>
    <path id="Контур_23079-10" data-name="Контур 23079" d="M38.273,194.16a5.235,5.235,0,0,0-.369,6.188c1.626,2.6,14.088,9.48,17.464,11.3,2.875,1.547,14.242,7.36,16.877,7.5a5.218,5.218,0,0,0,5.024-2.878c1.329-2.6.24-14.131-.03-17.225-.252-2.872-1.36-15.229-2.442-17.369a5.207,5.207,0,0,0-4.735-2.9c-2.48.005-13.582,5.339-16.4,6.694-2.777,1.333-13.757,6.673-15.385,8.69" transform="translate(737.319 815.776) rotate(180)" fill="none" stroke="#e0e0e0" stroke-miterlimit="10" stroke-width="2" fill-rule="evenodd"/>
    <path id="Контур_190-5" data-name="Контур 190" d="M38.273,194.16a5.235,5.235,0,0,0-.369,6.188c1.626,2.6,14.088,9.48,17.464,11.3,2.875,1.547,14.242,7.36,16.877,7.5a5.218,5.218,0,0,0,5.024-2.878c1.329-2.6.24-14.131-.03-17.225-.252-2.872-1.36-15.229-2.442-17.369a5.207,5.207,0,0,0-4.735-2.9c-2.48.005-13.582,5.339-16.4,6.694-2.777,1.333-13.757,6.673-15.385,8.69" transform="translate(687.857 873.736) rotate(180)" fill="none" stroke="#e0e0e0" stroke-miterlimit="10" stroke-width="2" fill-rule="evenodd"/>
    <path id="Контур_23079-11" data-name="Контур 23079" d="M38.273,194.16a5.235,5.235,0,0,0-.369,6.188c1.626,2.6,14.088,9.48,17.464,11.3,2.875,1.547,14.242,7.36,16.877,7.5a5.218,5.218,0,0,0,5.024-2.878c1.329-2.6.24-14.131-.03-17.225-.252-2.872-1.36-15.229-2.442-17.369a5.207,5.207,0,0,0-4.735-2.9c-2.48.005-13.582,5.339-16.4,6.694-2.777,1.333-13.757,6.673-15.385,8.69" transform="translate(645.66 815.776) rotate(180)" fill="none" stroke="#e0e0e0" stroke-miterlimit="10" stroke-width="2" fill-rule="evenodd"/>
    <path id="Контур_190-6" data-name="Контур 190" d="M38.273,194.16a5.235,5.235,0,0,0-.369,6.188c1.626,2.6,14.088,9.48,17.464,11.3,2.875,1.547,14.242,7.36,16.877,7.5a5.218,5.218,0,0,0,5.024-2.878c1.329-2.6.24-14.131-.03-17.225-.252-2.872-1.36-15.229-2.442-17.369a5.207,5.207,0,0,0-4.735-2.9c-2.48.005-13.582,5.339-16.4,6.694-2.777,1.333-13.757,6.673-15.385,8.69" transform="translate(596.2 873.736) rotate(180)" fill="none" stroke="#e0e0e0" stroke-miterlimit="10" stroke-width="2" fill-rule="evenodd"/>
    <path id="Контур_23079-12" data-name="Контур 23079" d="M38.273,194.16a5.235,5.235,0,0,0-.369,6.188c1.626,2.6,14.088,9.48,17.464,11.3,2.875,1.547,14.242,7.36,16.877,7.5a5.218,5.218,0,0,0,5.024-2.878c1.329-2.6.24-14.131-.03-17.225-.252-2.872-1.36-15.229-2.442-17.369a5.207,5.207,0,0,0-4.735-2.9c-2.48.005-13.582,5.339-16.4,6.694-2.777,1.333-13.757,6.673-15.385,8.69" transform="translate(554.003 815.776) rotate(180)" fill="none" stroke="#e0e0e0" stroke-miterlimit="10" stroke-width="2" fill-rule="evenodd"/>
    <path id="Контур_23177-3" data-name="Контур 23177" d="M38.273,194.16a5.235,5.235,0,0,0-.369,6.188c1.626,2.6,14.088,9.48,17.464,11.3,2.875,1.547,14.242,7.36,16.877,7.5a5.218,5.218,0,0,0,5.024-2.878c1.329-2.6.24-14.131-.03-17.225-.252-2.872-1.36-15.229-2.442-17.369a5.207,5.207,0,0,0-4.735-2.9c-2.48.005-13.582,5.339-16.4,6.694-2.777,1.333-13.757,6.673-15.385,8.69" transform="translate(777.319 875.776) rotate(180)" fill="none" stroke="#e0e0e0" stroke-miterlimit="10" stroke-width="2" fill-rule="evenodd"/>
    <path id="Контур_23079-13" data-name="Контур 23079" d="M38.273,194.16a5.235,5.235,0,0,0-.369,6.188c1.626,2.6,14.088,9.48,17.464,11.3,2.875,1.547,14.242,7.36,16.877,7.5a5.218,5.218,0,0,0,5.024-2.878c1.329-2.6.24-14.131-.03-17.225-.252-2.872-1.36-15.229-2.442-17.369a5.207,5.207,0,0,0-4.735-2.9c-2.48.005-13.582,5.339-16.4,6.694-2.777,1.333-13.757,6.673-15.385,8.69" transform="translate(1347.159 815.776) rotate(180)" fill="none" stroke="#e0e0e0" stroke-miterlimit="10" stroke-width="2" fill-rule="evenodd"/>
    <path id="Контур_190-7" data-name="Контур 190" d="M38.273,194.16a5.235,5.235,0,0,0-.369,6.188c1.626,2.6,14.088,9.48,17.464,11.3,2.875,1.547,14.242,7.36,16.877,7.5a5.218,5.218,0,0,0,5.024-2.878c1.329-2.6.24-14.131-.03-17.225-.252-2.872-1.36-15.229-2.442-17.369a5.207,5.207,0,0,0-4.735-2.9c-2.48.005-13.582,5.339-16.4,6.694-2.777,1.333-13.757,6.673-15.385,8.69" transform="translate(1297.699 873.736) rotate(180)" fill="none" stroke="#e0e0e0" stroke-miterlimit="10" stroke-width="2" fill-rule="evenodd"/>
    <path id="Контур_23079-14" data-name="Контур 23079" d="M38.273,194.16a5.235,5.235,0,0,0-.369,6.188c1.626,2.6,14.088,9.48,17.464,11.3,2.875,1.547,14.242,7.36,16.877,7.5a5.218,5.218,0,0,0,5.024-2.878c1.329-2.6.24-14.131-.03-17.225-.252-2.872-1.36-15.229-2.442-17.369a5.207,5.207,0,0,0-4.735-2.9c-2.48.005-13.582,5.339-16.4,6.694-2.777,1.333-13.757,6.673-15.385,8.69" transform="translate(1255.502 815.776) rotate(180)" fill="none" stroke="#e0e0e0" stroke-miterlimit="10" stroke-width="2" fill-rule="evenodd"/>
    <path id="Контур_23178" data-name="Контур 23178" d="M38.273,194.16a5.235,5.235,0,0,0-.369,6.188c1.626,2.6,14.088,9.48,17.464,11.3,2.875,1.547,14.242,7.36,16.877,7.5a5.218,5.218,0,0,0,5.024-2.878c1.329-2.6.24-14.131-.03-17.225-.252-2.872-1.36-15.229-2.442-17.369a5.207,5.207,0,0,0-4.735-2.9c-2.48.005-13.582,5.339-16.4,6.694-2.777,1.333-13.757,6.673-15.385,8.69" transform="translate(1213.818 875.776) rotate(180)" fill="none" stroke="#e0e0e0" stroke-miterlimit="10" stroke-width="2" fill-rule="evenodd"/>
    <path id="Контур_23179" data-name="Контур 23179" d="M38.273,194.16a5.235,5.235,0,0,0-.369,6.188c1.626,2.6,14.088,9.48,17.464,11.3,2.875,1.547,14.242,7.36,16.877,7.5a5.218,5.218,0,0,0,5.024-2.878c1.329-2.6.24-14.131-.03-17.225-.252-2.872-1.36-15.229-2.442-17.369a5.207,5.207,0,0,0-4.735-2.9c-2.48.005-13.582,5.339-16.4,6.694-2.777,1.333-13.757,6.673-15.385,8.69" transform="translate(513.318 875.776) rotate(180)" fill="none" stroke="#eb3656" stroke-miterlimit="10" stroke-width="2" fill-rule="evenodd"/>
  </g>
</svg>
