<svg xmlns="http://www.w3.org/2000/svg" width="342.988" height="47.245" viewBox="0 0 342.988 47.245">
  <g id="achievs-bg-mobile" transform="translate(-14.512 -456.5)">
    <path id="Контур_23079" data-name="Контур 23079" d="M.557,7.087a2.412,2.412,0,0,0-.17,2.851c.749,1.2,6.491,4.367,8.045,5.2,1.325.713,6.561,3.391,7.775,3.456a2.4,2.4,0,0,0,2.314-1.326c.612-1.2.111-6.51-.014-7.936-.116-1.323-.627-7.016-1.125-8A2.4,2.4,0,0,0,15.2,0C14.059,0,8.944,2.46,7.644,3.084c-1.279.614-6.338,3.074-7.088,4" transform="translate(278.366 475.603) rotate(180)" fill="none" stroke="#eb3656" stroke-miterlimit="10" stroke-width="1" fill-rule="evenodd"/>
    <path id="Контур_23079-2" data-name="Контур 23079" d="M.557,7.087a2.412,2.412,0,0,0-.17,2.851c.749,1.2,6.491,4.367,8.045,5.2,1.325.713,6.561,3.391,7.775,3.456a2.4,2.4,0,0,0,2.314-1.326c.612-1.2.111-6.51-.014-7.936-.116-1.323-.627-7.016-1.125-8A2.4,2.4,0,0,0,15.2,0C14.059,0,8.944,2.46,7.644,3.084c-1.279.614-6.338,3.074-7.088,4" transform="translate(236.14 475.603) rotate(180)" fill="none" stroke="#e0e0e0" stroke-miterlimit="10" stroke-width="1" fill-rule="evenodd"/>
    <path id="Контур_190" data-name="Контур 190" d="M.557,7.087a2.412,2.412,0,0,0-.17,2.851c.749,1.2,6.491,4.367,8.045,5.2,1.325.713,6.561,3.391,7.775,3.456a2.4,2.4,0,0,0,2.314-1.326c.612-1.2.111-6.51-.014-7.936-.116-1.323-.627-7.016-1.125-8A2.4,2.4,0,0,0,15.2,0C14.059,0,8.944,2.46,7.644,3.084c-1.279.614-6.338,3.074-7.088,4" transform="translate(213.352 502.305) rotate(180)" fill="none" stroke="#eb3656" stroke-miterlimit="10" stroke-width="1" fill-rule="evenodd"/>
    <path id="Контур_23079-3" data-name="Контур 23079" d="M.557,7.087a2.412,2.412,0,0,0-.17,2.851c.749,1.2,6.491,4.367,8.045,5.2,1.325.713,6.561,3.391,7.775,3.456a2.4,2.4,0,0,0,2.314-1.326c.612-1.2.111-6.51-.014-7.936-.116-1.323-.627-7.016-1.125-8A2.4,2.4,0,0,0,15.2,0C14.059,0,8.944,2.46,7.644,3.084c-1.279.614-6.338,3.074-7.088,4" transform="translate(193.912 475.603) rotate(180)" fill="none" stroke="#e0e0e0" stroke-miterlimit="10" stroke-width="1" fill-rule="evenodd"/>
    <path id="Контур_190-2" data-name="Контур 190" d="M.557,7.087a2.412,2.412,0,0,0-.17,2.851c.749,1.2,6.491,4.367,8.045,5.2,1.325.713,6.561,3.391,7.775,3.456a2.4,2.4,0,0,0,2.314-1.326c.612-1.2.111-6.51-.014-7.936-.116-1.323-.627-7.016-1.125-8A2.4,2.4,0,0,0,15.2,0C14.059,0,8.944,2.46,7.644,3.084c-1.279.614-6.338,3.074-7.088,4" transform="translate(171.126 502.305) rotate(180)" fill="none" stroke="#e0e0e0" stroke-miterlimit="10" stroke-width="1" fill-rule="evenodd"/>
    <path id="Контур_23079-4" data-name="Контур 23079" d="M.557,7.087a2.412,2.412,0,0,0-.17,2.851c.749,1.2,6.491,4.367,8.045,5.2,1.325.713,6.561,3.391,7.775,3.456a2.4,2.4,0,0,0,2.314-1.326c.612-1.2.111-6.51-.014-7.936-.116-1.323-.627-7.016-1.125-8A2.4,2.4,0,0,0,15.2,0C14.059,0,8.944,2.46,7.644,3.084c-1.279.614-6.338,3.074-7.088,4" transform="translate(151.686 475.603) rotate(180)" fill="none" stroke="#e0e0e0" stroke-miterlimit="10" stroke-width="1" fill-rule="evenodd"/>
    <path id="Контур_23177" data-name="Контур 23177" d="M.557,7.087a2.412,2.412,0,0,0-.17,2.851c.749,1.2,6.491,4.367,8.045,5.2,1.325.713,6.561,3.391,7.775,3.456a2.4,2.4,0,0,0,2.314-1.326c.612-1.2.111-6.51-.014-7.936-.116-1.323-.627-7.016-1.125-8A2.4,2.4,0,0,0,15.2,0C14.059,0,8.944,2.46,7.644,3.084c-1.279.614-6.338,3.074-7.088,4" transform="translate(254.568 503.245) rotate(180)" fill="none" stroke="#e0e0e0" stroke-miterlimit="10" stroke-width="1" fill-rule="evenodd"/>
    <path id="Контур_23079-5" data-name="Контур 23079" d="M.557,7.087a2.412,2.412,0,0,0-.17,2.851c.749,1.2,6.491,4.367,8.045,5.2,1.325.713,6.561,3.391,7.775,3.456a2.4,2.4,0,0,0,2.314-1.326c.612-1.2.111-6.51-.014-7.936-.116-1.323-.627-7.016-1.125-8A2.4,2.4,0,0,0,15.2,0C14.059,0,8.944,2.46,7.644,3.084c-1.279.614-6.338,3.074-7.088,4" transform="translate(118.273 475.603) rotate(180)" fill="none" stroke="#eb3656" stroke-miterlimit="10" stroke-width="1" fill-rule="evenodd"/>
    <path id="Контур_23079-6" data-name="Контур 23079" d="M.557,7.087a2.412,2.412,0,0,0-.17,2.851c.749,1.2,6.491,4.367,8.045,5.2,1.325.713,6.561,3.391,7.775,3.456a2.4,2.4,0,0,0,2.314-1.326c.612-1.2.111-6.51-.014-7.936-.116-1.323-.627-7.016-1.125-8A2.4,2.4,0,0,0,15.2,0C14.059,0,8.944,2.46,7.644,3.084c-1.279.614-6.338,3.074-7.088,4" transform="translate(76.046 475.603) rotate(180)" fill="none" stroke="#e0e0e0" stroke-miterlimit="10" stroke-width="1" fill-rule="evenodd"/>
    <path id="Контур_190-3" data-name="Контур 190" d="M.557,7.087a2.412,2.412,0,0,0-.17,2.851c.749,1.2,6.491,4.367,8.045,5.2,1.325.713,6.561,3.391,7.775,3.456a2.4,2.4,0,0,0,2.314-1.326c.612-1.2.111-6.51-.014-7.936-.116-1.323-.627-7.016-1.125-8A2.4,2.4,0,0,0,15.2,0C14.059,0,8.944,2.46,7.644,3.084c-1.279.614-6.338,3.074-7.088,4" transform="translate(53.26 502.305) rotate(180)" fill="none" stroke="#e0e0e0" stroke-miterlimit="10" stroke-width="1" fill-rule="evenodd"/>
    <path id="Контур_23079-7" data-name="Контур 23079" d="M.557,7.087a2.412,2.412,0,0,0-.17,2.851c.749,1.2,6.491,4.367,8.045,5.2,1.325.713,6.561,3.391,7.775,3.456a2.4,2.4,0,0,0,2.314-1.326c.612-1.2.111-6.51-.014-7.936-.116-1.323-.627-7.016-1.125-8A2.4,2.4,0,0,0,15.2,0C14.059,0,8.944,2.46,7.644,3.084c-1.279.614-6.338,3.074-7.088,4" transform="translate(33.819 475.603) rotate(180)" fill="none" stroke="#e0e0e0" stroke-miterlimit="10" stroke-width="1" fill-rule="evenodd"/>
    <path id="Контур_23177-2" data-name="Контур 23177" d="M.557,7.087a2.412,2.412,0,0,0-.17,2.851c.749,1.2,6.491,4.367,8.045,5.2,1.325.713,6.561,3.391,7.775,3.456a2.4,2.4,0,0,0,2.314-1.326c.612-1.2.111-6.51-.014-7.936-.116-1.323-.627-7.016-1.125-8A2.4,2.4,0,0,0,15.2,0C14.059,0,8.944,2.46,7.644,3.084c-1.279.614-6.338,3.074-7.088,4" transform="translate(94.475 503.245) rotate(180)" fill="none" stroke="#e0e0e0" stroke-miterlimit="10" stroke-width="1" fill-rule="evenodd"/>
    <path id="Контур_23079-8" data-name="Контур 23079" d="M.557,7.087a2.412,2.412,0,0,0-.17,2.851c.749,1.2,6.491,4.367,8.045,5.2,1.325.713,6.561,3.391,7.775,3.456a2.4,2.4,0,0,0,2.314-1.326c.612-1.2.111-6.51-.014-7.936-.116-1.323-.627-7.016-1.125-8A2.4,2.4,0,0,0,15.2,0C14.059,0,8.944,2.46,7.644,3.084c-1.279.614-6.338,3.074-7.088,4" transform="translate(357 475.603) rotate(180)" fill="none" stroke="#e0e0e0" stroke-miterlimit="10" stroke-width="1" fill-rule="evenodd"/>
    <path id="Контур_190-4" data-name="Контур 190" d="M.557,7.087a2.412,2.412,0,0,0-.17,2.851c.749,1.2,6.491,4.367,8.045,5.2,1.325.713,6.561,3.391,7.775,3.456a2.4,2.4,0,0,0,2.314-1.326c.612-1.2.111-6.51-.014-7.936-.116-1.323-.627-7.016-1.125-8A2.4,2.4,0,0,0,15.2,0C14.059,0,8.944,2.46,7.644,3.084c-1.279.614-6.338,3.074-7.088,4" transform="translate(334.214 502.305) rotate(180)" fill="none" stroke="#e0e0e0" stroke-miterlimit="10" stroke-width="1" fill-rule="evenodd"/>
    <path id="Контур_23079-9" data-name="Контур 23079" d="M.557,7.087a2.412,2.412,0,0,0-.17,2.851c.749,1.2,6.491,4.367,8.045,5.2,1.325.713,6.561,3.391,7.775,3.456a2.4,2.4,0,0,0,2.314-1.326c.612-1.2.111-6.51-.014-7.936-.116-1.323-.627-7.016-1.125-8A2.4,2.4,0,0,0,15.2,0C14.059,0,8.944,2.46,7.644,3.084c-1.279.614-6.338,3.074-7.088,4" transform="translate(314.773 475.603) rotate(180)" fill="none" stroke="#e0e0e0" stroke-miterlimit="10" stroke-width="1" fill-rule="evenodd"/>
    <path id="Контур_23178" data-name="Контур 23178" d="M.557,7.087a2.412,2.412,0,0,0-.17,2.851c.749,1.2,6.491,4.367,8.045,5.2,1.325.713,6.561,3.391,7.775,3.456a2.4,2.4,0,0,0,2.314-1.326c.612-1.2.111-6.51-.014-7.936-.116-1.323-.627-7.016-1.125-8A2.4,2.4,0,0,0,15.2,0C14.059,0,8.944,2.46,7.644,3.084c-1.279.614-6.338,3.074-7.088,4" transform="translate(295.57 503.245) rotate(180)" fill="none" stroke="#e0e0e0" stroke-miterlimit="10" stroke-width="1" fill-rule="evenodd"/>
  </g>
</svg>
