<svg xmlns="http://www.w3.org/2000/svg" width="395.305" height="580.976" viewBox="0 0 395.305 580.976">
  <g id="author-bg" transform="translate(-1123.482 512.88) rotate(-30)">
    <path id="Контур_23079" data-name="Контур 23079" d="M38.467,196.627a6.075,6.075,0,0,0-.429,7.181c1.886,3.02,16.348,11,20.265,13.107,3.336,1.8,16.526,8.54,19.584,8.706a6.055,6.055,0,0,0,5.829-3.339c1.542-3.019.278-16.4-.034-19.988-.293-3.333-1.578-17.671-2.834-20.155a6.042,6.042,0,0,0-5.495-3.363c-2.878.006-15.76,6.2-19.034,7.767-3.222,1.547-15.963,7.744-17.853,10.084" transform="translate(1110.936 82.527)" fill="none" stroke="#b3b3b3" stroke-miterlimit="10" stroke-width="2" fill-rule="evenodd"/>
    <path id="Контур_23097" data-name="Контур 23097" d="M38.467,196.627a6.075,6.075,0,0,0-.429,7.181c1.886,3.02,16.348,11,20.265,13.107,3.336,1.8,16.526,8.54,19.584,8.706a6.055,6.055,0,0,0,5.829-3.339c1.542-3.019.278-16.4-.034-19.988-.293-3.333-1.578-17.671-2.834-20.155a6.042,6.042,0,0,0-5.495-3.363c-2.878.006-15.76,6.2-19.034,7.767-3.222,1.547-15.963,7.744-17.853,10.084" transform="translate(1110.936 514.22)" fill="none" stroke="#eb3656" stroke-miterlimit="10" stroke-width="2" fill-rule="evenodd"/>
    <path id="Контур_190" data-name="Контур 190" d="M38.467,196.627a6.075,6.075,0,0,0-.429,7.181c1.886,3.02,16.348,11,20.265,13.107,3.336,1.8,16.526,8.54,19.584,8.706a6.055,6.055,0,0,0,5.829-3.339c1.542-3.019.278-16.4-.034-19.988-.293-3.333-1.578-17.671-2.834-20.155a6.042,6.042,0,0,0-5.495-3.363c-2.878.006-15.76,6.2-19.034,7.767-3.222,1.547-15.963,7.744-17.853,10.084" transform="translate(1168.329 15.271)" fill="none" stroke="#b3b3b3" stroke-miterlimit="10" stroke-width="2" fill-rule="evenodd"/>
    <path id="Контур_23095" data-name="Контур 23095" d="M38.467,196.627a6.075,6.075,0,0,0-.429,7.181c1.886,3.02,16.348,11,20.265,13.107,3.336,1.8,16.526,8.54,19.584,8.706a6.055,6.055,0,0,0,5.829-3.339c1.542-3.019.278-16.4-.034-19.988-.293-3.333-1.578-17.671-2.834-20.155a6.042,6.042,0,0,0-5.495-3.363c-2.878.006-15.76,6.2-19.034,7.767-3.222,1.547-15.963,7.744-17.853,10.084" transform="translate(1168.329 446.964)" fill="none" stroke="#b3b3b3" stroke-miterlimit="10" stroke-width="2" fill-rule="evenodd"/>
    <path id="Контур_23079-2" data-name="Контур 23079" d="M38.467,196.627a6.075,6.075,0,0,0-.429,7.181c1.886,3.02,16.348,11,20.265,13.107,3.336,1.8,16.526,8.54,19.584,8.706a6.055,6.055,0,0,0,5.829-3.339c1.542-3.019.278-16.4-.034-19.988-.293-3.333-1.578-17.671-2.834-20.155a6.042,6.042,0,0,0-5.495-3.363c-2.878.006-15.76,6.2-19.034,7.767-3.222,1.547-15.963,7.744-17.853,10.084" transform="translate(1217.295 82.527)" fill="none" stroke="#eb3656" stroke-miterlimit="10" stroke-width="2" fill-rule="evenodd"/>
    <path id="Контур_23088" data-name="Контур 23088" d="M38.467,196.627a6.075,6.075,0,0,0-.429,7.181c1.886,3.02,16.348,11,20.265,13.107,3.336,1.8,16.526,8.54,19.584,8.706a6.055,6.055,0,0,0,5.829-3.339c1.542-3.019.278-16.4-.034-19.988-.293-3.333-1.578-17.671-2.834-20.155a6.042,6.042,0,0,0-5.495-3.363c-2.878.006-15.76,6.2-19.034,7.767-3.222,1.547-15.963,7.744-17.853,10.084" transform="translate(1217.295 514.22)" fill="none" stroke="#b3b3b3" stroke-miterlimit="10" stroke-width="2" fill-rule="evenodd"/>
    <path id="Контур_190-2" data-name="Контур 190" d="M38.467,196.627a6.075,6.075,0,0,0-.429,7.181c1.886,3.02,16.348,11,20.265,13.107,3.336,1.8,16.526,8.54,19.584,8.706a6.055,6.055,0,0,0,5.829-3.339c1.542-3.019.278-16.4-.034-19.988-.293-3.333-1.578-17.671-2.834-20.155a6.042,6.042,0,0,0-5.495-3.363c-2.878.006-15.76,6.2-19.034,7.767-3.222,1.547-15.963,7.744-17.853,10.084" transform="translate(1274.688 15.271)" fill="none" stroke="#b3b3b3" stroke-miterlimit="10" stroke-width="2" fill-rule="evenodd"/>
    <path id="Контур_23096" data-name="Контур 23096" d="M38.467,196.627a6.075,6.075,0,0,0-.429,7.181c1.886,3.02,16.348,11,20.265,13.107,3.336,1.8,16.526,8.54,19.584,8.706a6.055,6.055,0,0,0,5.829-3.339c1.542-3.019.278-16.4-.034-19.988-.293-3.333-1.578-17.671-2.834-20.155a6.042,6.042,0,0,0-5.495-3.363c-2.878.006-15.76,6.2-19.034,7.767-3.222,1.547-15.963,7.744-17.853,10.084" transform="translate(1274.688 446.964)" fill="none" stroke="#b3b3b3" stroke-miterlimit="10" stroke-width="2" fill-rule="evenodd"/>
    <path id="Контур_23079-3" data-name="Контур 23079" d="M38.467,196.627a6.075,6.075,0,0,0-.429,7.181c1.886,3.02,16.348,11,20.265,13.107,3.336,1.8,16.526,8.54,19.584,8.706a6.055,6.055,0,0,0,5.829-3.339c1.542-3.019.278-16.4-.034-19.988-.293-3.333-1.578-17.671-2.834-20.155a6.042,6.042,0,0,0-5.495-3.363c-2.878.006-15.76,6.2-19.034,7.767-3.222,1.547-15.963,7.744-17.853,10.084" transform="translate(1323.653 82.527)" fill="none" stroke="#b3b3b3" stroke-miterlimit="10" stroke-width="2" fill-rule="evenodd"/>
    <path id="Контур_23079-4" data-name="Контур 23079" d="M38.467,196.627a6.075,6.075,0,0,0-.429,7.181c1.886,3.02,16.348,11,20.265,13.107,3.336,1.8,16.526,8.54,19.584,8.706a6.055,6.055,0,0,0,5.829-3.339c1.542-3.019.278-16.4-.034-19.988-.293-3.333-1.578-17.671-2.834-20.155a6.042,6.042,0,0,0-5.495-3.363c-2.878.006-15.76,6.2-19.034,7.767-3.222,1.547-15.963,7.744-17.853,10.084" transform="translate(1110.936 226.425)" fill="none" stroke="#eb3656" stroke-miterlimit="10" stroke-width="2" fill-rule="evenodd"/>
    <path id="Контур_190-3" data-name="Контур 190" d="M38.467,196.627a6.075,6.075,0,0,0-.429,7.181c1.886,3.02,16.348,11,20.265,13.107,3.336,1.8,16.526,8.54,19.584,8.706a6.055,6.055,0,0,0,5.829-3.339c1.542-3.019.278-16.4-.034-19.988-.293-3.333-1.578-17.671-2.834-20.155a6.042,6.042,0,0,0-5.495-3.363c-2.878.006-15.76,6.2-19.034,7.767-3.222,1.547-15.963,7.744-17.853,10.084" transform="translate(1168.329 159.169)" fill="none" stroke="#b3b3b3" stroke-miterlimit="10" stroke-width="2" fill-rule="evenodd"/>
    <path id="Контур_23079-5" data-name="Контур 23079" d="M38.467,196.627a6.075,6.075,0,0,0-.429,7.181c1.886,3.02,16.348,11,20.265,13.107,3.336,1.8,16.526,8.54,19.584,8.706a6.055,6.055,0,0,0,5.829-3.339c1.542-3.019.278-16.4-.034-19.988-.293-3.333-1.578-17.671-2.834-20.155a6.042,6.042,0,0,0-5.495-3.363c-2.878.006-15.76,6.2-19.034,7.767-3.222,1.547-15.963,7.744-17.853,10.084" transform="translate(1217.295 226.425)" fill="none" stroke="#b3b3b3" stroke-miterlimit="10" stroke-width="2" fill-rule="evenodd"/>
    <path id="Контур_190-4" data-name="Контур 190" d="M38.467,196.627a6.075,6.075,0,0,0-.429,7.181c1.886,3.02,16.348,11,20.265,13.107,3.336,1.8,16.526,8.54,19.584,8.706a6.055,6.055,0,0,0,5.829-3.339c1.542-3.019.278-16.4-.034-19.988-.293-3.333-1.578-17.671-2.834-20.155a6.042,6.042,0,0,0-5.495-3.363c-2.878.006-15.76,6.2-19.034,7.767-3.222,1.547-15.963,7.744-17.853,10.084" transform="translate(1274.688 159.169)" fill="none" stroke="#b3b3b3" stroke-miterlimit="10" stroke-width="2" fill-rule="evenodd"/>
    <path id="Контур_23079-6" data-name="Контур 23079" d="M38.467,196.627a6.075,6.075,0,0,0-.429,7.181c1.886,3.02,16.348,11,20.265,13.107,3.336,1.8,16.526,8.54,19.584,8.706a6.055,6.055,0,0,0,5.829-3.339c1.542-3.019.278-16.4-.034-19.988-.293-3.333-1.578-17.671-2.834-20.155a6.042,6.042,0,0,0-5.495-3.363c-2.878.006-15.76,6.2-19.034,7.767-3.222,1.547-15.963,7.744-17.853,10.084" transform="translate(1323.653 226.425)" fill="none" stroke="#b3b3b3" stroke-miterlimit="10" stroke-width="2" fill-rule="evenodd"/>
    <path id="Контур_190-5" data-name="Контур 190" d="M38.467,196.627a6.075,6.075,0,0,0-.429,7.181c1.886,3.02,16.348,11,20.265,13.107,3.336,1.8,16.526,8.54,19.584,8.706a6.055,6.055,0,0,0,5.829-3.339c1.542-3.019.278-16.4-.034-19.988-.293-3.333-1.578-17.671-2.834-20.155a6.042,6.042,0,0,0-5.495-3.363c-2.878.006-15.76,6.2-19.034,7.767-3.222,1.547-15.963,7.744-17.853,10.084" transform="translate(1168.329 303.066)" fill="none" stroke="#b3b3b3" stroke-miterlimit="10" stroke-width="2" fill-rule="evenodd"/>
    <path id="Контур_23079-7" data-name="Контур 23079" d="M38.467,196.627a6.075,6.075,0,0,0-.429,7.181c1.886,3.02,16.348,11,20.265,13.107,3.336,1.8,16.526,8.54,19.584,8.706a6.055,6.055,0,0,0,5.829-3.339c1.542-3.019.278-16.4-.034-19.988-.293-3.333-1.578-17.671-2.834-20.155a6.042,6.042,0,0,0-5.495-3.363c-2.878.006-15.76,6.2-19.034,7.767-3.222,1.547-15.963,7.744-17.853,10.084" transform="translate(1217.295 370.322)" fill="none" stroke="#eb3656" stroke-miterlimit="10" stroke-width="2" fill-rule="evenodd"/>
    <path id="Контур_190-6" data-name="Контур 190" d="M38.467,196.627a6.075,6.075,0,0,0-.429,7.181c1.886,3.02,16.348,11,20.265,13.107,3.336,1.8,16.526,8.54,19.584,8.706a6.055,6.055,0,0,0,5.829-3.339c1.542-3.019.278-16.4-.034-19.988-.293-3.333-1.578-17.671-2.834-20.155a6.042,6.042,0,0,0-5.495-3.363c-2.878.006-15.76,6.2-19.034,7.767-3.222,1.547-15.963,7.744-17.853,10.084" transform="translate(1274.688 303.066)" fill="none" stroke="#b3b3b3" stroke-miterlimit="10" stroke-width="2" fill-rule="evenodd"/>
    <path id="Контур_23079-8" data-name="Контур 23079" d="M38.467,196.627a6.075,6.075,0,0,0-.429,7.181c1.886,3.02,16.348,11,20.265,13.107,3.336,1.8,16.526,8.54,19.584,8.706a6.055,6.055,0,0,0,5.829-3.339c1.542-3.019.278-16.4-.034-19.988-.293-3.333-1.578-17.671-2.834-20.155a6.042,6.042,0,0,0-5.495-3.363c-2.878.006-15.76,6.2-19.034,7.767-3.222,1.547-15.963,7.744-17.853,10.084" transform="translate(1323.653 370.322)" fill="none" stroke="#b3b3b3" stroke-miterlimit="10" stroke-width="2" fill-rule="evenodd"/>
  </g>
</svg>
