<svg id="client-10" xmlns="http://www.w3.org/2000/svg" width="127.391" height="32.195" viewBox="0 0 127.391 32.195">
  <g id="Elements-Case-Study-_Web_-Full-HD" data-name="Elements-Case-Study-(Web)-Full-HD">
    <g id="Header">
      <g id="Page-1">
        <path id="Fill-3" d="M15.581,16.192c1.791,1.52,3.505,3,5.257,4.485l.038-.038c-.076-.076-.153-.19-.229-.267-1.447-1.482-2.9-3-4.343-4.484a.538.538,0,0,1-.152-.608c.838-3.725,1.676-7.45,2.476-11.176,0-.038,0-.076-.076-.113C17.791,6.614,17.066,9.236,16.3,11.9,10.857,7.944,5.447,3.991,0,.076A.133.133,0,0,1,.038,0C.953.19,1.829.342,2.743.532c3.314.646,6.667,1.292,9.981,1.939,1.9.38,3.809.722,5.753,1.14a1.285,1.285,0,0,1,.571.342c4.381,3.8,8.723,7.564,13.105,11.365a1.589,1.589,0,0,0,.267.229,3.518,3.518,0,0,1-.381.19c-3.314,1.711-6.591,3.384-9.905,5.093a4.327,4.327,0,0,0-.876.57c-4.724,3.573-9.372,7.146-14.02,10.718a.318.318,0,0,1-.229.077Q11.295,24.213,15.581,16.192Zm24.8-6.614c-1.9.418-3.772.8-5.715,1.216.381-1.559.725-3,1.067-4.447-.038,0-.038,0-.076-.038-1.029,3.041-2.057,6.082-3.124,9.16Q29.481,12.377,26.4,9.313q.9-.323,1.79-.685c2.438-.874,4.838-1.786,7.277-2.661a.584.584,0,0,1,.686.115q1.957,1.6,3.885,3.231c.115.038.191.152.343.266Z" fill="#0f0f0f" fill-rule="evenodd"/>
        <path id="Fill-6" d="M60.539,14.514v10.68H58.33V14.514H54.711V12.423H64.2v2.091Z" transform="translate(-10.52 -2.389)" fill="#0f0f0f" fill-rule="evenodd"/>
        <path id="Fill-8" d="M67.974,20.338h4.115a2.242,2.242,0,0,0-.609-1.52,1.842,1.842,0,0,0-1.334-.531,2.3,2.3,0,0,0-1.524.494,2.128,2.128,0,0,0-.648,1.559m2.172,5.816a4.035,4.035,0,0,1-3.162-1.292,5.232,5.232,0,0,1-1.143-3.573,5.062,5.062,0,0,1,1.181-3.573,3.978,3.978,0,0,1,3.162-1.292,4.127,4.127,0,0,1,2.934,1.1,4.382,4.382,0,0,1,1.143,3.269,13.252,13.252,0,0,1-.077,1.33h-6.21a2.364,2.364,0,0,0,.687,1.6,2.035,2.035,0,0,0,1.523.609,2.339,2.339,0,0,0,1.981-.951l1.371,1.369a4.481,4.481,0,0,1-3.39,1.405" transform="translate(-12.66 -3.158)" fill="#0f0f0f" fill-rule="evenodd"/>
        <path id="Fill-10" d="M81.87,26.154a3.792,3.792,0,0,1-3.048-1.292,5.228,5.228,0,0,1-1.143-3.573,5.23,5.23,0,0,1,1.143-3.573,3.792,3.792,0,0,1,3.048-1.292,3.479,3.479,0,0,1,3.695,2.585l-2.019.684a1.643,1.643,0,0,0-1.6-1.216,1.831,1.831,0,0,0-1.524.759,3.418,3.418,0,0,0-.533,2.092,3.555,3.555,0,0,0,.533,2.052,1.692,1.692,0,0,0,1.448.76,1.67,1.67,0,0,0,1.714-1.368l2.056.608a3.592,3.592,0,0,1-3.77,2.775" transform="translate(-14.936 -3.158)" fill="#0f0f0f" fill-rule="evenodd"/>
        <path id="Fill-12" d="M89.376,25.057V12.895l2.133-.989v4.713a3.106,3.106,0,0,1,2.476-1.1,3.309,3.309,0,0,1,2.4.913,3.923,3.923,0,0,1,.914,2.888v5.74H95.167V19.7c0-1.406-.572-2.128-1.753-2.128-1.258,0-1.905.684-1.905,2.09V25.1l-2.132-.039Z" transform="translate(-17.185 -2.289)" fill="#0f0f0f" fill-rule="evenodd"/>
        <path id="Fill-14" d="M113.665,25.148h-2.21V18.382c0-.57.038-1.065.076-1.52-.152.456-.342.95-.572,1.558l-3.123,6.956-3.123-6.994q-.339-.746-.61-1.52c.039.456.077.988.077,1.52v6.8h-2.21V12.376h2.21l3.275,7.488a5.744,5.744,0,0,1,.343.951c.114-.3.229-.608.343-.951l3.314-7.488h2.133V25.148h.077Z" transform="translate(-19.607 -2.38)" fill="#0f0f0f" fill-rule="evenodd"/>
        <path id="Fill-16" d="M122.483,24.274a2.8,2.8,0,0,0,2.1-.913V22.146a4.087,4.087,0,0,0-1.866-.38,2.815,2.815,0,0,0-1.372.3,1.042,1.042,0,0,0-.533.951,1.084,1.084,0,0,0,.458.913,1.867,1.867,0,0,0,1.218.342Zm2.1,1.635v-.761a3.247,3.247,0,0,1-2.476.951,3.617,3.617,0,0,1-2.438-.8,2.887,2.887,0,0,1-.953-2.28,2.56,2.56,0,0,1,1.066-2.281,4.458,4.458,0,0,1,2.591-.8,4.314,4.314,0,0,1,2.209.494V19.94a1.616,1.616,0,0,0-.456-1.292,2.035,2.035,0,0,0-1.372-.418,4.828,4.828,0,0,0-2.781.874l-.647-1.749a6.449,6.449,0,0,1,3.657-1.026,6.573,6.573,0,0,1,1.295.113,3.6,3.6,0,0,1,1.143.457,2.417,2.417,0,0,1,.914,1.1,4.4,4.4,0,0,1,.342,1.863V25.87l-2.1.039Z" transform="translate(-22.826 -3.14)" fill="#0f0f0f" fill-rule="evenodd"/>
        <path id="Fill-18" d="M134.732,24.093a1.952,1.952,0,0,0,1.753-.913V19.341a2.041,2.041,0,0,0-1.753-.913,1.817,1.817,0,0,0-1.561.723,3.648,3.648,0,0,0-.533,2.128,3.774,3.774,0,0,0,.533,2.091,1.868,1.868,0,0,0,1.561.721m-.5,5.474-1.143-1.711a5.584,5.584,0,0,0,2.667-.607,1.573,1.573,0,0,0,.724-1.446v-.531a2.682,2.682,0,0,1-2.133.836,3.493,3.493,0,0,1-2.781-1.255,5.376,5.376,0,0,1-1.066-3.61,5.4,5.4,0,0,1,1.066-3.573,3.436,3.436,0,0,1,2.819-1.292,2.816,2.816,0,0,1,2.1.8V16.6h2.133v8.4a4.74,4.74,0,0,1-.99,3.344,5.1,5.1,0,0,1-3.391,1.217" transform="translate(-25.094 -3.149)" fill="#0f0f0f" fill-rule="evenodd"/>
        <path id="Fill-20" d="M143.136,25.057h2.134V15.744h-2.134Zm1.981-10.947a1.129,1.129,0,0,1-.914.38,1.238,1.238,0,0,1-.914-.38,1.18,1.18,0,0,1-.381-.913,1.234,1.234,0,0,1,.381-.912,1.332,1.332,0,0,1,.914-.38,1.24,1.24,0,0,1,.914.38,1.261,1.261,0,0,1,.381.913,1.636,1.636,0,0,1-.381.913Z" transform="translate(-27.478 -2.289)" fill="#0f0f0f" fill-rule="evenodd"/>
        <path id="Fill-22" d="M152.05,26.154A3.789,3.789,0,0,1,149,24.861a5.224,5.224,0,0,1-1.143-3.573A5.226,5.226,0,0,1,149,17.716a3.79,3.79,0,0,1,3.048-1.292,3.481,3.481,0,0,1,3.7,2.585l-2.019.684a1.644,1.644,0,0,0-1.6-1.216,1.829,1.829,0,0,0-1.524.759,3.412,3.412,0,0,0-.533,2.092,3.549,3.549,0,0,0,.533,2.052,1.691,1.691,0,0,0,1.447.76,1.67,1.67,0,0,0,1.714-1.368l2.057.608a3.594,3.594,0,0,1-3.772,2.775" transform="translate(-28.431 -3.158)" fill="#0f0f0f" fill-rule="evenodd"/>
      </g>
    </g>
  </g>
</svg>
