<svg xmlns="http://www.w3.org/2000/svg" width="94.693" height="18.87" viewBox="0 0 94.693 18.87">
  <path id="client-5" d="M73.712,0H68.481L89.453,18.86h5.231L73.712,0m6.06,13.422-6.05,5.438H68.491l6.04-5.438h5.24m8.872-7.984L94.693,0H89.463l-6.05,5.438h5.231M13.106,0,10.964,3.069,21.89,18.86h4.323L13.106,0M7.56,7.984h4.283L4.323,18.86H0L7.56,7.984M52.543,0,50.4,3.069,61.326,18.86h4.323L52.543,0M47,7.984h4.283L43.759,18.86H39.437L47,7.984M34.769,0l.01,11.547c-.01,1.875-.888,4.214-3.839,4.411H29.864v2.9s.938,0,1.549.01a6.919,6.919,0,0,0,4.747-2.033,8.007,8.007,0,0,0,2-5.477V0H34.769" fill="#161515"/>
</svg>
