<svg xmlns="http://www.w3.org/2000/svg" width="79.331" height="23.125" viewBox="0 0 79.331 23.125">
  <g id="client-13" transform="translate(0 0)">
    <path id="Контур_22651" data-name="Контур 22651" d="M34.408,37.784l.138-.039,3.476,5.307,3.485-5.327.168.044v6.419h3.758V31.65H41.376C40.29,33.4,39.2,35.157,38.058,37c-1.145-1.863-2.23-3.612-3.3-5.341H30.717V44.174h3.692ZM62.1,41.375a9.181,9.181,0,0,1,1.71-.019l2.532,3.785,4.021.307-3.081-4.394a.432.432,0,0,1,.293-.288c2.352-1.039,2.953-3.481,2.466-5.656a4.609,4.609,0,0,0-4.368-3.462c-2.307-.068-4.616-.036-6.925-.044a.559.559,0,0,0-.442.134V44.684l3.794.18Zm.025-6.362c.067-.032.128-.086.19-.087a16.431,16.431,0,0,1,2.948.067,1.624,1.624,0,0,1,.088,3.226,19.692,19.692,0,0,1-3.228.083ZM12.585,42.278H5.192v-2.27H11.8a27.309,27.309,0,0,0-.015-3h-6.6a11.667,11.667,0,0,1,.02-2.133h7.3v-3.2H1.395v13.8l11.193-.693Zm14.639-.109H20.493V31.659H16.722V44.636c3.554-.227,7.036-.2,10.553-.369A15.242,15.242,0,0,0,27.224,42.169ZM53.991,31.65H50.216V44.394h3.775ZM.007,48.048l.048-.015L0,48.042Zm64.74-1.582c-4.48-.365-8.969-.577-13.461-.722q-6.156-.2-12.32-.212c-3.083-.015-6.167.072-9.252.141-4.16.092-8.313.3-12.465.552-4.046.247-8.084.586-12.107,1.08-.924.113-4.116.441-5.087.73,4.631-.645,10.756-1.15,14.692-1.375,5.079-.344,10.168-.529,15.258-.612C33.229,46,36.46,46,39.679,46c6.166-.006,12.333.083,18.494.348,2.585.111,5.172.239,7.751.475,2.209.2,10.666,1.417,10.666,1.417s-4.3-.825-4.444-.846C69.684,47.02,67.223,46.669,64.747,46.467ZM77.1,28.086l-.252.764h.5Z" transform="translate(0 -25.114)" fill="#161515"/>
    <path id="Контур_22652" data-name="Контур 22652" d="M687.687,0a3.507,3.507,0,0,0-3.527,3.474A3.472,3.472,0,1,0,687.687,0Zm-.077,3.67a.9.9,0,0,1-.241.692,1.024,1.024,0,0,1-.716.222,1,1,0,0,1-.716-.222.92.92,0,0,1-.232-.692V2.357h.573V3.68a.511.511,0,0,0,.088.317.363.363,0,0,0,.3.106q.371,0,.371-.433V2.357h.573Zm1.78.874-.141-.4h-.756l-.144.4h-.583l.819-2.188h.577l.817,2.187Z" transform="translate(-611.772 0)" fill="#161515"/>
  </g>
</svg>
