<svg id="client-1" xmlns="http://www.w3.org/2000/svg" width="94.693" height="20.06" viewBox="0 0 94.693 20.06">
  <path id="Контур_22708" data-name="Контур 22708" d="M9.721,11.694V19.8H7.063V11.752L0,.677H3.093l5.3,8.392L13.666.677h3.118L9.721,11.694M25.259,8.308l.1-1.588h2.315V19.8H25.36l-.1-1.588a5.081,5.081,0,0,1-4.188,1.847c-3.586,0-6.026-2.867-6.026-6.8s2.441-6.8,6.026-6.8a5.081,5.081,0,0,1,4.188,1.847Zm-7.64,4.948c0,2.708,1.638,4.539,3.92,4.539a4.019,4.019,0,0,0,3.586-2.215V10.941A4,4,0,0,0,21.54,8.726C19.258,8.726,17.62,10.548,17.62,13.257ZM31.679,0H34.22V19.8H31.679ZM47.242,8.308l.109-1.588h2.307V19.8H47.351l-.109-1.588a5.081,5.081,0,0,1-4.188,1.847c-3.586,0-6.026-2.867-6.026-6.8s2.441-6.8,6.026-6.8A5.081,5.081,0,0,1,47.242,8.308ZM39.6,13.257c0,2.708,1.638,4.539,3.92,4.539a4.041,4.041,0,0,0,3.594-2.215V10.941a4.026,4.026,0,0,0-3.594-2.215C41.241,8.726,39.6,10.548,39.6,13.257Zm25.544-1.2V19.8H62.605V12.22c0-1.981-1.17-3.335-3.017-3.335a4.109,4.109,0,0,0-3.377,2.081V19.8H53.662V6.72h2.315l.1,1.588a5.114,5.114,0,0,1,4.129-1.847c3.151,0,4.94,2.24,4.94,5.6M72.217,6.72h4.1V8.91h-4.1V15.4a2.116,2.116,0,0,0,2.232,2.34,3.627,3.627,0,0,0,1.872-.41l.727,2a5.14,5.14,0,0,1-2.808.736c-2.775,0-4.572-1.613-4.572-4.639V8.91H67.119V6.72h2.549V2.3h2.549V6.72" transform="translate(0)" fill="#161515" fill-rule="evenodd"/>
  <path id="Контур_22709" data-name="Контур 22709" d="M95.923,4.335a1.628,1.628,0,0,0,1.663-1.672,1.663,1.663,0,1,0-3.327,0,1.614,1.614,0,0,0,1.663,1.672" transform="translate(-15.473 0.187)" fill="#161515" fill-rule="evenodd"/>
  <path id="Контур_22710" data-name="Контур 22710" d="M94.7,7.989h2.549V21.07H94.7Zm15.12,1.179-1.087,1.973A5.174,5.174,0,0,0,105.482,10c-1.454,0-2.391.443-2.391,1.513s.752,1.329,2.733,1.8c3.034.727,4.413,1.981,4.413,3.962,0,2.474-2.023,4.062-5.224,4.062a7.992,7.992,0,0,1-4.965-1.588l1.17-2.031a5.766,5.766,0,0,0,3.82,1.354c1.563,0,2.625-.527,2.625-1.647,0-1.062-.777-1.454-2.775-1.922-3.043-.7-4.346-1.772-4.346-3.828,0-2.474,1.9-3.937,4.94-3.937a6.971,6.971,0,0,1,4.338,1.438" transform="translate(-15.545 -1.794)" fill="#161515" fill-rule="evenodd"/>
</svg>
