<svg xmlns="http://www.w3.org/2000/svg" width="59.202" height="15.019" viewBox="0 0 59.202 15.019">
  <g id="client-12" transform="translate(0)">
    <path id="Контур_22662" data-name="Контур 22662" d="M0,3.03H6.216a5.6,5.6,0,0,1,3.65,1.1A3.978,3.978,0,0,1,11.2,7.4a4.292,4.292,0,0,1-1.247,3.249,4.7,4.7,0,0,1-3.4,1.194H2.514v5.513H0ZM2.514,5.123V9.809H6.02q2.735,0,2.736-2.353,0-2.337-2.957-2.337Z" transform="translate(0 -2.676)" fill="#161515"/>
    <path id="Контур_22663" data-name="Контур 22663" d="M113.061,34.19a4.962,4.962,0,0,1,3.782,1.489,5.562,5.562,0,0,1,1.4,4,5.629,5.629,0,0,1-1.4,4.023,4.948,4.948,0,0,1-3.782,1.489,5.1,5.1,0,0,1-3.862-1.489,5.579,5.579,0,0,1-1.429-4.023,5.518,5.518,0,0,1,1.438-4A5.109,5.109,0,0,1,113.061,34.19Zm2.1,2.787a2.836,2.836,0,0,0-4.289.009,4.219,4.219,0,0,0-.785,2.7,4.274,4.274,0,0,0,.785,2.735,2.636,2.636,0,0,0,2.172.986,2.541,2.541,0,0,0,2.122-1,4.37,4.37,0,0,0,.775-2.746,4.236,4.236,0,0,0-.781-2.685Z" transform="translate(-95.178 -30.195)" fill="#161515"/>
    <path id="Контур_22664" data-name="Контур 22664" d="M216.6,36.855l-2.22.654q-.2-1.649-2.253-1.65a2.449,2.449,0,0,0-1.368.322,1.008,1.008,0,0,0-.479.88,1.565,1.565,0,0,0,.029.322.592.592,0,0,0,.117.251c.06.074.117.138.16.192a.727.727,0,0,0,.256.169l.291.131a2.773,2.773,0,0,0,.373.117l.412.11c.1.027.264.064.493.117s.4.084.522.111q.785.181,1.137.271a9.156,9.156,0,0,1,1.026.362,3.389,3.389,0,0,1,1,.563,2.921,2.921,0,0,1,.592.8,2.472,2.472,0,0,1,.272,1.177,2.962,2.962,0,0,1-1.228,2.495,5.353,5.353,0,0,1-3.3.925,5.427,5.427,0,0,1-3.4-.925A3.857,3.857,0,0,1,207.6,42.23l2.354-.677q.186,1.951,2.523,1.951a2.855,2.855,0,0,0,1.619-.412,1.264,1.264,0,0,0,.613-1.1,1.08,1.08,0,0,0-.151-.584,1.187,1.187,0,0,0-.493-.412,3.987,3.987,0,0,0-.654-.262q-.312-.089-.835-.21a3.343,3.343,0,0,0-.341-.081,17.391,17.391,0,0,1-2.817-.845,2.342,2.342,0,0,1-1.428-2.274,2.707,2.707,0,0,1,1.126-2.3,5.15,5.15,0,0,1,3.119-.835,5.466,5.466,0,0,1,3.128.825A2.738,2.738,0,0,1,216.6,36.855Z" transform="translate(-183.343 -30.195)" fill="#161515"/>
    <path id="Контур_22665" data-name="Контур 22665" d="M300.516,4.3V5.967h-2.093v5.472q0,.483.021.673a1.41,1.41,0,0,0,.117.423.546.546,0,0,0,.351.312,2.369,2.369,0,0,0,.694.081,8.053,8.053,0,0,0,.906-.041V14.7a13.341,13.341,0,0,1-1.549.081,5.414,5.414,0,0,1-1.052-.091,4.389,4.389,0,0,1-.754-.211,1.1,1.1,0,0,1-.5-.412q-.2-.291-.312-.483a1.829,1.829,0,0,1-.16-.674,7.16,7.16,0,0,1-.05-.734v-6.2H294.4V4.3h1.73V1.646L298.423,0V4.3Z" transform="translate(-260.001)" fill="#161515"/>
    <path id="Контур_22666" data-name="Контур 22666" d="M366.027,41.616a4.348,4.348,0,0,1-1.66,2.635,4.979,4.979,0,0,1-3.047.945,4.79,4.79,0,0,1-3.732-1.519,5.564,5.564,0,0,1-1.378-3.892,5.831,5.831,0,0,1,1.417-4.026,4.609,4.609,0,0,1,3.61-1.589,4.485,4.485,0,0,1,3.6,1.56,6.345,6.345,0,0,1,1.327,4.254v.242H358.5a3.717,3.717,0,0,0,.784,2.423,2.608,2.608,0,0,0,2.072.855,2.467,2.467,0,0,0,1.539-.452,2.979,2.979,0,0,0,.935-1.438ZM363.874,38.7a3.243,3.243,0,0,0-.818-2.062A2.636,2.636,0,0,0,359.4,36.6a3.534,3.534,0,0,0-.855,2.091Z" transform="translate(-314.589 -30.177)" fill="#161515"/>
    <path id="Контур_22667" data-name="Контур 22667" d="M460.765,36.943c-.4-.04-.671-.061-.8-.061q-3,0-3,3.883v4.567H454.69V34.951h2.152v2.073a3.649,3.649,0,0,1,3.481-2.313Z" transform="translate(-401.562 -30.654)" fill="#161515"/>
  </g>
</svg>
