<svg id="client-3" xmlns="http://www.w3.org/2000/svg" width="94.693" height="37.496" viewBox="0 0 94.693 37.496">
  <path id="Контур_22703" data-name="Контур 22703" d="M42.525,14.919a3.578,3.578,0,0,0-.97,1.313,4.628,4.628,0,0,0-.342,1.883,2.8,2.8,0,0,0,.571,1.826,4.309,4.309,0,0,0,1.484,1.2,10.336,10.336,0,0,0,2,.742c.685.171,1.37.342,1.94.514a7.334,7.334,0,0,1,1.484.571.982.982,0,0,1,.571.913c0,1.256-.97,1.883-2.968,1.883a8.338,8.338,0,0,1-3.424-.685,1.918,1.918,0,0,0-.856-.228.788.788,0,0,0-.628.342,1.067,1.067,0,0,0-.285.8.982.982,0,0,0,.457.8,9.862,9.862,0,0,0,4.851,1.2,5.9,5.9,0,0,0,3.938-1.2,3.644,3.644,0,0,0-.8-6.107A9.7,9.7,0,0,0,47.6,20c-.685-.171-1.37-.342-2-.514a6.1,6.1,0,0,1-1.484-.628,1.21,1.21,0,0,1-.571-1.141,1.587,1.587,0,0,1,.8-1.313,4.315,4.315,0,0,1,2.34-.514,9.08,9.08,0,0,1,2.854.4,1.815,1.815,0,0,0,.742.114.993.993,0,0,0,.628-.342.9.9,0,0,0,.285-.685,1.1,1.1,0,0,0-.228-.685,1.45,1.45,0,0,0-.571-.457,11.414,11.414,0,0,0-3.938-.685,7.2,7.2,0,0,0-3.944,1.37Zm15.124-3.6c-.171,0-.285.114-.457.228l-3.653,3.6a.571.571,0,0,0-.285.4.457.457,0,0,0,.514.514h1.883v8.332a3.251,3.251,0,0,0,1.484,3.025,3.6,3.6,0,0,0,1.313.457,12.411,12.411,0,0,0,1.484.057,5.136,5.136,0,0,0,2-.514.81.81,0,0,0,.514-.8,1.141,1.141,0,0,0-.285-.8.947.947,0,0,0-.685-.285,2.853,2.853,0,0,0-.685.114,4.252,4.252,0,0,1-1.027.114,2.22,2.22,0,0,1-1.027-.171,1.558,1.558,0,0,1-.571-1.37V16.061h3.082a1.027,1.027,0,1,0,0-2.055H58.163V11.895a.827.827,0,0,0-.114-.4C57.934,11.324,57.877,11.267,57.649,11.324Zm14.211,2.4a5.386,5.386,0,0,0-4.223,2.511V15.091a1.4,1.4,0,0,0-.342-.913,1.141,1.141,0,0,0-.856-.342,1.027,1.027,0,0,0-.856.4,1.256,1.256,0,0,0-.342.856V26.619a1.2,1.2,0,0,0,2.4,0V18.458a6.317,6.317,0,0,1,1.769-1.712,4.218,4.218,0,0,1,2.4-.685h.114a1.712,1.712,0,0,0,.913-.285,1.2,1.2,0,0,0-.856-2.055ZM76.825,8.3a1.364,1.364,0,0,0-1.37,1.37v.114a1.176,1.176,0,0,0,.4.97,1.176,1.176,0,0,0,.97.4H77a1.176,1.176,0,0,0,.97-.4,1.25,1.25,0,0,0,.4-.97V9.669a1.176,1.176,0,0,0-.4-.97A1.25,1.25,0,0,0,77,8.3Zm-.8,5.878a1.2,1.2,0,0,0-.342.913V26.619a1.141,1.141,0,0,0,.342.856,1.2,1.2,0,0,0,.913.342,1.17,1.17,0,0,0,1.2-1.2V15.091a1.2,1.2,0,0,0-.342-.913,1.141,1.141,0,0,0-.856-.342,1.2,1.2,0,0,0-.913.342Zm8.852,1.6v-.685a1.2,1.2,0,1,0-2.4,0V32.84a1.4,1.4,0,0,0,.342.913,1.238,1.238,0,0,0,1.712,0,1.2,1.2,0,0,0,.342-.913V25.991a6.175,6.175,0,0,0,4.566,2.055,6.278,6.278,0,0,0,4.509-1.826,7.185,7.185,0,0,0,2.055-5.308A7.185,7.185,0,0,0,93.952,15.6,6.033,6.033,0,0,0,89.5,13.778a6.112,6.112,0,0,0-4.623,2Zm0,7.933v-5.65a5.707,5.707,0,0,1,4.28-2,4.349,4.349,0,0,1,3.2,1.2,5.136,5.136,0,0,1,1.2,3.6,6.106,6.106,0,0,1-.285,2.112,3.993,3.993,0,0,1-4.109,2.739H89.1a5.61,5.61,0,0,1-4.223-2Zm15.581-8.047A7.122,7.122,0,0,0,98.575,20.8a7.122,7.122,0,0,0,1.883,5.136,6.529,6.529,0,0,0,5.022,2,6.706,6.706,0,0,0,5.022-2A7.34,7.34,0,0,0,112.33,20.8v-.342A6.849,6.849,0,0,0,110.5,15.6a6.706,6.706,0,0,0-5.022-2,7.106,7.106,0,0,0-5.028,2.055Zm3.424,9.816a4,4,0,0,1-2.454-2.4,5.45,5.45,0,0,1-.4-2.283,5.628,5.628,0,0,1,.4-2.283,4.035,4.035,0,0,1,4.052-2.625,4.143,4.143,0,0,1,2.968,1.084,4.908,4.908,0,0,1,1.427,3.767,4.871,4.871,0,0,1-1.427,3.824,4.138,4.138,0,0,1-1.427.856,4.891,4.891,0,0,1-1.541.285,4,4,0,0,1-1.6-.228Z" transform="translate(-17.642 -3.562)" fill="#161515"/>
  <path id="Контур_22704" data-name="Контур 22704" d="M3.77,25.3a2.243,2.243,0,0,1-1.712.057c-.114.171-.171.342-.285.514a12.875,12.875,0,0,0-.742,1.883,11.26,11.26,0,0,0-.223,2,3.75,3.75,0,0,0,.4,1.826,1.786,1.786,0,0,0,1.427.913,2.928,2.928,0,0,0,1.712-.571,17.475,17.475,0,0,0,2.968-2.854c.913-1.027,1.826-2.112,2.739-3.2a21.642,21.642,0,0,1,3.025-3.025,4.657,4.657,0,0,1,2.055-1.027H15.7a2.026,2.026,0,0,1,.571.114,2.055,2.055,0,0,1,1.027.685,2.893,2.893,0,0,1,.514.913c.171-2.682.8-10.444-3.538-8.39-2.8,1.313-4.794,4.68-6.792,6.963-1.027,1.141-2.226,2.625-3.71,3.2" transform="translate(-0.346 -6.354)" fill="#161515"/>
  <path id="Контур_22705" data-name="Контур 22705" d="M9.3,35.213a23.5,23.5,0,0,1,1.541-3.938c.342-.628.628-1.256,1.027-1.883a11.671,11.671,0,0,1,1.147-1.769c.8-1.141,1.6-2.283,2.34-3.481a9.555,9.555,0,0,0,1.655-3.653,7.882,7.882,0,0,0,.057-2,2.854,2.854,0,0,0-.628-1.712,2.483,2.483,0,0,0-.4-.342c-1.256,2.169-2.911,4.166-4.166,6.335A18.639,18.639,0,0,0,8.852,32.36V37.5a16.608,16.608,0,0,1,.457-2.283M0,21.117a11.352,11.352,0,0,1,.742-1.94c.342-.628.685-1.256,1.027-1.826a37.057,37.057,0,0,1,2.34-3.481c1.712-2.226,3.481-4.395,5.365-6.449V0A107.613,107.613,0,0,0,2.745,9.131,13.818,13.818,0,0,0,.177,14.9c-.114,1.313-.171,2.739-.171,4v2.226" fill="#161515"/>
</svg>
