<svg xmlns="http://www.w3.org/2000/svg" width="152.138" height="14.804" viewBox="0 0 152.138 14.804">
  <path id="client-11" d="M13.409,14.614V.261h2.958v11.83h5.741v2.523h-8.7Zm20.007,0-1.044-3.479H27.239L26.2,14.614H22.977L27.935.174h3.653l5.045,14.44H33.415Zm-1.74-6q-1.435-4.7-1.566-5.219a7.056,7.056,0,0,0-.261-.957L28.022,8.7Zm14.875,2a3.617,3.617,0,0,1-1.392,3.044,5.54,5.54,0,0,1-3.827,1.131,8.962,8.962,0,0,1-4-.87V11.047A20.259,20.259,0,0,0,39.765,12a6.622,6.622,0,0,0,1.827.261,2.277,2.277,0,0,0,1.479-.435,1.4,1.4,0,0,0,.522-1.131.988.988,0,0,0-.261-.7,2.345,2.345,0,0,0-.7-.609,18.407,18.407,0,0,0-1.827-.957A5.528,5.528,0,0,1,38.9,7.22a3.851,3.851,0,0,1-1.044-1.3,3,3,0,0,1-.348-1.74,3.7,3.7,0,0,1,1.218-2.958A5.239,5.239,0,0,1,42.288.174a8.579,8.579,0,0,1,2.088.261,19.574,19.574,0,0,1,2.088.7l-.957,2.349a7.031,7.031,0,0,0-1.914-.609,2.859,2.859,0,0,0-1.479-.348,1.83,1.83,0,0,0-1.3.435A1.441,1.441,0,0,0,40.374,4a1.639,1.639,0,0,0,.174.7,2.032,2.032,0,0,0,.609.609,13.1,13.1,0,0,0,1.914.957,8.464,8.464,0,0,1,2.7,1.914A4.069,4.069,0,0,1,46.55,10.612Zm10.96,0a3.617,3.617,0,0,1-1.392,3.044,6.016,6.016,0,0,1-3.827,1.131,8.962,8.962,0,0,1-4-.87V11.047A20.259,20.259,0,0,0,50.726,12a6.622,6.622,0,0,0,1.827.261,2.277,2.277,0,0,0,1.479-.435,1.4,1.4,0,0,0,.522-1.131.988.988,0,0,0-.261-.7,2.345,2.345,0,0,0-.7-.609,18.407,18.407,0,0,0-1.827-.957A5.528,5.528,0,0,1,49.856,7.22a3.851,3.851,0,0,1-1.044-1.3,3,3,0,0,1-.348-1.74,3.7,3.7,0,0,1,1.218-2.958A5.239,5.239,0,0,1,53.248.174a8.579,8.579,0,0,1,2.088.261,19.574,19.574,0,0,1,2.088.7l-.957,2.349a7.031,7.031,0,0,0-1.914-.609,3.073,3.073,0,0,0-1.479-.348,1.83,1.83,0,0,0-1.3.435,1.246,1.246,0,0,0-.435.957,1.639,1.639,0,0,0,.174.7,2.032,2.032,0,0,0,.609.609,13.1,13.1,0,0,0,1.914.957,8.464,8.464,0,0,1,2.7,1.914,4.532,4.532,0,0,1,.783,2.523Zm14.875-8a3.1,3.1,0,0,0-2.61,1.3,6.471,6.471,0,0,0-.957,3.566c0,3.218,1.131,4.784,3.566,4.784a13.551,13.551,0,0,0,3.653-.7v2.523a8.322,8.322,0,0,1-3.827.7,5.817,5.817,0,0,1-4.7-1.914,8.093,8.093,0,0,1-1.653-5.48,9.831,9.831,0,0,1,.783-3.914A6.176,6.176,0,0,1,68.993.87,6.994,6.994,0,0,1,72.559,0a8.742,8.742,0,0,1,4.175,1.044l-.957,2.436a12.323,12.323,0,0,0-1.566-.7A14.319,14.319,0,0,0,72.385,2.61Zm14.527,12h-8.09V.261h8.09V2.784H81.779V5.915h4.784V8.438H81.779v3.653h5.132v2.523Zm15.483,0H98.568L92.392,3.74H92.3c.174,1.914.174,3.305.174,4.088v6.785h-2.7V.261h3.74L99.7,11.047h.087c-.087-1.827-.174-3.218-.174-4V.261h2.7Zm8.612,0h-2.958V2.784h-3.827V.261h10.7V2.784h-3.827l-.087,11.83Zm8.525-5.48v5.48h-2.958V.261h4.088A7.158,7.158,0,0,1,124.924,1.3a3.837,3.837,0,0,1,1.392,3.218,4.312,4.312,0,0,1-.7,2.262,4.771,4.771,0,0,1-1.914,1.566c2.088,3.218,3.566,5.306,4.175,6.263h-3.305l-3.392-5.48h-1.653Zm0-2.523h.957a3.025,3.025,0,0,0,2.088-.522,2.037,2.037,0,0,0,.7-1.566,1.469,1.469,0,0,0-.7-1.479,3.637,3.637,0,0,0-2.088-.435h-.957v4Zm19.137,8-1.044-3.479h-5.132l-1.044,3.479H128.23L133.188.174h3.653l5.045,14.44h-3.218Zm-1.74-6q-1.435-4.7-1.566-5.219a7.056,7.056,0,0,0-.261-.957c-.174.87-.783,2.871-1.827,6.263l3.653-.087Zm6.611,6V.261H146.5v11.83h5.741v2.523h-8.7ZM4.971,11.4,4.623,8.525a1.277,1.277,0,0,0,.609-1.74,1.015,1.015,0,0,0-.522-.522l.7-2.871a3.479,3.479,0,0,1,2-.7,4.926,4.926,0,0,1,1.566.261c.522.174,1.044.435,1.566.609L11.5,1.131A9.127,9.127,0,0,0,7.407.174a6.893,6.893,0,0,0-3.479.87,2.952,2.952,0,0,1-.522.522l-2,2.523C1.318,4.088,1.231,4,1.144,4a.8.8,0,0,0-.783.87.661.661,0,0,0,.522.7L.709,10.09a1.047,1.047,0,0,0-.609.87.925.925,0,0,0,.783.87c.087,0,.261-.087.348-.087l1.74,1.566a5.828,5.828,0,0,0,4.262,1.479,11.458,11.458,0,0,0,3.827-.7V11.569a10.006,10.006,0,0,1-3.566.7,3.031,3.031,0,0,1-2.523-.87ZM1.666,10.96a1.236,1.236,0,0,0-.174-.522L3.579,8.525A1.236,1.236,0,0,0,4.1,8.7l.609,2.7L1.666,10.96ZM4.1,6.176a1.214,1.214,0,0,0-.783.261L1.84,5.393a.784.784,0,0,0,.087-.435V4.7L4.884,3.131l.348.348-.957,2.7H4.1ZM3.492,1.653l1.218,1.3L1.84,4.436a.187.187,0,0,0-.174-.174l1.827-2.61ZM1.144,5.741a1.236,1.236,0,0,0,.522-.174L3.144,6.7a.721.721,0,0,0-.261.7,1.117,1.117,0,0,0,.348.87l-1.914,2c-.087-.087-.261-.087-.348-.174l.174-4.349Zm.435,5.567,2.958.348L2.971,13.222,1.4,11.569C1.492,11.482,1.492,11.4,1.579,11.308Z" transform="translate(-0.1)" fill="#161515"/>
</svg>
