<svg xmlns="http://www.w3.org/2000/svg" width="66.233" height="52.423" viewBox="0 0 66.233 52.423">
  <path id="client-4" d="M3.89,51.423h0a3.946,3.946,0,0,1-.732-.069,3.3,3.3,0,0,1-1.882-1.062A4.938,4.938,0,0,1,0,46.683c0-.9,0-3.294,0-3.766v-.011l0-4.519L0,29.7s0-2.257,0-3.407C-.007,25.2-.03,22.931.82,21.714a7.135,7.135,0,0,1,3.523-2.4c9.648-3.153,17.946-6.055,25.97-8.861,8.043-2.812,16.359-5.72,26.021-8.878,1.417-.442,1.47-.46,1.98-.631L58.35.934,58.7.817c.188-.063.387-.131.608-.209A7.968,7.968,0,0,1,61.83,0a3.507,3.507,0,0,1,2.264.911,3.81,3.81,0,0,1,1.136,3.1c0,.309,0,.569,0,.8-.006,1.026,0,3.556,0,4.6v9.148c0,1.256.007,4.311,0,5.554v.439c0,.561,0,1.138,0,1.821a6.775,6.775,0,0,1-.685,3.214,5.458,5.458,0,0,1-3.083,2.381Q47.74,36.634,34.789,41.09l-1.258.432C23.8,44.86,15,47.88,5.731,51.035A5.2,5.2,0,0,1,3.89,51.423Zm8.885-31.374a.09.09,0,0,0-.038.008L6.712,22.1l-.073.025L3.555,23.167a.252.252,0,0,0-.183.285c0,.242,0,.867,0,.867l0,4.4V46.7c0,.011,0,1.185,0,1.775,0,.071,0,.178.119.178a.305.305,0,0,0,.1-.018l4.669-1.58.045-.015,4.411-1.493c.177-.049.168-.245.161-.375,0-.024,0-.046,0-.064.015-4.1.007-8.219,0-12.205v-.006c-.008-4.159-.017-8.46,0-12.735a.093.093,0,0,0-.022-.075A.1.1,0,0,0,12.776,20.049Zm1.407.19a.1.1,0,0,0-.051.014.126.126,0,0,0-.029.086c0,2.27,0,4.577,0,6.809v.011c0,2.558.007,5.2,0,7.794a.213.213,0,0,0,.069.14c.012.014.023.028.034.042l2.946,3.839L20.1,42.814c.009.011.019.025.029.039.034.047.072.1.126.1a.105.105,0,0,0,.045-.011c2.676-.9,5.859-1.982,9.178-3.107a.089.089,0,0,0,.074-.065.092.092,0,0,0-.031-.1c-2.529-3.227-5.114-6.507-7.615-9.68l-.01-.013c-2.5-3.177-5.093-6.462-7.625-9.693A.1.1,0,0,0,14.182,20.239Zm15.641-6a.447.447,0,0,0-.14.024l-4.038,1.366-.031.01c-1.549.524-3.093,1.046-4.708,1.593-.1.055-.117.083-.117.348,0,.2,0,.659,0,.659V18.6s0,1.193,0,1.658c0,.895,0,2.773,0,2.791l0,2.672c0,.005,0,.526,0,.748,1.853,2.377,3.751,4.8,5.587,7.138,1.153,1.471,2.346,2.991,3.523,4.5a.088.088,0,0,0,.081.048.078.078,0,0,0,.086-.077c0-.218,0-.438,0-.659,0-.869.008-1.765,0-2.763-.009-.753,0-2.3,0-2.318,0-.152.008-3.75,0-5.519,0-.445,0-1.331,0-1.364s.007-2.889,0-4.091c-.009-2.758,0-4.723,0-4.742V14.462A.223.223,0,0,0,30,14.3.252.252,0,0,0,29.823,14.234Zm8.985,17.845h0c.494.65.991,1.31,1.473,1.949l.021.027q.6.794,1.2,1.588a.081.081,0,0,0,.073.04.144.144,0,0,0,.053-.011c1.409-.482,2.828-.964,4.2-1.431,1.657-.563,3.37-1.145,5.056-1.724.028-.078-.023-.138-.072-.2a.654.654,0,0,1-.044-.057Q43.094,22.394,35.423,12.52a.584.584,0,0,1-.038-.05c-.037-.052-.075-.106-.132-.106a.11.11,0,0,0-.044.01l-1.794.6-2.041.682-.024.008c-.078.024-.107.033-.107.2,0,.1,0,.22,0,.334,0,.074,0,.144,0,.2,0,.4,0,.751,0,1.094,0,.359,0,.729,0,1.139,0,.384,0,1.176,0,1.183v3.613s0,.389,0,.5c0,.005,0,.01,0,.014,0,.028,0,.048.1.2.813,1.079,1.584,2.108,2.331,3.1l.015.019c.676.9,1.355,1.807,2.077,2.767-.718.251-1.4.487-2.08.723l-.054.019-.01,0c-.723.251-1.445.5-2.208.768-.145.05-.168.092-.174.22.007.8.005,1.595,0,2.367s0,1.572,0,2.368a.091.091,0,0,0,.021.074.088.088,0,0,0,.067.032.085.085,0,0,0,.039-.01l5.959-2.022,1.479-.5ZM61.848,3.353a.265.265,0,0,0-.084.017c-1.257.428-2.457.835-3.644,1.237l-.023.008c-1.854.628-3.6,1.221-5.52,1.878,0,.31,0,1.167,0,1.174V26.854c0,.139-.011,3.371,0,4.973a.088.088,0,0,0,.021.071.1.1,0,0,0,.07.033.091.091,0,0,0,.045-.011l5.36-1.813.123-.042,3.662-1.239a.106.106,0,0,0,.088-.093c0-.714-.005-2.159-.005-2.173s-.015-2.335,0-5.53c.009-1.83,0-6.166,0-6.209V3.473a.149.149,0,0,0-.022-.088A.084.084,0,0,0,61.848,3.353Zm-10.811,3.6a.2.2,0,0,0-.05.006c-1.614.547-3.267,1.1-4.865,1.644l-.005,0q-2.187.737-4.364,1.474a.1.1,0,0,0-.054.093c0,2.04,0,4.1,0,6.1v.014q0,1.117,0,2.237a.277.277,0,0,0,.088.168.687.687,0,0,1,.051.064q4.637,5.969,9.277,11.938a.075.075,0,0,0,.071.045.091.091,0,0,0,.068-.031.078.078,0,0,0,.017-.065c0-.068,0-.14,0-.217v-.008c0-.243,0-.517-.009-.794-.031-1.17,0-2.814,0-2.883V10.118c0-.02.007-2.065,0-2.978a.165.165,0,0,0-.073-.13A.261.261,0,0,0,51.038,6.958Z" transform="translate(0.5 0.5)" stroke="rgba(0,0,0,0)" stroke-miterlimit="10" stroke-width="1"/>
</svg>
