<svg id="client-6" xmlns="http://www.w3.org/2000/svg" width="121.957" height="23.597" viewBox="0 0 121.957 23.597">
  <path id="path4" d="M210.615,6.193a11.683,11.683,0,0,0-18.215,9.69,11.485,11.485,0,0,0,.92,4.539,11.682,11.682,0,0,0,10.764,7.13,11.9,11.9,0,0,0,4.554-.92,11.69,11.69,0,0,0,7.13-10.764,11.56,11.56,0,0,0-.92-4.554,11.8,11.8,0,0,0-4.232-5.121Zm.322,12.588a7.538,7.538,0,0,1-2.7,3.281,7.432,7.432,0,0,1-4.155,1.273,7.3,7.3,0,0,1-2.9-.583,7.626,7.626,0,0,1-3.281-2.7,7.432,7.432,0,0,1-1.273-4.155,7.246,7.246,0,0,1,.583-2.9,7.5,7.5,0,0,1,2.7-3.266,7.463,7.463,0,0,1,10.35,2.009,7.349,7.349,0,0,1,.675,7.038Z" transform="translate(-163.605 -4.2)"/>
  <path id="path6" d="M248.7,56.9a3.6,3.6,0,1,0,3.6,3.6A3.6,3.6,0,0,0,248.7,56.9Z" transform="translate(-208.225 -48.82)"/>
  <path id="path8" d="M11.147,28.807,4.6,5.9H8.878l4.109,16.038,4-16.038H20.3l4.017,16.038L28.427,5.9H32.7L26.158,28.807H22.6L18.645,13.459l-3.91,15.348Z" transform="translate(-4.6 -5.639)"/>
  <path id="path10" d="M361,28.807V5.9h6.624A9.39,9.39,0,0,1,374,7.847a6.7,6.7,0,0,1,2.239,5.32,7.453,7.453,0,0,1-1.717,4.876,6.365,6.365,0,0,1-4.477,2.285l6.44,8.479H371.35l-5.98-8.479h-.138v8.479Zm4.232-18.813V16.8h2.515a5.188,5.188,0,0,0,3.1-.828,2.97,2.97,0,0,0,1.15-2.591,3.087,3.087,0,0,0-1.165-2.576,5.106,5.106,0,0,0-3.082-.843h-2.515Z" transform="translate(-306.354 -5.639)"/>
  <path id="path12" d="M480.6,28.807V5.9h4.247v9.936L491.962,5.9h4.983l-8.6,11.27,8.586,11.638h-4.968L484.847,18.78V28.807Z" transform="translate(-407.616 -5.639)"/>
  <path id="path14" d="M605.5,139.044V136.1h2.944v2.944Z" transform="translate(-513.365 -115.876)"/>
  <path id="path16" d="M646.853,75.7V87.92h-2.7V86.786h-.046a4.3,4.3,0,0,1-1.4,1.135,3.989,3.989,0,0,1-1.779.4,4.5,4.5,0,0,1-3.726-1.533A6.878,6.878,0,0,1,636,82.324V75.7h2.944v6.225a4.752,4.752,0,0,0,.6,2.775,2.159,2.159,0,0,0,1.9.859,2.1,2.1,0,0,0,1.871-.859,4.861,4.861,0,0,0,.613-2.775V75.7Z" transform="translate(-539.187 -64.737)"/>
  <path id="path18" d="M729.388,73.583V85.8h-2.7V84.163h-.046A4.734,4.734,0,0,1,724.8,85.7a5.6,5.6,0,0,1-6.44-1.242,6.265,6.265,0,0,1-1.763-4.631,6.7,6.7,0,0,1,1.748-4.738,5.65,5.65,0,0,1,4.309-1.886,4.894,4.894,0,0,1,2.3.537,4.609,4.609,0,0,1,1.687,1.579h.046V73.583Zm-6.271,2.361a3.335,3.335,0,0,0-2.576,1.089,3.988,3.988,0,0,0-1,2.76,3.455,3.455,0,0,0,.981,2.607,3.5,3.5,0,0,0,2.607,1.027,3.305,3.305,0,0,0,2.53-1.043,4.23,4.23,0,0,0,0-5.382A3.32,3.32,0,0,0,723.117,75.945Z" transform="translate(-607.431 -62.62)"/>
</svg>
