<svg xmlns="http://www.w3.org/2000/svg" width="118.793" height="18.371" viewBox="0 0 118.793 18.371">
  <path id="client-8" d="M8.416,13.358c0,1.349-1.111,2.087-2.578,2.087a5.312,5.312,0,0,1-4.069-2.011L0,15.572c.859,1.807,3.514,2.8,5.787,2.8,3.313,0,5.916-2.036,5.916-5.038C11.7,7.4,3.69,8.575,3.69,4.886c0-1.171.935-1.96,2.477-1.96A4.08,4.08,0,0,1,9.3,4.25l1.667-2.341A6.768,6.768,0,0,0,5.914,0C2.477,0,.4,2.239.4,4.911.4,10.713,8.416,9.848,8.416,13.358Zm5.534.382c0,2.926.961,4.6,3.54,4.6a5.449,5.449,0,0,0,3.361-1.118l-.884-2.265a2.815,2.815,0,0,1-1.744.663c-.96,0-1.365-.815-1.365-2.061V9.389h3.665V6.641H16.858V3.461H13.952v10.28Zm7.938-1.374a5.826,5.826,0,0,0,6.192,6.005,5.826,5.826,0,0,0,6.192-6.005,5.826,5.826,0,0,0-6.192-6.005A5.826,5.826,0,0,0,21.888,12.366Zm3.108,0a3.1,3.1,0,1,1,6.193,0,3.052,3.052,0,0,1-3.109,3.283A3.091,3.091,0,0,1,25,12.366Zm11.551,5.725h2.907V10.407a1.96,1.96,0,0,1,1.869-1.222,2.408,2.408,0,0,1,1.465.433L43.826,6.87a2.722,2.722,0,0,0-1.769-.432,2.912,2.912,0,0,0-2.6,1.323V6.641H36.548Zm25.958-7.481c0-3.13-1.567-4.173-3.64-4.173a4.622,4.622,0,0,0-3.842,1.831,3.3,3.3,0,0,0-3.31-1.831,4.792,4.792,0,0,0-3.564,1.475V6.641H45.243v11.45h2.906V10.407a2.752,2.752,0,0,1,2.377-1.222,1.781,1.781,0,0,1,1.895,1.985v6.92h2.907V11.349c0-.255-.025-.663-.025-.84a2.556,2.556,0,0,1,2.349-1.323c1.364,0,1.946.764,1.946,2.188v6.717H62.5V10.611Zm2.275,1.757a5.965,5.965,0,0,0,11.93,0,5.965,5.965,0,0,0-11.93,0Zm1.389,0a4.577,4.577,0,1,1,9.15,0,4.576,4.576,0,1,1-9.149,0Zm13.246,1.373c0,2.926,1.036,4.5,3.563,4.5a4.18,4.18,0,0,0,2.554-.814L85.1,16.386a3.1,3.1,0,0,1-1.82.611c-1.819,0-2.552-1.221-2.552-3.461V7.888H85.3V6.642H80.729V3.462H79.415v10.28Zm9.427,4.352h1.315V6.64H88.842V18.09Zm-.227-15.9a.905.905,0,0,0,.936.942.89.89,0,0,0,.859-.942.848.848,0,0,0-.859-.839.87.87,0,0,0-.936.838Zm5.131,10.178a5.965,5.965,0,0,0,11.93,0,5.965,5.965,0,0,0-11.93,0Zm1.389,0a4.577,4.577,0,1,1,9.15,0,4.577,4.577,0,1,1-9.15,0Zm13.5,5.725h1.315V9.441a5.169,5.169,0,0,1,3.791-1.757c2.526,0,3.74,1.324,3.74,4.122v6.285h1.315V11.552c0-3.588-1.668-5.114-4.751-5.114a5.712,5.712,0,0,0-4.095,1.806v-1.6h-1.315Z" fill="#161515" fill-rule="evenodd"/>
</svg>
