<svg xmlns="http://www.w3.org/2000/svg" width="60" height="56.306" viewBox="0 0 60 56.306">
  <g id="feature-1" transform="translate(-130 -2315)">
    <path id="Контур_22777" data-name="Контур 22777" d="M57.979,25.129H48.008a16.049,16.049,0,0,1-9.4-3.055c-1.072-.769-3.856-2.75-6.051-4.31a2.635,2.635,0,0,0-5.115,0c-2.2,1.564-4.989,3.548-6.051,4.31a16.049,16.049,0,0,1-9.4,3.055H2.021A2.023,2.023,0,0,0,0,27.149V46.409a.879.879,0,0,0,1.758,0V27.149a.263.263,0,0,1,.263-.263H57.979a.263.263,0,0,1,.263.263V68.236a.263.263,0,0,1-.263.263H23.107V66.831H55.7a.879.879,0,0,0,.879-.879V29.433a.879.879,0,0,0-.879-.879H40.154a.879.879,0,0,0,0,1.758H54.817V65.074H23.107v-4.3a.879.879,0,1,0-1.758,0v9.246a.293.293,0,0,1-.293.293H13.632a.293.293,0,0,1-.293-.293V49.157a.293.293,0,0,1,.293-.293h1.339v.259a2.416,2.416,0,1,0,4.831,0v-.259h1.254a.293.293,0,0,1,.293.293v7.359a.879.879,0,0,0,1.758,0V49.157a2.053,2.053,0,0,0-2.051-2.051H19.8v-.573a2.416,2.416,0,1,0-4.831,0v.573H13.632a2.053,2.053,0,0,0-2.051,2.051V65.074h-6.4V30.312H35.9a.879.879,0,0,0,0-1.758H4.3a.879.879,0,0,0-.879.879V65.953a.879.879,0,0,0,.879.879h7.277V68.5H2.021a.263.263,0,0,1-.263-.263V50.661a.879.879,0,0,0-1.758,0V68.236a2.023,2.023,0,0,0,2.021,2.021H11.6a2.053,2.053,0,0,0,2.035,1.809h7.424a2.053,2.053,0,0,0,2.035-1.809H57.979A2.023,2.023,0,0,0,60,68.236V27.149a2.023,2.023,0,0,0-2.021-2.021ZM30,17.518a.877.877,0,1,1-.877.877A.878.878,0,0,1,30,17.518ZM19.678,25.129A18.381,18.381,0,0,0,22.416,23.5c.944-.677,3.259-2.325,5.308-3.782a2.632,2.632,0,0,0,4.552,0c2.044,1.453,4.355,3.1,5.308,3.782a18.381,18.381,0,0,0,2.738,1.627H19.678Zm-2.95,21.406a.658.658,0,0,1,1.316,0v2.589a.658.658,0,1,1-1.316,0Z" transform="translate(130 2299.24)" fill="#fff"/>
    <path id="Контур_22778" data-name="Контур 22778" d="M103,176.913a.876.876,0,0,0,.622-.257l4-4a.879.879,0,1,0-1.243-1.243L103,174.792l-.8-.8a.879.879,0,1,0-1.243,1.243l1.42,1.42A.875.875,0,0,0,103,176.913Z" transform="translate(41.098 2162.051)" fill="#fff"/>
    <path id="Контур_22779" data-name="Контур 22779" d="M180.032,173.058h12.741a.879.879,0,0,0,0-1.758H180.032a.879.879,0,0,0,0,1.758Z" transform="translate(-28.158 2161.928)" fill="#fff"/>
    <path id="Контур_22780" data-name="Контур 22780" d="M65.767,237.107a2.69,2.69,0,1,0,2.69,2.69A2.693,2.693,0,0,0,65.767,237.107Zm0,3.623a.932.932,0,1,1,.932-.932A.933.933,0,0,1,65.767,240.73Z" transform="translate(74.315 2103.833)" fill="#fff"/>
    <path id="Контур_22781" data-name="Контур 22781" d="M218.191,283.439h4.892l.584,2.613a2.2,2.2,0,0,0,2.145,1.723,2.222,2.222,0,0,0,.485-.054l7.931-1.772a2.2,2.2,0,0,0,1.669-2.63l-1.772-7.931a2.206,2.206,0,0,0-2.63-1.669l-2.975.665V273.11a2.205,2.205,0,0,0-2.2-2.2h-8.127a2.205,2.205,0,0,0-2.2,2.2v8.126a2.206,2.206,0,0,0,2.2,2.2Zm13.688-8a.445.445,0,0,1,.531.337l1.772,7.931a.445.445,0,0,1-.337.531l-7.931,1.772a.445.445,0,0,1-.531-.337l-1.773-7.931a.445.445,0,0,1,.337-.531Zm-14.133-2.325a.445.445,0,0,1,.445-.445h8.127a.446.446,0,0,1,.445.445v1.667l-3.2.715a2.2,2.2,0,0,0-1.669,2.63l.8,3.56h-4.5a.446.446,0,0,1-.445-.445V273.11Z" transform="translate(-60.676 2073.993)" fill="#fff"/>
    <path id="Контур_22782" data-name="Контур 22782" d="M209.2,174.728a1.988,1.988,0,0,0-1.241-.9l-6.7-1.59a2,2,0,0,0-2.409,1.485l-.37,1.561a.877.877,0,0,0-.253-.037H180.032a.879.879,0,1,0,0,1.758h18.037l-.811,3.419a2,2,0,0,0,1.485,2.409l6.7,1.59h0a2.014,2.014,0,0,0,.466.055,2,2,0,0,0,1.943-1.54l1.59-6.7A1.988,1.988,0,0,0,209.2,174.728Zm-1.467,1.106-1.59,6.7a.243.243,0,0,1-.293.18h0l-6.7-1.59a.243.243,0,0,1-.18-.293l1.59-6.7a.243.243,0,0,1,.293-.18l6.7,1.59a.243.243,0,0,1,.18.293Z" transform="translate(-28.158 2161.145)" fill="#fff"/>
    <path id="Контур_22783" data-name="Контур 22783" d="M402.858,304.413h-2.286a.879.879,0,0,0,0,1.758h2.286a.879.879,0,0,0,0-1.758Z" transform="translate(-222.854 2044.414)" fill="#fff"/>
    <path id="Контур_22784" data-name="Контур 22784" d="M402.858,330.129h-2.286a.879.879,0,0,0,0,1.758h2.286a.879.879,0,0,0,0-1.758Z" transform="translate(-222.854 2021.711)" fill="#fff"/>
    <path id="Контур_22785" data-name="Контур 22785" d="M402.858,355.845h-2.286a.879.879,0,0,0,0,1.758h2.286a.879.879,0,0,0,0-1.758Z" transform="translate(-222.854 1999.009)" fill="#fff"/>
    <path id="Контур_22786" data-name="Контур 22786" d="M383.812,198.732h-.017a.879.879,0,0,0,0,1.758h.017a.879.879,0,0,0,0-1.758Z" transform="translate(-208.043 2137.71)" fill="#fff"/>
    <path id="Контур_22787" data-name="Контур 22787" d="M184.153,237.986a.879.879,0,0,0-.879-.879h-3.243a.879.879,0,1,0,0,1.758h3.243A.879.879,0,0,0,184.153,237.986Z" transform="translate(-28.158 2103.833)" fill="#fff"/>
  </g>
</svg>
