<svg xmlns="http://www.w3.org/2000/svg" width="60" height="60" viewBox="0 0 60 60">
  <g id="feature-2" transform="translate(-938 -2312)">
    <path id="Контур_22834" data-name="Контур 22834" d="M58.258,25.645,52.5,23.661a23.264,23.264,0,0,0-2.108-5.09L53.061,13.1a2.585,2.585,0,0,0-.5-2.96l-2.7-2.7a2.585,2.585,0,0,0-2.96-.5L41.43,9.606a23.241,23.241,0,0,0-5.092-2.112L34.356,1.743A2.586,2.586,0,0,0,31.912,0H28.088a2.586,2.586,0,0,0-2.444,1.742L23.662,7.494a23.244,23.244,0,0,0-5.09,2.113L13.1,6.939a2.586,2.586,0,0,0-2.96.5l-2.7,2.7a2.585,2.585,0,0,0-.5,2.96l2.668,5.473a23.25,23.25,0,0,0-2.113,5.091L1.743,25.645A2.585,2.585,0,0,0,0,28.088v3.824a2.586,2.586,0,0,0,1.743,2.444L7.5,36.339a23.26,23.26,0,0,0,2.108,5.09l-.3.615a.879.879,0,0,0,1.58.77l.5-1.034a.879.879,0,0,0-.033-.831,21.5,21.5,0,0,1-2.282-5.51.879.879,0,0,0-.564-.61l-6.2-2.135a.827.827,0,0,1-.557-.782V28.088a.827.827,0,0,1,.557-.782l6.192-2.134a.879.879,0,0,0,.564-.611,21.484,21.484,0,0,1,2.287-5.51.879.879,0,0,0,.033-.831L8.519,12.329a.827.827,0,0,1,.159-.947l2.7-2.7a.827.827,0,0,1,.947-.159l5.892,2.872a.879.879,0,0,0,.831-.033,21.485,21.485,0,0,1,5.51-2.287.879.879,0,0,0,.611-.564l2.134-6.193a.827.827,0,0,1,.782-.557h3.824a.827.827,0,0,1,.782.557l2.134,6.193a.878.878,0,0,0,.611.564,21.493,21.493,0,0,1,5.512,2.286.879.879,0,0,0,.831.033l5.891-2.871a.828.828,0,0,1,.947.159l2.7,2.7a.827.827,0,0,1,.159.947L48.61,18.22a.879.879,0,0,0,.033.831,21.5,21.5,0,0,1,2.282,5.511.879.879,0,0,0,.564.61l6.2,2.135a.827.827,0,0,1,.557.782v3.824a.827.827,0,0,1-.557.782l-6.192,2.134a.878.878,0,0,0-.564.611,21.484,21.484,0,0,1-2.287,5.51.879.879,0,0,0-.033.831l2.872,5.892a.827.827,0,0,1-.159.947l-2.7,2.7a.827.827,0,0,1-.947.159l-5.892-2.872a.879.879,0,0,0-.831.033,21.483,21.483,0,0,1-5.51,2.286.879.879,0,0,0-.611.564l-2.134,6.193a.827.827,0,0,1-.782.557H28.088a.827.827,0,0,1-.782-.557l-2.134-6.193a.878.878,0,0,0-.611-.564,21.483,21.483,0,0,1-5.512-2.286.879.879,0,0,0-.831-.033l-5.891,2.872a.827.827,0,0,1-.947-.159l-2.7-2.7a.827.827,0,0,1-.159-.947l.5-1.03a.879.879,0,1,0-1.58-.77l-.5,1.03a2.585,2.585,0,0,0,.5,2.96l2.7,2.7a2.585,2.585,0,0,0,2.96.5l5.472-2.667a23.235,23.235,0,0,0,5.092,2.112l1.982,5.752A2.585,2.585,0,0,0,28.088,60h3.824a2.586,2.586,0,0,0,2.444-1.742l1.982-5.752a23.235,23.235,0,0,0,5.09-2.113L46.9,53.061a2.585,2.585,0,0,0,2.96-.5l2.7-2.7a2.585,2.585,0,0,0,.5-2.96l-2.668-5.473a23.247,23.247,0,0,0,2.113-5.091l5.752-1.982A2.585,2.585,0,0,0,60,31.912V28.088a2.585,2.585,0,0,0-1.742-2.444Z" transform="translate(938 2312)" fill="#fff"/>
    <path id="Контур_22835" data-name="Контур 22835" d="M277.386,365.885a.879.879,0,0,0,0,1.758h.014a.879.879,0,0,0,0-1.758Z" transform="translate(693.896 1988.992)" fill="#fff"/>
    <path id="Контур_22836" data-name="Контур 22836" d="M116.87,102.067a18.169,18.169,0,1,0,4.467-.012.879.879,0,0,0-.209,1.745,16.4,16.4,0,0,1,8.236,29.123v-3.148a7.35,7.35,0,0,0-.354-2.255.879.879,0,0,0-1.673.538,5.6,5.6,0,0,1,.269,1.717v4.372a16.3,16.3,0,0,1-7.573,2.326v-3.126l4.5-8.57a5.591,5.591,0,0,1,.586.342.879.879,0,1,0,.979-1.46,7.321,7.321,0,0,0-2.307-1.023,6.146,6.146,0,0,0,1.381-2.73,2.879,2.879,0,0,0,2.489-4.954,1.646,1.646,0,0,0,.062-.45v-1.678a5.464,5.464,0,0,0-5.458-5.458h-1.393l-.076,0a3.054,3.054,0,0,0-2.293-1.037h-1.641a6.284,6.284,0,0,0-6.277,6.277v2.1a1.64,1.64,0,0,0,.025.281,2.876,2.876,0,0,0,2.527,4.916,6.148,6.148,0,0,0,1.382,2.73c-.191.048-.379.1-.565.167a.865.865,0,0,0-.114.039,7.371,7.371,0,0,0-4.895,6.933v3.148a16.4,16.4,0,0,1,8.145-29.113.879.879,0,0,0-.219-1.744Zm-.567,22.108h.263q.263.122.539.22l-.635,1.734-.994-1.893A5.61,5.61,0,0,1,116.3,124.175Zm-1.553-7.5c0-.074,0-.149.006-.223a14.884,14.884,0,0,0,3.6-.459,4.291,4.291,0,0,0,1.444-.705,3.787,3.787,0,0,0,1.153.536,12.1,12.1,0,0,0,2.574.377,4.461,4.461,0,0,1,.026.474v1.907a4.4,4.4,0,0,1-8.808,0Zm4.1,8.061q.15.007.3.008c.1,0,.2,0,.3-.008l1.278,3.491-1.58,3.01-1.581-3.01Zm2.986,1.39L121.2,124.4q.276-.1.539-.22h.263a5.639,5.639,0,0,1,.827.061Zm3.883-7.926a1.118,1.118,0,0,1-.4-.078v-1.448c0-.16-.009-.32-.021-.479.365-.018.691-.044.958-.071l.047-.007a1.122,1.122,0,0,1-.58,2.083Zm-3.456-9.079a3.7,3.7,0,0,1,3.7,3.7v1.564a13.728,13.728,0,0,1-4.545-.258,2.023,2.023,0,0,1-.436-.177,4.4,4.4,0,0,0,.58-2.184v-2.377c0-.09,0-.18-.012-.268h.713Zm-9.922,3.484a4.524,4.524,0,0,1,4.519-4.519H118.5a1.3,1.3,0,0,1,1.3,1.3v2.377a2.615,2.615,0,0,1-1.907,2.53,16.794,16.794,0,0,1-5.556.3v-1.986Zm-.877,4.473a1.125,1.125,0,0,1,.332-.8,1.64,1.64,0,0,0,.246.047c.272.029.6.057.955.08,0,.089-.006.177-.006.266v1.45a1.122,1.122,0,0,1-1.527-1.046Zm-.763,12.695a5.606,5.606,0,0,1,3.075-5l4.5,8.568v3.126a16.3,16.3,0,0,1-7.573-2.326Z" transform="translate(848.846 2221.909)" fill="#fff"/>
    <path id="Контур_22837" data-name="Контур 22837" d="M240.645,65.87l.365-.365.365.365a.879.879,0,0,0,1.243-1.243l-.987-.987a.879.879,0,0,0-1.243,0l-.986.987a.879.879,0,1,0,1.243,1.243Z" transform="translate(726.88 2256.044)" fill="#fff"/>
    <path id="Контур_22838" data-name="Контур 22838" d="M243.249,425.455l-.365.365-.365-.365a.879.879,0,1,0-1.243,1.243l.987.987a.879.879,0,0,0,1.243,0l.987-.987a.879.879,0,1,0-1.243-1.243Z" transform="translate(725.227 1936.63)" fill="#fff"/>
    <path id="Контур_22839" data-name="Контур 22839" d="M425.455,242.617a.879.879,0,0,0,1.243,0l.987-.987a.879.879,0,0,0,0-1.243l-.987-.987a.879.879,0,1,0-1.243,1.243l.365.365-.365.365a.879.879,0,0,0,0,1.243Z" transform="translate(562.631 2100.881)" fill="#fff"/>
    <path id="Контур_22840" data-name="Контур 22840" d="M65.87,241.275a.879.879,0,0,0-1.243,0l-.987.987a.879.879,0,0,0,0,1.243l.987.987a.879.879,0,1,0,1.243-1.243l-.365-.365.365-.365A.879.879,0,0,0,65.87,241.275Z" transform="translate(882.045 2099.226)" fill="#fff"/>
    <path id="Контур_22841" data-name="Контур 22841" d="M448.41,155.537a.879.879,0,0,0,.476,1.148l1.289.534a.879.879,0,1,0,.673-1.624l-.477-.2.2-.477a.879.879,0,0,0-1.624-.673Z" transform="translate(542.197 2176.307)" fill="#fff"/>
    <path id="Контур_22842" data-name="Контур 22842" d="M40.634,329.481a.879.879,0,0,0-.476-1.148L38.87,327.8a.879.879,0,0,0-.673,1.624l.477.2-.2.477a.879.879,0,1,0,1.624.673Z" transform="translate(904.759 2022.675)" fill="#fff"/>
    <path id="Контур_22843" data-name="Контур 22843" d="M38.535,157.288a.877.877,0,0,0,.336-.067l1.289-.534a.879.879,0,0,0,.476-1.148L40.1,154.25a.879.879,0,0,0-1.624.673l.2.477-.477.2a.879.879,0,0,0,.337,1.691Z" transform="translate(904.758 2176.306)" fill="#fff"/>
    <path id="Контур_22844" data-name="Контур 22844" d="M450.175,327.8l-1.289.534a.879.879,0,0,0-.476,1.148l.534,1.289a.879.879,0,0,0,1.624-.673l-.2-.477.477-.2a.879.879,0,0,0-.673-1.624Z" transform="translate(542.197 2022.672)" fill="#fff"/>
    <path id="Контур_22845" data-name="Контур 22845" d="M330.771,448.943l-1.289-.534a.879.879,0,0,0-1.148.476l-.534,1.289a.879.879,0,1,0,1.624.673l.2-.477.477.2a.879.879,0,1,0,.673-1.624Z" transform="translate(648.674 1916.198)" fill="#fff"/>
    <path id="Контур_22846" data-name="Контур 22846" d="M154.25,40.1l1.289.534a.878.878,0,0,0,1.148-.476l.534-1.289a.879.879,0,0,0-1.624-.673l-.2.477-.477-.2a.879.879,0,0,0-.673,1.624Z" transform="translate(802.306 2278.761)" fill="#fff"/>
    <path id="Контур_22847" data-name="Контур 22847" d="M328.334,40.158a.878.878,0,0,0,1.148.476l1.289-.534a.879.879,0,1,0-.673-1.624l-.477.2-.2-.477a.879.879,0,1,0-1.624.673Z" transform="translate(648.674 2278.759)" fill="#fff"/>
    <path id="Контур_22848" data-name="Контур 22848" d="M156.687,448.886a.879.879,0,0,0-1.148-.476l-1.289.534a.879.879,0,0,0,.673,1.624l.477-.2.2.477a.879.879,0,1,0,1.624-.673Z" transform="translate(802.307 1916.197)" fill="#fff"/>
  </g>
</svg>
