<svg xmlns="http://www.w3.org/2000/svg" width="60" height="47.124" viewBox="0 0 60 47.124">
  <g id="feature-4" transform="translate(-130 -2708)">
    <path id="Контур_22768" data-name="Контур 22768" d="M497.879,352.525a.879.879,0,0,0-.879.879v2.2a.879.879,0,0,0,1.758,0v-2.2A.879.879,0,0,0,497.879,352.525Z" transform="translate(-308.758 2390.349)" fill="#fff"/>
    <path id="Контур_22769" data-name="Контур 22769" d="M57.144,89.209a5.227,5.227,0,0,0,.958-3.024V82.747a3.205,3.205,0,0,0,0-4.054V77.115A10.437,10.437,0,0,0,41.914,68.4a.879.879,0,1,0,.97,1.466,8.679,8.679,0,0,1,13.46,7.244v.477a3.173,3.173,0,0,0-1.478,0c-.06-.167-.124-.333-.2-.5a1.58,1.58,0,0,0-1.2-.919,9.74,9.74,0,0,1-4.287-1.7.879.879,0,0,0-1.285.277c-.927,1.642-2.629,2.617-5.355,3.067a1.6,1.6,0,0,0-1.337,1.54c-.005.249-.007.5-.007.6v2.51a6.986,6.986,0,0,0,1.9,4.814,8.4,8.4,0,0,0-3.088,1.365,3.5,3.5,0,0,1-.756-1.126,3.209,3.209,0,0,0,.689-4.686V81.261a10.461,10.461,0,0,0-.954-4.354,8.669,8.669,0,0,1,1.226-4.244.879.879,0,0,0-1.508-.9,10.406,10.406,0,0,0-1.17,2.839,10.482,10.482,0,0,0-5.708-3.513.879.879,0,1,0-.39,1.714,8.717,8.717,0,0,1,4.823,3.012,8.576,8.576,0,0,1,1.925,5.449v.477a3.173,3.173,0,0,0-1.478,0c-.06-.167-.124-.334-.2-.5a1.581,1.581,0,0,0-1.2-.918,9.741,9.741,0,0,1-4.287-1.7.879.879,0,0,0-1.285.277c-.879,1.556-2.454,2.512-4.935,2.991v-.62a.879.879,0,0,0-1.758,0l-.007,5.347a7.1,7.1,0,0,0,.213,1.731,3.463,3.463,0,0,1-.773-.36,3.184,3.184,0,0,0-.952-1.415,1.763,1.763,0,0,0,.1-.57V84.047a6.181,6.181,0,0,0-.787-3.024A8.642,8.642,0,0,1,27.573,72.8a.879.879,0,0,0-.389-1.714,10.429,10.429,0,0,0-7.907,8.105,6.19,6.19,0,0,0-3.882-1.365H13.77q-.077,0-.154,0a3.418,3.418,0,0,0-2.61-1.211H9.091a7.185,7.185,0,0,0-7.177,7.176v2.45a1.762,1.762,0,0,0,.043.379,3.214,3.214,0,0,0,2.9,5.513,7.027,7.027,0,0,0,1.775,3.444,8.355,8.355,0,0,0-.894.249.878.878,0,0,0-.121.041A8.453,8.453,0,0,0,0,103.824v7.723a.879.879,0,0,0,1.758,0v-7.723a6.69,6.69,0,0,1,3.8-6.026l5.332,10.156v3.587a.879.879,0,0,0,1.758,0v-3.587L17.976,97.8a6.69,6.69,0,0,1,3.8,6.025v7.723a.879.879,0,0,0,1.758,0v-7.723a8.424,8.424,0,0,0-3.042-6.482,6.716,6.716,0,0,1,3.378-3.685l5.33,10.151v3.587a.879.879,0,0,0,1.758,0v-3.587l5.332-10.156a6.69,6.69,0,0,1,3.8,6.026V107.4a.879.879,0,0,0,1.758,0V99.677A8.426,8.426,0,0,0,38.683,93.1a6.649,6.649,0,0,1,3.338-3.6l5.335,10.161v3.587a.879.879,0,0,0,1.758,0V99.661L54.446,89.5a6.69,6.69,0,0,1,3.8,6.026V96.8A.879.879,0,0,0,60,96.8V95.53a8.419,8.419,0,0,0-2.856-6.321Zm-2.761-1.631a.874.874,0,0,0-.122-.041,8.35,8.35,0,0,0-.927-.257,7.193,7.193,0,0,0,1.779-3.387,3.152,3.152,0,0,0,1.231-.045v2.337a3.477,3.477,0,0,1-.631,2A8.406,8.406,0,0,0,54.383,87.578Zm-6.148,9.975-2-3.816L47.782,89.5c.15.009.3.016.452.016h.117c.113,0,.225-.007.336-.014l1.551,4.236Zm7.376-18.289a1.456,1.456,0,1,1-.334,2.872V79.963c0-.219-.012-.436-.031-.652A1.461,1.461,0,0,1,55.611,79.264Zm-12.66.7c0-.08,0-.245,0-.429,2.754-.476,4.712-1.5,5.951-3.129A11.848,11.848,0,0,0,53.1,77.9a5.228,5.228,0,0,1,.417,2.061v2.41a5.358,5.358,0,0,1-5.2,5.383,5.283,5.283,0,0,1-5.372-5.284Zm-5.5,3.448a1.456,1.456,0,1,1-.334,2.873V84.11c0-.219-.012-.436-.031-.652A1.457,1.457,0,0,1,37.45,83.411Zm-6.7-2.859a11.849,11.849,0,0,0,4.195,1.5,5.231,5.231,0,0,1,.417,2.061v2.41a5.358,5.358,0,0,1-5.2,5.383,5.283,5.283,0,0,1-5.372-5.284v-2.51c0-.08,0-.246,0-.429C27.55,83.2,29.507,82.177,30.746,80.552ZM30.075,101.7l-2-3.817,1.551-4.237c.15.009.3.016.452.016h.117c.113,0,.225-.007.336-.014l1.551,4.237ZM20.882,89.013a1.455,1.455,0,0,1-2.074,1.317V88.542c0-.233-.014-.466-.037-.7.486-.021.916-.055,1.262-.09.033,0,.066-.009.1-.014A1.448,1.448,0,0,1,20.882,89.013Zm-5.487-9.429a4.469,4.469,0,0,1,4.464,4.464V86a16.357,16.357,0,0,1-5.488-.293,2.511,2.511,0,0,1-.672-.3,4.987,4.987,0,0,0,.731-2.6V80.043a3.437,3.437,0,0,0-.032-.46ZM3.672,83.795a5.425,5.425,0,0,1,5.419-5.419h1.915a1.669,1.669,0,0,1,1.667,1.667v2.773a3.2,3.2,0,0,1-2.333,3.093,19.942,19.942,0,0,1-6.667.336ZM2.649,89.013a1.458,1.458,0,0,1,.5-1.091,1.77,1.77,0,0,0,.339.07h0c.352.037.777.074,1.254.1-.009.149-.016.3-.016.447V90.33a1.455,1.455,0,0,1-2.074-1.317Zm3.832-.471c0-.135.006-.27.016-.4a17.4,17.4,0,0,0,4.3-.533,4.859,4.859,0,0,0,1.721-.865,4.271,4.271,0,0,0,1.387.668A14.12,14.12,0,0,0,17,87.847a5.341,5.341,0,0,1,.047.695v2.225a5.285,5.285,0,1,1-10.569,0Zm5.285,17.3-2-3.816,1.551-4.237c.15.01.3.016.453.016s.3-.007.453-.016l1.551,4.237Zm-3.326-8.7h.339a7.008,7.008,0,0,0,.786.313l-.906,2.475L7.252,97.25A6.68,6.68,0,0,1,8.439,97.142Zm6.432,2.787-.906-2.474a7,7,0,0,0,.786-.313h.339a6.692,6.692,0,0,1,1.188.108Zm4.122-3.584a8.4,8.4,0,0,0-1.081-.474.875.875,0,0,0-.122-.041,8.376,8.376,0,0,0-.893-.249,7.028,7.028,0,0,0,1.775-3.444A3.214,3.214,0,0,0,22.5,89.953a5.231,5.231,0,0,0,1.549.316,7.063,7.063,0,0,0,.892,1.169,8.39,8.39,0,0,0-.854.237.883.883,0,0,0-.222.079,8.5,8.5,0,0,0-4.87,4.591ZM26.749,93h.327a6.909,6.909,0,0,0,.8.315l-.9,2.472L25.562,93.1A6.6,6.6,0,0,1,26.749,93Zm6.433,2.787L32.273,93.3A6.924,6.924,0,0,0,33.03,93H33.4a6.691,6.691,0,0,1,1.188.108Zm3.041-4.058a.874.874,0,0,0-.122-.041,8.388,8.388,0,0,0-.928-.257,7.191,7.191,0,0,0,1.779-3.387,3.22,3.22,0,0,0,.5.04c.043,0,.085,0,.128,0a5.266,5.266,0,0,0,1.109,1.741,8.418,8.418,0,0,0-1.506,2.318A8.408,8.408,0,0,0,36.222,91.725Zm8.687-2.876h.327a6.942,6.942,0,0,0,.8.315l-.9,2.472-1.408-2.681a6.752,6.752,0,0,1,1.189-.106Zm6.432,2.787-.908-2.481a6.9,6.9,0,0,0,.757-.307h.371a6.692,6.692,0,0,1,1.188.108Z" transform="translate(130 2642.699)" fill="#fff"/>
    <path id="Контур_22770" data-name="Контур 22770" d="M117.343,419.753h-.016a.879.879,0,1,0,0,1.758h.016a.879.879,0,0,0,0-1.758Z" transform="translate(27.199 2330.999)" fill="#fff"/>
    <path id="Контур_22771" data-name="Контур 22771" d="M272.417,384.315h-.023a.879.879,0,0,0-.006,1.758h.023a.879.879,0,0,0,.006-1.758Z" transform="translate(-109.697 2362.284)" fill="#fff"/>
    <path id="Контур_22772" data-name="Контур 22772" d="M427.484,348.879h-.023a.879.879,0,0,0-.006,1.758h.023a.879.879,0,0,0,.006-1.758Z" transform="translate(-246.592 2393.567)" fill="#fff"/>
    <path id="Контур_22773" data-name="Контур 22773" d="M124.228,113.373h2.081a.879.879,0,1,0,0-1.758h-2.081a.879.879,0,0,0,0,1.758Z" transform="translate(21.105 2603.027)" fill="#fff"/>
    <path id="Контур_22774" data-name="Контур 22774" d="M124.228,82.179h7.781a.879.879,0,0,0,0-1.758h-7.781a.879.879,0,0,0,0,1.758Z" transform="translate(21.105 2630.565)" fill="#fff"/>
    <path id="Контур_22775" data-name="Контур 22775" d="M124.228,58.5h7.781a.879.879,0,0,0,0-1.758h-7.781a.879.879,0,0,0,0,1.758Z" transform="translate(21.105 2651.473)" fill="#fff"/>
    <path id="Контур_22776" data-name="Контур 22776" d="M34.915,63.549a4.3,4.3,0,0,0,3.925-6.07l.123-.123a.879.879,0,0,0-1.168-1.309,4.3,4.3,0,1,0-2.88,7.5Zm0-6.853a2.536,2.536,0,0,1,1.63.592L35.3,58.535l-.349-.349a.879.879,0,1,0-1.243,1.243l.97.971a.879.879,0,0,0,1.243,0l1.517-1.517A2.547,2.547,0,1,1,34.915,56.7Z" transform="translate(102.978 2653.062)" fill="#fff"/>
  </g>
</svg>
