<svg xmlns="http://www.w3.org/2000/svg" width="60" height="58.076" viewBox="0 0 60 58.076">
  <g id="feature-6" transform="translate(-938 -2700)">
    <path id="Контур_22788" data-name="Контур 22788" d="M54.276,46.816a6.26,6.26,0,0,0,1.58-4.161V40.7a6.287,6.287,0,1,0-12.575,0v1.952a6.26,6.26,0,0,0,1.581,4.162,7.515,7.515,0,0,0-2.406,1.064,10.25,10.25,0,0,0-4.962-3.774.872.872,0,0,0-.095-.034,10.118,10.118,0,0,0-1.479-.385,8.466,8.466,0,0,0,2.435-4.629,3.756,3.756,0,0,0,3.43-6.534,1.964,1.964,0,0,0,.157-.769V29.342a7.475,7.475,0,0,0-7.466-7.466h-2c-.094,0-.187,0-.28.012a4.011,4.011,0,0,0-3.128-1.5H27.989c.01-.195.016-.39.016-.586a11.593,11.593,0,1,0-9.947,11.478v.773a1.972,1.972,0,0,0,.075.539,3.756,3.756,0,0,0,3.512,6.468,8.466,8.466,0,0,0,2.436,4.63,10.1,10.1,0,0,0-1.454.378.88.88,0,0,0-.145.051,10.278,10.278,0,0,0-4.933,3.769,7.478,7.478,0,0,0-2.408-1.071,6.26,6.26,0,0,0,1.58-4.161V40.7a6.287,6.287,0,1,0-12.575,0v1.952a6.26,6.26,0,0,0,1.58,4.161A7.525,7.525,0,0,0,0,54.112v7.6a.879.879,0,0,0,1.758,0v-7.6a5.762,5.762,0,0,1,5.755-5.755h.274a6.27,6.27,0,0,0,.593.24L6.621,55.462a1.571,1.571,0,0,0,.487,1.577l2.282,2.006a1.582,1.582,0,0,0,2.084,0l2.282-2.006a1.571,1.571,0,0,0,.487-1.577L12.483,48.6a6.271,6.271,0,0,0,.593-.24h.274a5.722,5.722,0,0,1,3.313,1.053,10.114,10.114,0,0,0-.963,4.248.879.879,0,0,0,.873.885h.006a.879.879,0,0,0,.879-.873,8.465,8.465,0,0,1,4.977-7.636l6.687,12.736V65.4a.879.879,0,0,0,1.758,0V58.769l6.688-12.738a8.453,8.453,0,0,1,4.977,7.7V65.4a.879.879,0,0,0,1.758,0V53.727a10.14,10.14,0,0,0-.962-4.322,5.759,5.759,0,0,1,3.311-1.048h.274a6.253,6.253,0,0,0,.593.24l-1.759,6.865a1.571,1.571,0,0,0,.487,1.577l2.282,2.006a1.582,1.582,0,0,0,2.084,0l2.281-2.006a1.571,1.571,0,0,0,.487-1.577l-.281-1.1a.879.879,0,1,0-1.7.436l.254.99-2.08,1.829-2.08-1.829,1.757-6.857q.161.008.323.008t.323-.008l.447,1.743a.879.879,0,0,0,1.7-.436L51.62,48.6a6.228,6.228,0,0,0,.6-.242l.039,0h.23a5.762,5.762,0,0,1,5.755,5.755v7.6a.879.879,0,1,0,1.758,0v-7.6a7.525,7.525,0,0,0-5.724-7.3ZM5.9,40.7a4.53,4.53,0,0,1,9.059,0v1.952a4.529,4.529,0,1,1-9.059,0V40.7Zm6.61,15.089-2.08,1.829-2.08-1.829,1.757-6.857q.161.008.323.008t.323-.008ZM39.446,37.464a1.984,1.984,0,0,1-.968-.251v-2.33a8.5,8.5,0,0,0-.067-1.057c.683-.024,1.288-.071,1.762-.118.061-.006.121-.015.18-.026a2,2,0,0,1-.907,3.782ZM34.475,23.633a5.715,5.715,0,0,1,5.709,5.709v2.415a.2.2,0,0,1-.184.2,20.376,20.376,0,0,1-6.842-.368,3.31,3.31,0,0,1-1.054-.5,5.945,5.945,0,0,0,.977-3.266V24.4a4.025,4.025,0,0,0-.075-.772h1.469Zm-11.613,5.8a.879.879,0,1,0-.979-1.46A9.838,9.838,0,1,1,24.632,25.2a.879.879,0,0,0,1.468.967,11.527,11.527,0,0,0,1.666-4.025h1.3a2.262,2.262,0,0,1,2.26,2.26v3.419A4.148,4.148,0,0,1,28.3,31.835a24.8,24.8,0,0,1-8.3.42.2.2,0,0,1-.18-.2V30.887A11.53,11.53,0,0,0,22.862,29.437Zm-4.308,6.028a2,2,0,0,1,.772-1.578,1.965,1.965,0,0,0,.485.116c.482.051,1.075.1,1.744.137-.022.249-.034.5-.034.744v2.33a2,2,0,0,1-2.967-1.749Zm4.725,2.162V34.884a6.666,6.666,0,0,1,.039-.7,21.493,21.493,0,0,0,5.439-.651A5.792,5.792,0,0,0,30.928,32.4a5.077,5.077,0,0,0,1.768.884,17.457,17.457,0,0,0,3.939.542,6.778,6.778,0,0,1,.085,1.053v2.743a6.721,6.721,0,1,1-13.442,0ZM30,56.662,27.306,51.53l2-5.455c.23.019.462.031.7.031s.467-.012.7-.031l2,5.455ZM25.9,45.284h.461a8.419,8.419,0,0,0,1.191.461L26.2,49.43l-2.077-3.956A8.4,8.4,0,0,1,25.9,45.284Zm7.9,4.146-1.349-3.685a8.42,8.42,0,0,0,1.193-.461h.46a8.445,8.445,0,0,1,1.774.189Zm11.242-6.775V40.7a4.53,4.53,0,1,1,9.059,0v1.952a4.53,4.53,0,0,1-9.059,0Z" transform="translate(938 2691.794)" fill="#fff"/>
    <path id="Контур_22789" data-name="Контур 22789" d="M134.837,424.906a.879.879,0,0,0-.879.879v7.487a.879.879,0,0,0,1.758,0v-7.487A.879.879,0,0,0,134.837,424.906Z" transform="translate(819.74 2323.926)" fill="#fff"/>
    <path id="Контур_22790" data-name="Контур 22790" d="M277.435,445.24h-.023a.879.879,0,0,0,0,1.758h.023a.879.879,0,0,0,0-1.758Z" transform="translate(693.873 2305.975)" fill="#fff"/>
    <path id="Контур_22791" data-name="Контур 22791" d="M88.974,56.407l-1.588-1.588a1.43,1.43,0,0,0-2.023,0l-5.807,5.807L77.92,58.99a1.43,1.43,0,0,0-2.023,0l-1.588,1.588a1.432,1.432,0,0,0,0,2.023l3.846,3.846a1.984,1.984,0,0,0,2.8,0l8.017-8.017A1.432,1.432,0,0,0,88.974,56.407Zm-9.26,8.8a.224.224,0,0,1-.317,0L75.784,61.59l1.125-1.125,2.026,2.026a.879.879,0,0,0,1.243,0l6.2-6.2L87.5,57.418Z" transform="translate(872.769 2651.013)" fill="#fff"/>
  </g>
</svg>
