<svg xmlns="http://www.w3.org/2000/svg" width="60" height="61.838" viewBox="0 0 60 61.838">
  <g id="feature-2" transform="translate(-534 -2311)">
    <path id="Контур_22792" data-name="Контур 22792" d="M65.325,0H18.23a2.264,2.264,0,0,0-2.261,2.261V4.85a3.663,3.663,0,0,0,0,7.125v31.7H9.87a2.264,2.264,0,0,0-2.261,2.261v3.049a5.091,5.091,0,0,0,5.086,5.086h9.158v5.486a2.287,2.287,0,0,0,2.284,2.284H65.325a2.287,2.287,0,0,0,2.284-2.284V2.285A2.287,2.287,0,0,0,65.325,0ZM14.969,8.412a1.853,1.853,0,0,1,1-1.643v3.285a1.853,1.853,0,0,1-1-1.643ZM65.8,59.554a.473.473,0,0,1-.473.473H24.137a.473.473,0,0,1-.473-.473V54.068H56.639a5.091,5.091,0,0,0,5.086-5.086V31.638a.906.906,0,0,0-1.812,0V48.982a3.274,3.274,0,1,1-6.548,0V45.933A2.264,2.264,0,0,0,51.1,43.671H27.667a.906.906,0,1,0,0,1.812H51.1a.45.45,0,0,1,.45.45v3.049a5.063,5.063,0,0,0,1.2,3.274H12.695a3.278,3.278,0,0,1-3.274-3.274V45.933a.45.45,0,0,1,.45-.45H23.284a.906.906,0,0,0,0-1.812h-5.5v-31.6h7.062a3.663,3.663,0,1,0,0-7.327H20.488a.906.906,0,0,0,0,1.812h4.354a1.852,1.852,0,1,1,0,3.7H17.781v-8a.45.45,0,0,1,.45-.45H59.47a.45.45,0,0,1,.444.449V27.255a.906.906,0,0,0,1.812,0V2.261a2.264,2.264,0,0,0-.045-.449h3.644a.473.473,0,0,1,.473.473V59.554Z" transform="translate(526.391 2311)" fill="#fff"/>
    <path id="Контур_22793" data-name="Контур 22793" d="M170.624,150.157H155.77a.906.906,0,1,0,0,1.812h14.853a.3.3,0,0,1,.3.3v2.081H144.767v-2.081a.3.3,0,0,1,.3-.3h6.319a.906.906,0,0,0,0-1.812h-6.319a2.116,2.116,0,0,0-2.114,2.114V170.28a2.116,2.116,0,0,0,2.114,2.114h25.555a2.116,2.116,0,0,0,2.114-2.114V152.271A2.116,2.116,0,0,0,170.624,150.157ZM144.767,170.28V156.163h4.054v14.418h-3.752A.3.3,0,0,1,144.767,170.28Zm25.857.3H150.633V156.163h20.293V170.28A.3.3,0,0,1,170.624,170.582Z" transform="translate(407.392 2178.979)" fill="#fff"/>
    <path id="Контур_22794" data-name="Контур 22794" d="M166.479,219.757h.013a.906.906,0,0,0,0-1.812h-.013a.906.906,0,1,0,0,1.812Z" transform="translate(387.505 2119.378)" fill="#fff"/>
    <path id="Контур_22795" data-name="Контур 22795" d="M166.491,248.491h-.013a.906.906,0,1,0,0,1.812h.013a.906.906,0,1,0,0-1.812Z" transform="translate(387.505 2092.521)" fill="#fff"/>
    <path id="Контур_22796" data-name="Контур 22796" d="M166.491,279.037h-.013a.906.906,0,0,0,0,1.812h.013a.906.906,0,0,0,0-1.812Z" transform="translate(387.505 2065.665)" fill="#fff"/>
    <path id="Контур_22797" data-name="Контур 22797" d="M216.591,218.142h9.8a.906.906,0,1,0,0-1.812h-9.8a.906.906,0,1,0,0,1.812Z" transform="translate(343.445 2120.798)" fill="#fff"/>
    <path id="Контур_22798" data-name="Контур 22798" d="M328.706,216.33h-1.459a.906.906,0,1,0,0,1.812h1.459a.906.906,0,1,0,0-1.812Z" transform="translate(246.154 2120.798)" fill="#fff"/>
    <path id="Контур_22799" data-name="Контур 22799" d="M216.591,250.3h6.828a.906.906,0,0,0,0-1.812h-6.828a.906.906,0,1,0,0,1.812Z" transform="translate(343.445 2092.521)" fill="#fff"/>
    <path id="Контур_22800" data-name="Контур 22800" d="M229.481,279.037H216.591a.906.906,0,0,0,0,1.812h12.891a.906.906,0,0,0,0-1.812Z" transform="translate(343.445 2065.665)" fill="#fff"/>
    <path id="Контур_22801" data-name="Контур 22801" d="M246.823,110.394H229.154a.906.906,0,0,0,0,1.812h17.669a.906.906,0,1,0,0-1.812Z" transform="translate(332.4 2213.939)" fill="#fff"/>
    <path id="Контур_22802" data-name="Контур 22802" d="M327.248,84.949h5.821a.906.906,0,1,0,0-1.812h-5.821a.906.906,0,1,0,0,1.812Z" transform="translate(246.153 2237.904)" fill="#fff"/>
    <path id="Контур_22803" data-name="Контур 22803" d="M362.535,43.477h1.559a.906.906,0,0,0,0-1.812h-1.559a.906.906,0,1,0,0,1.812Z" transform="translate(215.129 2274.367)" fill="#fff"/>
    <path id="Контур_22804" data-name="Контур 22804" d="M227.9,41.634v2.13a.906.906,0,1,0,1.812,0V40.223a.906.906,0,0,0-1.368-.779l-.854.506a.906.906,0,0,0,.41,1.684Z" transform="translate(333.454 2276.432)" fill="#fff"/>
    <path id="Контур_22805" data-name="Контур 22805" d="M254.641,41.634v2.13a.906.906,0,0,0,1.812,0V40.223a.906.906,0,0,0-1.368-.779l-.854.506a.906.906,0,0,0,.41,1.684Z" transform="translate(309.945 2276.432)" fill="#fff"/>
  </g>
</svg>
