<svg xmlns="http://www.w3.org/2000/svg" width="60" height="47.607" viewBox="0 0 60 47.607">
  <g id="feature-5" transform="translate(-534 -2707)">
    <path id="Контур_22754" data-name="Контур 22754" d="M174.156,209.061H177.8a2.053,2.053,0,0,0,2.051-2.051v-3.648a2.053,2.053,0,0,0-2.051-2.051h-3.648a2.053,2.053,0,0,0-2.051,2.051v3.648A2.053,2.053,0,0,0,174.156,209.061Zm-.293-5.7a.293.293,0,0,1,.293-.293H177.8a.293.293,0,0,1,.293.293v3.648a.293.293,0,0,1-.293.293h-3.648a.293.293,0,0,1-.293-.293Z" transform="translate(382.063 2523.083)" fill="#fff"/>
    <path id="Контур_22755" data-name="Контур 22755" d="M58,81.506H56.243V74.555A1.558,1.558,0,0,0,54.686,73h-.121V56.463a3.593,3.593,0,0,0-3.589-3.589H22.561a.879.879,0,0,0,0,1.758H50.977a1.833,1.833,0,0,1,1.831,1.831V73H48.557V72.32a2.053,2.053,0,0,0-2.051-2.051H42.859a2.053,2.053,0,0,0-2.051,2.051V73h-2.57V72.32a2.053,2.053,0,0,0-2.051-2.051H32.539a2.053,2.053,0,0,0-2.051,2.051v3.648a2.053,2.053,0,0,0,2.051,2.051h3.648A2.043,2.043,0,0,0,36.481,78v1.332h-1.2a2.56,2.56,0,0,0-2.558,2.557v1.487h-17.1V54.632h2.686a.879.879,0,1,0,0-1.758H3.589A3.593,3.593,0,0,0,0,56.463V73.975a.879.879,0,0,0,1.758,0V56.463a1.833,1.833,0,0,1,1.831-1.831H13.865v28.74H1.758V78.228a.879.879,0,1,0-1.758,0V87.1a3.593,3.593,0,0,0,3.589,3.589h15.55v8.039H14.428a.879.879,0,1,0,0,1.758H58a2,2,0,0,0,2-2V83.5A2,2,0,0,0,58,81.506ZM42.566,72.32a.293.293,0,0,1,.293-.293h3.648a.293.293,0,0,1,.293.293V73H42.566ZM36.48,75.968a.293.293,0,0,1-.293.293H32.539a.293.293,0,0,1-.293-.293V72.32a.293.293,0,0,1,.293-.293h3.648a.293.293,0,0,1,.293.293Zm1.759-1.211H54.485v6.749H47.847l-.237-.583a2.547,2.547,0,0,0-2.369-1.595h-7Zm4.537,6.329-.36,1a.549.549,0,0,1-.516.363H38.349a.549.549,0,0,1-.516-.363l-.36-1ZM1.758,87.1V85.13H32.724v3.8H3.589A1.833,1.833,0,0,1,1.758,87.1Zm24.178,3.589H28.63v2.168a1.347,1.347,0,1,1-2.694,0Zm32.307,7.8a.24.24,0,0,1-.24.24H34.716a.24.24,0,0,1-.234-.24V96.462a.879.879,0,1,0-1.758,0v2.021a1.993,1.993,0,0,0,.016.24H20.9V90.685h3.281v2.168a3.1,3.1,0,0,0,6.21,0V90.685h2.336V92.21a.879.879,0,1,0,1.758,0V81.885a.8.8,0,0,1,.8-.8h.326l.572,1.6a2.311,2.311,0,0,0,2.17,1.528H41.9a2.311,2.311,0,0,0,2.17-1.528l.572-1.6h.6a.8.8,0,0,1,.741.5l.46,1.131a.879.879,0,0,0,.814.548H58a.24.24,0,0,1,.24.24Z" transform="translate(534 2654.126)" fill="#fff"/>
    <path id="Контур_22756" data-name="Контур 22756" d="M416.951,254.2h1.969a.879.879,0,1,0,0-1.758h-1.969a.879.879,0,1,0,0,1.758Z" transform="translate(166.688 2477.946)" fill="#fff"/>
    <path id="Контур_22757" data-name="Контур 22757" d="M384.837,86.676a.879.879,0,1,0,0-1.758h-2.429a.879.879,0,0,0,0,1.758Z" transform="translate(197.182 2625.837)" fill="#fff"/>
    <path id="Контур_22758" data-name="Контур 22758" d="M89.226,85.808V85.8a.879.879,0,0,0-1.758,0v.012a.879.879,0,0,0,1.758,0Z" transform="translate(456.782 2625.838)" fill="#fff"/>
    <path id="Контур_22759" data-name="Контур 22759" d="M66.68,85.873v-.012a.879.879,0,1,0-1.758,0v.012a.879.879,0,1,0,1.758,0Z" transform="translate(476.687 2625.781)" fill="#fff"/>
    <path id="Контур_22760" data-name="Контур 22760" d="M43.255,86.816a.879.879,0,0,0,.879-.879v-.012a.879.879,0,1,0-1.758,0v.012A.879.879,0,0,0,43.255,86.816Z" transform="translate(496.59 2625.724)" fill="#fff"/>
    <path id="Контур_22761" data-name="Контур 22761" d="M43.255,147h5.284a.879.879,0,0,0,0-1.758H43.255a.879.879,0,0,0,0,1.758Z" transform="translate(496.59 2572.578)" fill="#fff"/>
    <path id="Контур_22762" data-name="Контур 22762" d="M43.255,178.173h5.284a.879.879,0,1,0,0-1.758H43.255a.879.879,0,1,0,0,1.758Z" transform="translate(496.59 2545.063)" fill="#fff"/>
    <path id="Контур_22763" data-name="Контур 22763" d="M43.255,209.34h5.284a.879.879,0,1,0,0-1.758H43.255a.879.879,0,1,0,0,1.758Z" transform="translate(496.59 2517.548)" fill="#fff"/>
    <path id="Контур_22764" data-name="Контур 22764" d="M43.255,240.508h5.284a.879.879,0,0,0,0-1.758H43.255a.879.879,0,0,0,0,1.758Z" transform="translate(496.59 2490.032)" fill="#fff"/>
    <path id="Контур_22765" data-name="Контур 22765" d="M174.156,127.433H177.8a2.053,2.053,0,0,0,2.051-2.051v-3.648a2.053,2.053,0,0,0-2.051-2.051h-3.648a2.053,2.053,0,0,0-2.051,2.051v3.648A2.053,2.053,0,0,0,174.156,127.433Zm-.293-5.7a.293.293,0,0,1,.293-.293H177.8a.293.293,0,0,1,.293.293v3.648a.293.293,0,0,1-.293.293h-3.648a.293.293,0,0,1-.293-.293Z" transform="translate(382.063 2595.146)" fill="#fff"/>
    <path id="Контур_22766" data-name="Контур 22766" d="M262.215,127.433h3.648a2.053,2.053,0,0,0,2.051-2.051v-3.648a2.053,2.053,0,0,0-2.051-2.051h-3.648a2.053,2.053,0,0,0-2.051,2.051v3.648A2.053,2.053,0,0,0,262.215,127.433Zm-.293-5.7a.293.293,0,0,1,.293-.293h3.648a.293.293,0,0,1,.293.293v3.648a.293.293,0,0,1-.293.293h-3.648a.293.293,0,0,1-.293-.293Z" transform="translate(304.324 2595.146)" fill="#fff"/>
    <path id="Контур_22767" data-name="Контур 22767" d="M348.223,121.734v3.648a2.053,2.053,0,0,0,2.051,2.051h3.648a2.053,2.053,0,0,0,2.051-2.051v-3.648a2.053,2.053,0,0,0-2.051-2.051h-3.648A2.053,2.053,0,0,0,348.223,121.734Zm5.992,0v3.648a.293.293,0,0,1-.293.293h-3.648a.293.293,0,0,1-.293-.293v-3.648a.293.293,0,0,1,.293-.293h3.648A.293.293,0,0,1,354.215,121.734Z" transform="translate(226.585 2595.146)" fill="#fff"/>
  </g>
</svg>
