<svg xmlns="http://www.w3.org/2000/svg" width="30" height="30" viewBox="0 0 30 30">
  <path id="linkedin" d="M7.667,4.333A3.147,3.147,0,0,1,4.333,7.667,3.205,3.205,0,0,1,1,4.5,3.379,3.379,0,0,1,4.333,1,3.24,3.24,0,0,1,7.667,4.333ZM1,31H7.667V9.333H1ZM23.667,9.667A7.3,7.3,0,0,0,17.333,13h-.167l-.333-2.833h-6c0,1.833.167,4,.167,6.5V31h6.667V19.167a5.138,5.138,0,0,1,.167-1.667c.5-1.167,1.333-2.667,3.167-2.667,2.333,0,3.333,2,3.333,4.667V31H31V18.667C31,12.5,27.833,9.667,23.667,9.667Z" transform="translate(-1 -1)" fill="#f5f5f5"/>
</svg>
