<svg xmlns="http://www.w3.org/2000/svg" width="171.552" height="38.192" viewBox="0 0 171.552 38.192">
  <g id="partner-2" transform="translate(-289.327 -759.07)">
    <path id="Контур_22719" data-name="Контур 22719" d="M53.191,14.66H26.613C16.981,17.014,16.8,25.2,16.8,25.2V52.852H27.02V27.641a2.553,2.553,0,0,1,2.046-2.526H53.191Zm-20.2,14.556S31,29.017,31,30.818V38.83H44.138v2.39a1.141,1.141,0,0,1-1.186,1.2H31v10.41H45.324s8.681-1.358,8.754-10.41V29.216Z" transform="translate(272.527 744.41)" fill="#4385f4"/>
    <path id="Контур_22720" data-name="Контур 22720" d="M88.393,31.267c-.416.29-.715.5-.905.625a17.714,17.714,0,0,1-2.227,1.186,6.989,6.989,0,0,1-2.716.625,9.478,9.478,0,0,1-6.789-2.571A8.563,8.563,0,0,1,73.04,24.64,9.514,9.514,0,0,1,75.493,18.1a7.64,7.64,0,0,1,5.966-2.716,9.75,9.75,0,0,1,3.132.489,8.419,8.419,0,0,1,3.44,2.028l-1.566,1.81a5.956,5.956,0,0,0-2.535-1.457,8.745,8.745,0,0,0-2.508-.344,5.16,5.16,0,0,0-4.128,2.028A7.5,7.5,0,0,0,75.638,24.8a6.146,6.146,0,0,0,1.892,4.571,6.6,6.6,0,0,0,4.807,1.892,4.762,4.762,0,0,0,2.489-.779l1.086-.824v-3.92H80.644l.76-2.417h6.988Zm15.9-4.725a6.834,6.834,0,0,1-1.946,4.861,6.491,6.491,0,0,1-9.46,0A6.663,6.663,0,0,1,90.9,26.523a7.106,7.106,0,0,1,1.892-4.915,6.011,6.011,0,0,1,4.635-2.082,6.5,6.5,0,0,1,4.934,2.01,6.834,6.834,0,0,1,1.928,5.006Zm-2.471,0a4.472,4.472,0,0,0-1.24-3.214A4.046,4.046,0,0,0,97.5,22.006a3.8,3.8,0,0,0-2.942,1.358,4.59,4.59,0,0,0-1.2,3.123,4.454,4.454,0,0,0,1.222,3.141,4.01,4.01,0,0,0,3.051,1.322,3.92,3.92,0,0,0,2.933-1.3,4.282,4.282,0,0,0,1.258-3.069Zm18.1,0a6.835,6.835,0,0,1-1.946,4.861,6.491,6.491,0,0,1-9.46,0,6.663,6.663,0,0,1-1.982-4.879,7.106,7.106,0,0,1,1.892-4.915,6.011,6.011,0,0,1,4.635-2.082,6.5,6.5,0,0,1,4.934,2.01,6.834,6.834,0,0,1,1.973,5.006Zm-2.471,0a4.472,4.472,0,0,0-1.24-3.214,4.046,4.046,0,0,0-3.078-1.322,3.8,3.8,0,0,0-2.942,1.358,4.59,4.59,0,0,0-1.2,3.123,4.454,4.454,0,0,0,1.222,3.141,4.01,4.01,0,0,0,3.051,1.322,3.92,3.92,0,0,0,2.933-1.3,4.282,4.282,0,0,0,1.3-3.069Zm17.028,6.536-2.272.353V31.194l-.489.57a5.839,5.839,0,0,1-1.439,1.014,5.676,5.676,0,0,1-2.471.552,5.893,5.893,0,0,1-4.526-2,6.88,6.88,0,0,1-1.81-4.789,7.179,7.179,0,0,1,1.81-4.915,5.73,5.73,0,0,1,4.454-2.037,6.219,6.219,0,0,1,2.634.507,4.526,4.526,0,0,1,1.349.96l.38.534v-5.9l2.462-.353V33.086Zm-2.127-6.337a4.6,4.6,0,0,0-1.322-3.349,4.028,4.028,0,0,0-3.005-1.376,3.865,3.865,0,0,0-3.042,1.3,4.526,4.526,0,0,0-1.1,3.042,4.9,4.9,0,0,0,1.141,3.331A3.621,3.621,0,0,0,127.9,31a4.4,4.4,0,0,0,3.042-1.24A3.965,3.965,0,0,0,132.351,26.741Zm14.882-8.591H140.48v4.707h5.241v2.417H140.48v7.8l-2.634.4V15.706h8.862Zm5.431-1.367-1.62,2.1-1.575-2.1,1.638-2.073Zm-.48,16.294-2.417.335V20.286l2.417-.38Zm10.863-13.316-1.132,2.716a3.277,3.277,0,0,0-.453,0,4.635,4.635,0,0,0-.706.054,2.77,2.77,0,0,0-.751.263,3.014,3.014,0,0,0-1.322,1.457,6.092,6.092,0,0,0-.625,2.716v6.11l-2.417.4V20.286l2.236-.416v2.716c.29-.48.588-.95.905-1.439a3.621,3.621,0,0,1,1.448-1.059,6.282,6.282,0,0,1,1.6-.281,6.617,6.617,0,0,1,1.24-.063Zm18,13.316-2.417.353V24.378a2.535,2.535,0,0,0-.543-1.81,2.1,2.1,0,0,0-1.6-.57,2.127,2.127,0,0,0-1.928,1.122,3.059,3.059,0,0,0-.453,1.548v8.41l-2.408.453V24.477a2.788,2.788,0,0,0-.525-1.81,1.811,1.811,0,0,0-1.439-.625h-.235a1.919,1.919,0,0,0-1.81,1.1,4.526,4.526,0,0,0-.435,2.1v7.839l-2.508.453V20.286l2.254-.4v1.684a5.267,5.267,0,0,1,.742-.95,3.132,3.132,0,0,1,2.254-.905,3.893,3.893,0,0,1,2.136.471,4.028,4.028,0,0,1,1.213,1.557,3.929,3.929,0,0,1,3.549-2.028,3.829,3.829,0,0,1,3.3,1.439,5.757,5.757,0,0,1,.905,3.494Zm11.026-3.992a3.929,3.929,0,0,1-1.24,2.987,4.336,4.336,0,0,1-3.141,1.177,4.97,4.97,0,0,1-2.571-.688A4.734,4.734,0,0,1,183.389,31l1.693-1.539a3.619,3.619,0,0,0,.344.453,3.023,3.023,0,0,0,2.263,1,2.037,2.037,0,0,0,1.448-.5,1.693,1.693,0,0,0,.516-1.358c0-.661-.407-1.113-1.24-1.358-1.638-.516-2.526-.8-2.652-.851a4.608,4.608,0,0,1-1.638-1.294,3.721,3.721,0,0,1-.57-2.191,3.7,3.7,0,0,1,1.222-2.833,4.083,4.083,0,0,1,2.9-1.113,4.879,4.879,0,0,1,2.363.579,3.938,3.938,0,0,1,1.557,1.313l-1.439,1.6a6.673,6.673,0,0,0-.7-.607,2.9,2.9,0,0,0-1.666-.625,2.136,2.136,0,0,0-1.24.344,1.457,1.457,0,0,0-.579,1.249,1.285,1.285,0,0,0,.561,1.168,7.7,7.7,0,0,0,2.091.679,4.979,4.979,0,0,1,2.508,1.367,3.53,3.53,0,0,1,.95,2.607Z" transform="translate(267.199 744.406)" fill="#4385f4"/>
    <path id="Контур_22721" data-name="Контур 22721" d="M75.924,52.894a.281.281,0,0,1-.081-.2V46.214H73.661a.29.29,0,0,1-.2-.091.272.272,0,0,1-.081-.208V45.01a.326.326,0,0,1,.072-.208.29.29,0,0,1,.208-.081h6.011a.28.28,0,0,1,.3.29v.905a.272.272,0,0,1-.081.208.3.3,0,0,1-.217.091H77.508V52.7a.317.317,0,0,1-.072.2.272.272,0,0,1-.208.081h-1.1A.263.263,0,0,1,75.924,52.894Z" transform="translate(267.167 741.562)" fill="#4a4a4a"/>
    <path id="Контур_22722" data-name="Контур 22722" d="M80.915,52.6a2.716,2.716,0,0,1-.815-1.982v-1a2.716,2.716,0,0,1,.815-1.946,3.512,3.512,0,0,1,4.246,0,2.716,2.716,0,0,1,.824,1.946v1.032a2.716,2.716,0,0,1-.806,1.955,3.621,3.621,0,0,1-4.273,0Zm3.1-.905a1.811,1.811,0,0,0,.362-1.141V49.63a1.811,1.811,0,0,0-.362-1.141,1.213,1.213,0,0,0-.96-.4,1.2,1.2,0,0,0-.96.4,1.747,1.747,0,0,0-.362,1.222v.923a1.747,1.747,0,0,0,.362,1.141,1.222,1.222,0,0,0,.96.389,1.2,1.2,0,0,0,.96-.435Z" transform="translate(266.53 741.35)" fill="#4a4a4a"/>
    <path id="Контур_22723" data-name="Контур 22723" d="M87.9,55.346a.29.29,0,0,1-.081-.208V47.344a.29.29,0,0,1,.081-.208.317.317,0,0,1,.2-.072h.905a.29.29,0,0,1,.217.081.281.281,0,0,1,.081.2v.471a2.154,2.154,0,0,1,1.874-.905,2.236,2.236,0,0,1,1.81.751,3.186,3.186,0,0,1,.733,2.046c0,.1,0,.235,0,.425v.425a3.159,3.159,0,0,1-.679,1.992,2.263,2.263,0,0,1-1.81.76,2.118,2.118,0,0,1-1.81-.833v2.716a.29.29,0,0,1-.081.208.281.281,0,0,1-.2.072H88.1A.317.317,0,0,1,87.9,55.346Zm4.2-4.87a3.447,3.447,0,0,0,0-.706c-.054-1.032-.5-1.557-1.34-1.557a1.168,1.168,0,0,0-1,.435,1.811,1.811,0,0,0-.353,1.059v.914a1.575,1.575,0,0,0,.362,1,1.222,1.222,0,0,0,.987.416C91.6,52.033,92.047,51.517,92.1,50.476Z" transform="translate(265.798 741.354)" fill="#4a4a4a"/>
    <path id="Контур_22724" data-name="Контур 22724" d="M99.4,52.771a2.788,2.788,0,0,1-1.141-.833,1.991,1.991,0,0,1-.407-1.132.253.253,0,0,1,.063-.172.244.244,0,0,1,.181-.081h1.068a.389.389,0,0,1,.217.063.516.516,0,0,1,.145.163,1.2,1.2,0,0,0,.543.67,2.064,2.064,0,0,0,1.141.272,2.326,2.326,0,0,0,1.249-.272.905.905,0,0,0,.416-.76.715.715,0,0,0-.217-.534,1.811,1.811,0,0,0-.643-.371q-.425-.145-1.276-.38A5.006,5.006,0,0,1,98.7,48.5a1.928,1.928,0,0,1-.643-1.557,2.037,2.037,0,0,1,.38-1.213,2.372,2.372,0,0,1,1.077-.76,3.938,3.938,0,0,1,1.629-.308,3.884,3.884,0,0,1,1.684.344,2.77,2.77,0,0,1,1.086.851,1.81,1.81,0,0,1,.389,1.014.217.217,0,0,1-.072.172.208.208,0,0,1-.172.081h-1.113a.353.353,0,0,1-.362-.217.905.905,0,0,0-.453-.625,2.151,2.151,0,0,0-2.01-.009.815.815,0,0,0-.371.715.769.769,0,0,0,.19.534,1.693,1.693,0,0,0,.588.371,12.02,12.02,0,0,0,1.168.362,7.9,7.9,0,0,1,1.666.525,2.154,2.154,0,0,1,.905.742,2.018,2.018,0,0,1,.3,1.141,2.191,2.191,0,0,1-.416,1.322,2.562,2.562,0,0,1-1.177.851,4.807,4.807,0,0,1-1.81.3A4.726,4.726,0,0,1,99.4,52.771Z" transform="translate(264.848 741.566)" fill="#4a4a4a"/>
    <path id="Контур_22725" data-name="Контур 22725" d="M106.571,52.9a.281.281,0,0,1-.081-.2V45.03a.326.326,0,0,1,.072-.208.29.29,0,0,1,.208-.081h5.2a.281.281,0,0,1,.29.29v.8a.253.253,0,0,1-.081.2.29.29,0,0,1-.208.081H108.1v2.055h3.621a.28.28,0,0,1,.29.3V49.2a.254.254,0,0,1-.081.2.29.29,0,0,1-.208.081H108.1v2.127h3.956a.272.272,0,0,1,.208.081.253.253,0,0,1,.081.2V52.7a.253.253,0,0,1-.081.2.272.272,0,0,1-.208.081h-5.287A.281.281,0,0,1,106.571,52.9Z" transform="translate(264.029 741.559)" fill="#4a4a4a"/>
    <path id="Контур_22726" data-name="Контур 22726" d="M114.9,52.268A3.232,3.232,0,0,1,114,49.86q0-.339,0-1V47.842a3.232,3.232,0,0,1,.905-2.4,4.11,4.11,0,0,1,4.961,0,3.2,3.2,0,0,1,.969,2.4V49.86a3.168,3.168,0,0,1-.905,2.408,4.255,4.255,0,0,1-5.006,0Zm3.757-1.023a2.118,2.118,0,0,0,.5-1.448V47.941a2.173,2.173,0,0,0-.507-1.448,1.883,1.883,0,0,0-2.489,0,2.082,2.082,0,0,0-.489,1.448V49.8a2.037,2.037,0,0,0,.489,1.448,1.892,1.892,0,0,0,2.5,0Z" transform="translate(263.318 741.571)" fill="#4a4a4a"/>
    <path id="Контур_22727" data-name="Контур 22727" d="M126.737,52.771a2.788,2.788,0,0,1-1.141-.833,2,2,0,0,1-.416-1.132.262.262,0,0,1,.072-.172.226.226,0,0,1,.181-.081H126.5a.353.353,0,0,1,.208.063.443.443,0,0,1,.154.163,1.231,1.231,0,0,0,.534.67,2.1,2.1,0,0,0,1.15.272,2.272,2.272,0,0,0,1.24-.272.905.905,0,0,0,.425-.76.715.715,0,0,0-.217-.534,1.81,1.81,0,0,0-.643-.371q-.425-.145-1.276-.38a5.006,5.006,0,0,1-2.037-.905,1.928,1.928,0,0,1-.643-1.557,2.091,2.091,0,0,1,.371-1.213,2.471,2.471,0,0,1,1.059-.76,3.992,3.992,0,0,1,1.629-.308A3.893,3.893,0,0,1,130.15,45a2.833,2.833,0,0,1,1.086.851,1.919,1.919,0,0,1,.389,1.014.217.217,0,0,1-.072.172.208.208,0,0,1-.172.081h-1.122a.353.353,0,0,1-.353-.217.905.905,0,0,0-.453-.625,2.155,2.155,0,0,0-2.01,0,.815.815,0,0,0-.371.715.769.769,0,0,0,.19.534,1.611,1.611,0,0,0,.588.371,12.027,12.027,0,0,0,1.168.362,7.9,7.9,0,0,1,1.666.525,2.155,2.155,0,0,1,.905.742,2.019,2.019,0,0,1,.3,1.141,2.191,2.191,0,0,1-.416,1.322,2.616,2.616,0,0,1-1.177.851,4.807,4.807,0,0,1-1.765.3A4.7,4.7,0,0,1,126.737,52.771Z" transform="translate(262.258 741.566)" fill="#4a4a4a"/>
    <path id="Контур_22728" data-name="Контур 22728" d="M134.2,52.553a3.005,3.005,0,0,1-.815-2.145v-.29a3.3,3.3,0,0,1,.779-2.317,3.13,3.13,0,0,1,4.291,0,3.232,3.232,0,0,1,.76,2.254v.253a.281.281,0,0,1-.081.2.29.29,0,0,1-.217.081h-3.9v.091a1.81,1.81,0,0,0,.353,1.086,1.113,1.113,0,0,0,.905.435,1.322,1.322,0,0,0,1.1-.543.661.661,0,0,1,.19-.136.489.489,0,0,1,.2,0h1.032a.245.245,0,0,1,.181.063.181.181,0,0,1,.081.163,1.113,1.113,0,0,1-.335.661,2.716,2.716,0,0,1-.96.67,3.476,3.476,0,0,1-1.448.281,2.888,2.888,0,0,1-2.109-.806Zm3.358-2.969h0a1.657,1.657,0,0,0-.353-1.113,1.285,1.285,0,0,0-1.892,0,1.7,1.7,0,0,0-.335,1.113h2.58Z" transform="translate(261.481 741.351)" fill="#4a4a4a"/>
    <path id="Контур_22729" data-name="Контур 22729" d="M140.991,53.118a.281.281,0,0,1-.081-.2v-5.54a.29.29,0,0,1,.081-.217.263.263,0,0,1,.2-.081h.96a.281.281,0,0,1,.3.3v.48a2,2,0,0,1,1.693-.778h.5a.253.253,0,0,1,.281.281v.905a.3.3,0,0,1-.072.2.29.29,0,0,1-.208.081h-.905a1.1,1.1,0,0,0-1.195,1.177v3.223a.281.281,0,0,1-.281.281h-1.05a.263.263,0,0,1-.217-.109Z" transform="translate(260.768 741.338)" fill="#4a4a4a"/>
    <path id="Контур_22730" data-name="Контур 22730" d="M147.961,53.118a.453.453,0,0,1-.154-.217l-2.218-5.431a.281.281,0,0,1,0-.1.289.289,0,0,1,.072-.19.263.263,0,0,1,.172-.072h.978a.308.308,0,0,1,.317.226l1.548,4.074,1.557-4.1a.272.272,0,0,1,.1-.154.281.281,0,0,1,.2-.072h.978a.254.254,0,0,1,.181.072.29.29,0,0,1,.072.19.244.244,0,0,1,0,.1l-2.2,5.431a.435.435,0,0,1-.425.3h-.905a.407.407,0,0,1-.272-.054Z" transform="translate(260.324 741.338)" fill="#4a4a4a"/>
    <path id="Контур_22731" data-name="Контур 22731" d="M153.361,45.739a.262.262,0,0,1-.081-.2v-.86a.29.29,0,0,1,.081-.208.263.263,0,0,1,.2-.081h1.077a.28.28,0,0,1,.3.29v.86a.244.244,0,0,1-.091.2.29.29,0,0,1-.208.081h-1.077A.262.262,0,0,1,153.361,45.739Zm0,7.124a.281.281,0,0,1-.081-.2V47.106a.29.29,0,0,1,.081-.208.3.3,0,0,1,.2-.072h1a.281.281,0,0,1,.281.281v5.558a.281.281,0,0,1-.281.281h-1a.262.262,0,0,1-.154-.081Z" transform="translate(259.595 741.592)" fill="#4a4a4a"/>
    <path id="Контур_22732" data-name="Контур 22732" d="M157.074,52.593a2.716,2.716,0,0,1-.824-1.992V49.7a2.716,2.716,0,0,1,.824-1.992,2.906,2.906,0,0,1,2.064-.715,3.422,3.422,0,0,1,1.566.326,2.462,2.462,0,0,1,.96.806,1.928,1.928,0,0,1,.335.905.217.217,0,0,1-.081.2.281.281,0,0,1-.2.081h-1.05a.326.326,0,0,1-.19-.045.635.635,0,0,1-.118-.2,1.33,1.33,0,0,0-.462-.643,1.258,1.258,0,0,0-.742-.208,1.186,1.186,0,0,0-.905.38,1.81,1.81,0,0,0-.416,1.122v.833c.054,1.014.48,1.521,1.294,1.521a1.286,1.286,0,0,0,.742-.19,1.321,1.321,0,0,0,.462-.652.58.58,0,0,1,.109-.19.308.308,0,0,1,.2-.054h1.05a.281.281,0,0,1,.2.081.217.217,0,0,1,.081.2,1.865,1.865,0,0,1-.335.905,2.417,2.417,0,0,1-.905.815,3.313,3.313,0,0,1-1.584.344A2.906,2.906,0,0,1,157.074,52.593Z" transform="translate(259.314 741.346)" fill="#4a4a4a"/>
    <path id="Контур_22733" data-name="Контур 22733" d="M164.223,52.553a3.051,3.051,0,0,1-.824-2.145v-.29a3.286,3.286,0,0,1,.769-2.317,3.141,3.141,0,0,1,4.3,0,3.232,3.232,0,0,1,.76,2.254v.253a.281.281,0,0,1-.081.2.308.308,0,0,1-.217.081H165.02v.091a1.811,1.811,0,0,0,.362,1.086,1.114,1.114,0,0,0,.905.435,1.322,1.322,0,0,0,1.1-.543.9.9,0,0,1,.181-.136.552.552,0,0,1,.2,0H168.8a.263.263,0,0,1,.181.063.172.172,0,0,1,.072.163,1.059,1.059,0,0,1-.335.661,2.652,2.652,0,0,1-.96.67,3.449,3.449,0,0,1-1.448.281A2.852,2.852,0,0,1,164.223,52.553Zm3.34-2.969h0a1.7,1.7,0,0,0-.344-1.113,1.177,1.177,0,0,0-.95-.416,1.141,1.141,0,0,0-.905.416,1.7,1.7,0,0,0-.344,1.113h2.544Z" transform="translate(258.637 741.35)" fill="#4a4a4a"/>
    <path id="Контур_22734" data-name="Контур 22734" d="M171.745,53.031a2.327,2.327,0,0,1-.905-.625,1.05,1.05,0,0,1-.29-.625.254.254,0,0,1,.072-.19.281.281,0,0,1,.181-.063h.969a.19.19,0,0,1,.163.091l.263.226a1.521,1.521,0,0,0,.471.272,1.548,1.548,0,0,0,.588.1,1.376,1.376,0,0,0,.76-.181.57.57,0,0,0,.3-.525.543.543,0,0,0-.136-.38,1.2,1.2,0,0,0-.489-.272,8.98,8.98,0,0,0-1.041-.272,3.2,3.2,0,0,1-1.476-.652,1.475,1.475,0,0,1-.471-1.15,1.521,1.521,0,0,1,.281-.905,2.082,2.082,0,0,1,.842-.688,3.141,3.141,0,0,1,1.331-.263,3.331,3.331,0,0,1,1.376.253,2.381,2.381,0,0,1,.905.607,1.032,1.032,0,0,1,.3.625.244.244,0,0,1-.253.253h-.905a.235.235,0,0,1-.2-.091,2.412,2.412,0,0,1-.262-.217,1.467,1.467,0,0,0-.407-.253,1.367,1.367,0,0,0-.543-.091,1.032,1.032,0,0,0-.67.181.616.616,0,0,0-.235.5.552.552,0,0,0,.109.353,1.1,1.1,0,0,0,.462.263,6.336,6.336,0,0,0,1.023.253q2.118.425,2.118,1.81a1.6,1.6,0,0,1-.724,1.358,3.449,3.449,0,0,1-2.019.516A3.621,3.621,0,0,1,171.745,53.031Z" transform="translate(257.959 741.352)" fill="#4a4a4a"/>
    <path id="Контур_22735" data-name="Контур 22735" d="M180.551,52.9a.281.281,0,0,1-.081-.2V45.03a.29.29,0,0,1,.081-.208.253.253,0,0,1,.2-.081h5.124a.281.281,0,0,1,.29.29v.851a.263.263,0,0,1-.081.2.29.29,0,0,1-.208.081h-3.766v2.218h3.53a.29.29,0,0,1,.208.081.262.262,0,0,1,.081.2V49.5a.281.281,0,0,1-.29.29h-3.53V52.7a.281.281,0,0,1-.081.2.29.29,0,0,1-.217.081h-1.059A.281.281,0,0,1,180.551,52.9Z" transform="translate(257.019 741.56)" fill="#4a4a4a"/>
    <path id="Контур_22736" data-name="Контур 22736" d="M187.911,45.739a.262.262,0,0,1-.081-.2v-.86a.29.29,0,0,1,.081-.208.281.281,0,0,1,.2-.081H189.2a.281.281,0,0,1,.29.29v.86a.263.263,0,0,1-.081.2.317.317,0,0,1-.208.081h-1.086a.281.281,0,0,1-.2-.081Zm.045,7.124a.28.28,0,0,1-.081-.2V47.106a.29.29,0,0,1,.081-.208.317.317,0,0,1,.2-.072h1a.262.262,0,0,1,.2.081.281.281,0,0,1,.081.2v5.558a.281.281,0,0,1-.081.2.263.263,0,0,1-.2.081h-1a.281.281,0,0,1-.172-.081Z" transform="translate(256.321 741.592)" fill="#4a4a4a"/>
    <path id="Контур_22737" data-name="Контур 22737" d="M191.151,53.118a.281.281,0,0,1-.081-.2v-5.54a.29.29,0,0,1,.081-.217.263.263,0,0,1,.2-.081h.96a.281.281,0,0,1,.3.3v.48a2,2,0,0,1,1.693-.778h.5a.281.281,0,0,1,.2.072.29.29,0,0,1,.082.208v.905a.263.263,0,0,1-.081.2.253.253,0,0,1-.2.081h-.905a1.1,1.1,0,0,0-1.213,1.177v3.223a.281.281,0,0,1-.281.281h-1.05a.262.262,0,0,1-.2-.109Z" transform="translate(256.014 741.338)" fill="#4a4a4a"/>
    <path id="Контур_22738" data-name="Контур 22738" d="M196.34,53.105a.254.254,0,0,1-.091-.2V47.348a.263.263,0,0,1,.091-.208.3.3,0,0,1,.2-.072h.905a.308.308,0,0,1,.208.072.281.281,0,0,1,.072.208v.4a2.073,2.073,0,0,1,1.711-.8,1.883,1.883,0,0,1,1.81,1.05,2.019,2.019,0,0,1,.8-.76,2.272,2.272,0,0,1,1.113-.29,2.055,2.055,0,0,1,1.584.661,2.716,2.716,0,0,1,.606,1.919v3.377a.317.317,0,0,1-.072.2.272.272,0,0,1-.208.081h-.9a.263.263,0,0,1-.2-.081.281.281,0,0,1-.081-.2V49.62a1.5,1.5,0,0,0-.317-1.068,1.113,1.113,0,0,0-1.593,0,1.494,1.494,0,0,0-.326,1.068v3.286a.28.28,0,0,1-.081.2.253.253,0,0,1-.2.081h-.987a.3.3,0,0,1-.208-.081.281.281,0,0,1-.081-.2V49.62a1.494,1.494,0,0,0-.317-1.068,1.113,1.113,0,0,0-1.593,0,1.493,1.493,0,0,0-.353,1.068v3.286a.317.317,0,0,1-.072.2.272.272,0,0,1-.208.081h-1A.263.263,0,0,1,196.34,53.105Z" transform="translate(255.523 741.351)" fill="#4a4a4a"/>
  </g>
</svg>
