<svg xmlns="http://www.w3.org/2000/svg" width="81.848" height="40.818" viewBox="0 0 81.848 40.818">
  <g id="partner-1" transform="translate(-149.73 -758.032)">
    <path id="Контур_22739" data-name="Контур 22739" d="M176.684,386.766v1.786h4.269a3.786,3.786,0,0,1-.973,2.251,4.371,4.371,0,0,1-3.3,1.307,4.749,4.749,0,0,1,0-9.5,4.54,4.54,0,0,1,3.217,1.278l1.256-1.256a6.167,6.167,0,0,0-4.473-1.815,6.536,6.536,0,1,0,0,13.07,5.989,5.989,0,0,0,4.56-1.83,5.911,5.911,0,0,0,1.547-4.175,5.74,5.74,0,0,0-.094-1.118Z" transform="translate(-3.991 378.697)" fill="#4285f4"/>
    <path id="Контур_22740" data-name="Контур 22740" d="M240.82,402.427a4.219,4.219,0,1,0,4.233,4.219A4.157,4.157,0,0,0,240.82,402.427Zm0,6.775a2.562,2.562,0,1,1,2.382-2.556A2.44,2.44,0,0,1,240.82,409.2Z" transform="translate(-56.685 361.584)" fill="#ea4335"/>
    <path id="Контур_22741" data-name="Контур 22741" d="M332.983,403.371h-.065a2.924,2.924,0,0,0-2.222-.944,4.228,4.228,0,0,0,0,8.437,2.881,2.881,0,0,0,2.222-.958h.065v.588c0,1.612-.864,2.476-2.251,2.476a2.34,2.34,0,0,1-2.128-1.5l-1.612.668a4.019,4.019,0,0,0,3.74,2.491c2.171,0,4.008-1.278,4.008-4.393v-7.588h-1.757Zm-2.128,5.831a2.577,2.577,0,1,1,2.251-2.541A2.362,2.362,0,0,1,330.855,409.2Z" transform="translate(-128.094 361.584)" fill="#4285f4"/>
    <path id="Контур_22742" data-name="Контур 22742" d="M286.2,402.427a4.219,4.219,0,1,0,4.233,4.219A4.157,4.157,0,0,0,286.2,402.427Zm0,6.775a2.562,2.562,0,1,1,2.382-2.556A2.44,2.44,0,0,1,286.2,409.2Z" transform="translate(-92.625 361.584)" fill="#fbbc05"/>
    <path id="Контур_22743" data-name="Контур 22743" d="M372.132,381.657h1.822v12.758h-1.822Z" transform="translate(-164.034 378.034)" fill="#34a853"/>
    <path id="Контур_22744" data-name="Контур 22744" d="M392.023,409.2a2.147,2.147,0,0,1-2.048-1.278l5.642-2.331-.189-.479a3.918,3.918,0,0,0-3.609-2.686,4.009,4.009,0,0,0-3.979,4.219,4.124,4.124,0,0,0,4.183,4.219A4.21,4.21,0,0,0,395.537,409l-1.438-.958a2.416,2.416,0,0,1-2.077,1.162Zm-.131-5.192a1.668,1.668,0,0,1,1.6.929l-3.812,1.576A2.292,2.292,0,0,1,391.892,404.01Z" transform="translate(-176.474 361.584)" fill="#ea4335"/>
    <text id="Partner" transform="translate(164.578 793.85)" fill="#848484" font-size="19" font-family="Inter-Regular, Inter"><tspan x="0" y="0">Partner</tspan></text>
    <rect id="Прямоугольник_20662" data-name="Прямоугольник 20662" width="40.681" height="10.88" transform="translate(149.73 798.713) rotate(-90)" fill="#ea4437"/>
    <path id="Контур_22745" data-name="Контур 22745" d="M0,4.319V0H1.459a1.682,1.682,0,0,1,.832.182,1.156,1.156,0,0,1,.48.492,1.517,1.517,0,0,1,.156.692,1.538,1.538,0,0,1-.155.694,1.16,1.16,0,0,1-.478.5,1.651,1.651,0,0,1-.827.185H.523V4.319ZM.523,2.278h.928a.922.922,0,0,0,.741-.262.974.974,0,0,0,.22-.65A.953.953,0,0,0,2.191.72.945.945,0,0,0,1.443.464H.523ZM4.959,4.319V0H6.418a1.769,1.769,0,0,1,.831.172A1.109,1.109,0,0,1,7.73.643a1.452,1.452,0,0,1,.156.681,1.4,1.4,0,0,1-.2.75,1.106,1.106,0,0,1-.611.461l.977,1.784H7.448L6.536,2.63l-.11,0H5.482V4.319Zm.523-2.16H6.41a1.016,1.016,0,0,0,.74-.224.831.831,0,0,0,.221-.612A.873.873,0,0,0,7.149.7,1,1,0,0,0,6.4.464h-.92Zm4.461,2.16V0H12.55V.464H10.466V1.923h1.949v.464H10.466V3.855h2.118v.464ZM14.683,0h.624l1.468,3.585h.051L18.293,0h.624V4.319h-.489V1.038h-.042l-1.35,3.282h-.472l-1.35-3.282h-.042V4.319h-.489ZM21.81,0V4.319h-.523V0Zm2.234,4.319V0H26.65V.464H24.567V1.923h1.949v.464H24.567V3.855h2.118v.464Zm4.74,0V0h1.459a1.769,1.769,0,0,1,.831.172,1.109,1.109,0,0,1,.481.471,1.452,1.452,0,0,1,.156.681,1.4,1.4,0,0,1-.2.75,1.106,1.106,0,0,1-.611.461l.977,1.784h-.607L30.361,2.63l-.11,0h-.945V4.319Zm.523-2.16h.928a1.016,1.016,0,0,0,.74-.224.831.831,0,0,0,.221-.612A.873.873,0,0,0,30.973.7a1,1,0,0,0-.748-.235h-.92Z" transform="translate(152.7 794.365) rotate(-90)" fill="#fff"/>
  </g>
</svg>
