<svg xmlns="http://www.w3.org/2000/svg" width="80" height="72.366" viewBox="0 0 80 72.366">
  <g id="plan-3" transform="translate(0 -24.428)">
    <path id="Контур_23121" data-name="Контур 23121" d="M78.826,94.446h-5.4v-5.6a1.174,1.174,0,0,0-2.348,0v5.6H60.527V47.252a.392.392,0,0,1,.391-.391h9.771a.392.392,0,0,1,.391.391V84.146a1.174,1.174,0,0,0,2.348,0V47.252a2.743,2.743,0,0,0-2.74-2.74H66.978V37.869H78.645a1.182,1.182,0,0,0,1-1.785L77.222,32.1l2.425-3.983a1.182,1.182,0,0,0-1-1.785H66.978V25.6a1.174,1.174,0,0,0-2.348,0v18.91H60.919a2.743,2.743,0,0,0-2.74,2.74v5.837a2.738,2.738,0,0,0-.391-.031H48.017a2.743,2.743,0,0,0-2.74,2.74v5.837a2.739,2.739,0,0,0-.391-.031H35.115a2.743,2.743,0,0,0-2.74,2.74v5.837a2.738,2.738,0,0,0-.391-.031H22.212a2.743,2.743,0,0,0-2.74,2.74v5.837a2.739,2.739,0,0,0-.391-.031H9.31a2.743,2.743,0,0,0-2.74,2.74V94.446h-5.4a1.174,1.174,0,0,0,0,2.348H78.826a1.174,1.174,0,0,0,0-2.349Zm-2.27-65.764-1.71,2.809a1.174,1.174,0,0,0,0,1.221l1.71,2.809H66.978V28.682ZM34.723,64.342a.392.392,0,0,1,.391-.391h9.771a.392.392,0,0,1,.391.391v9.322a1.174,1.174,0,0,0,2.348,0V55.8a.392.392,0,0,1,.391-.391h9.771a.392.392,0,0,1,.391.391V94.446H47.625V78.361a1.174,1.174,0,1,0-2.348,0V94.446H34.723Zm-25.8,17.09a.392.392,0,0,1,.391-.391h9.771a.392.392,0,0,1,.391.391V85.4a1.174,1.174,0,1,0,2.348,0V72.887a.392.392,0,0,1,.391-.391h9.771a.392.392,0,0,1,.391.391V94.446H21.821V90.092a1.174,1.174,0,1,0-2.348,0v4.354H8.919Z"/>
  </g>
</svg>
