<svg xmlns="http://www.w3.org/2000/svg" width="80" height="74.552" viewBox="0 0 80 74.552">
  <g id="plan-1" transform="translate(0 -17.436)">
    <path id="Контур_23118" data-name="Контур 23118" d="M78.826,82.784H75.938V41.432a5.877,5.877,0,0,0-5.871-5.871H58.516a18.52,18.52,0,0,0-37.032,0H9.933a5.877,5.877,0,0,0-5.871,5.871V82.784H1.174A1.174,1.174,0,0,0,0,83.958V87.53a4.463,4.463,0,0,0,4.458,4.458H75.542A4.463,4.463,0,0,0,80,87.53V83.958a1.174,1.174,0,0,0-1.174-1.174ZM73.59,41.432V82.784H70.671V43.567a2.743,2.743,0,0,0-2.74-2.74H57.87a18.392,18.392,0,0,0,.548-2.918H70.067A3.527,3.527,0,0,1,73.59,41.432ZM40,19.784A16.173,16.173,0,1,1,23.827,35.957,16.191,16.191,0,0,1,40,19.784ZM6.411,41.432a3.526,3.526,0,0,1,3.523-3.523H21.582a18.409,18.409,0,0,0,.548,2.918H12.069a2.743,2.743,0,0,0-2.74,2.74v8.561a1.174,1.174,0,0,0,2.348,0V43.567a.392.392,0,0,1,.391-.391H22.944a18.521,18.521,0,0,0,34.113,0H67.932a.392.392,0,0,1,.391.391V82.784H62.314v-5.3a1.174,1.174,0,0,0-2.348,0v5.3H54.1V59.812a1.174,1.174,0,0,0-1.174-1.174h-.455L57.034,53.8l4.561,4.834H61.14a1.174,1.174,0,0,0-1.174,1.174V72.791a1.174,1.174,0,1,0,2.348,0v-11.8h2a1.174,1.174,0,0,0,.854-1.98l-7.283-7.72a1.174,1.174,0,0,0-1.708,0L48.9,59.006a1.174,1.174,0,0,0,.854,1.98h2v21.8H48.708a1.174,1.174,0,0,0-1.174,1.174v.9a.409.409,0,0,1-.409.409H45.28V68.031h2a1.174,1.174,0,0,0,.854-1.98l-7.283-7.72a1.174,1.174,0,0,0-1.708,0l-7.283,7.72a1.174,1.174,0,0,0,.854,1.98h2V85.271H32.728a.409.409,0,0,1-.409-.409v-.9a1.174,1.174,0,0,0-1.174-1.174h-2.9V59.577h2A1.174,1.174,0,0,0,31.1,57.6l-7.284-7.72a1.174,1.174,0,0,0-1.708,0L14.829,57.6a1.174,1.174,0,0,0,.854,1.98h2V82.784H11.677V56.825a1.174,1.174,0,1,0-2.348,0V82.784H6.411ZM35.894,65.683h-.455L40,60.848l4.561,4.834h-.455a1.174,1.174,0,0,0-1.174,1.174V85.27H37.068V66.857a1.174,1.174,0,0,0-1.174-1.174ZM18.861,57.229h-.455l4.561-4.834,4.562,4.834h-.455A1.174,1.174,0,0,0,25.9,58.4V82.784H20.035V58.4a1.174,1.174,0,0,0-1.174-1.174Zm58.791,30.3a2.112,2.112,0,0,1-2.11,2.11H4.458a2.112,2.112,0,0,1-2.11-2.11v-2.4H29.983a2.761,2.761,0,0,0,2.744,2.486h14.4a2.761,2.761,0,0,0,2.744-2.486H77.652Z"/>
    <path id="Контур_23119" data-name="Контур 23119" d="M182.1,75.756a13.685,13.685,0,0,0,10.09-22.931,1.174,1.174,0,1,0-1.731,1.587,11.307,11.307,0,1,1-3.413-2.545,1.174,1.174,0,0,0,1.026-2.112,13.558,13.558,0,0,0-5.972-1.369,13.685,13.685,0,0,0,0,27.371Z" transform="translate(-142.099 -26.113)"/>
    <path id="Контур_23120" data-name="Контур 23120" d="M232.522,97.78a1.174,1.174,0,0,0,1.174-1.174v-.69a4.467,4.467,0,0,0,3.174-3.535,3.936,3.936,0,0,0-2.675-4.455c-.164-.058-.332-.118-.5-.18V84.563a1.978,1.978,0,0,1,.435.259A1.175,1.175,0,1,0,235.608,83a4.528,4.528,0,0,0-1.912-.889V81.6a1.174,1.174,0,0,0-2.348,0v.59l-.127.036a3.714,3.714,0,0,0-2.548,2.91,3.31,3.31,0,0,0,1.1,3.26,7.9,7.9,0,0,0,1.578.93v4.343a3.316,3.316,0,0,1-1.269-.576,1.174,1.174,0,1,0-1.285,1.965,5.33,5.33,0,0,0,2.554.978v.576A1.174,1.174,0,0,0,232.522,97.78Zm2.033-5.789a2.128,2.128,0,0,1-.858,1.369v-3.1A1.556,1.556,0,0,1,234.555,91.992Zm-3.335-5.449a1.012,1.012,0,0,1-.239-.976,1.554,1.554,0,0,1,.367-.745v1.816C231.3,86.606,231.26,86.575,231.22,86.543Z" transform="translate(-192.596 -53.144)"/>
  </g>
</svg>
