<svg xmlns="http://www.w3.org/2000/svg" width="80" height="80" viewBox="0 0 80 80">
  <g id="plan-2" transform="translate(0)">
    <path id="Контур_23116" data-name="Контур 23116" d="M77.734,70.625h-.078V31.575A5.866,5.866,0,0,0,71.8,25.716H57V17A17.012,17.012,0,0,0,34.337.966a1.172,1.172,0,1,0,.78,2.21A14.664,14.664,0,0,1,54.55,15.217a4.146,4.146,0,0,0-1.721-.373H50.51a19.088,19.088,0,0,1-5.77-1.729,19.064,19.064,0,0,1-3.509-2.2,1.95,1.95,0,0,0-2.484.059,16.237,16.237,0,0,1-2.966,2.044A16.324,16.324,0,0,1,29.9,14.844H27.17a4.148,4.148,0,0,0-1.719.372,14.611,14.611,0,0,1,5.263-9.556,1.172,1.172,0,1,0-1.486-1.813A16.951,16.951,0,0,0,23,17v8.714H8.2a5.866,5.866,0,0,0-5.859,5.859v39.05H2.266A2.268,2.268,0,0,0,0,72.891,7.11,7.11,0,0,0,7.109,80H72.891A7.117,7.117,0,0,0,80,72.891a2.285,2.285,0,0,0-2.266-2.266ZM57,28.059H71.8a3.52,3.52,0,0,1,3.516,3.516v39.05H72.969V32.669A2.268,2.268,0,0,0,70.7,30.4H57Zm0,4.687H70.625V70.625h-4.7V67.3a4.339,4.339,0,0,0,2-3.65V59.457a4.338,4.338,0,0,0-2-3.65V50.236a8.558,8.558,0,0,0-5.512-7.968L57,40.982Zm3.2,32.894H60.2a.352.352,0,0,1-.349-.351V57.813a.352.352,0,0,1,.352-.352h3.384a2,2,0,0,1,2,2v4.189a2,2,0,0,1-2,2Zm3.38,2.344v2.64H61.21a5.864,5.864,0,0,0,.118-1.172V67.985Zm-11.142-50.8h.39a1.828,1.828,0,0,1,0,3.656h-.39Zm0,6.868v-.868h.39a4.154,4.154,0,0,0,1.828-.421V40.1l-6.121-2.307a1.964,1.964,0,0,1-1.264-1.829V34.141a12.434,12.434,0,0,0,5.166-10.085ZM29.9,17.2a18.874,18.874,0,0,0,6.983-2.116,18.565,18.565,0,0,0,3.149-2.129,21.406,21.406,0,0,0,3.683,2.269A21.428,21.428,0,0,0,50.1,17.156v6.9a10.1,10.1,0,1,1-20.191,0V17.2ZM45.422,37.946a6.634,6.634,0,0,1-10.845,0,4.277,4.277,0,0,0,.493-1.984v-.485a12.409,12.409,0,0,0,9.859,0v.485a4.276,4.276,0,0,0,.493,1.984ZM27.17,17.188h.39v3.656h-.39a1.828,1.828,0,0,1,0-3.656Zm-1.828,5.579a4.154,4.154,0,0,0,1.828.421h.39v.869a12.433,12.433,0,0,0,5.166,10.085v1.821a1.964,1.964,0,0,1-1.263,1.828L25.342,40.1V22.767ZM32.29,39.984a4.239,4.239,0,0,0,.649-.312,8.982,8.982,0,0,0,14.122,0,4.231,4.231,0,0,0,.649.312L59.587,44.46a6.2,6.2,0,0,1,3.995,5.775v4.882H61.328V51.306a5.866,5.866,0,0,0-5.859-5.859H48.6a1.172,1.172,0,0,0,0,2.344h6.867a3.52,3.52,0,0,1,3.516,3.516v4.1a2.7,2.7,0,0,0-1.481,2.4V65.29a2.7,2.7,0,0,0,1.481,2.4v1.76a3.52,3.52,0,0,1-3.516,3.516H24.531a3.52,3.52,0,0,1-3.516-3.516v-1.76a2.7,2.7,0,0,0,1.481-2.4V57.813a2.7,2.7,0,0,0-1.481-2.4v-4.1a3.52,3.52,0,0,1,3.516-3.516h18.6a1.172,1.172,0,0,0,0-2.344h-18.6a5.866,5.866,0,0,0-5.859,5.859v3.811H16.419V50.236a6.2,6.2,0,0,1,3.995-5.775ZM18.79,70.625H16.419v-2.64h2.253v1.468a5.864,5.864,0,0,0,.118,1.172Zm-2.372-4.984a2,2,0,0,1-2-2V59.457a2,2,0,0,1,2-2H19.8a.352.352,0,0,1,.352.352V65.29a.352.352,0,0,1-.349.351H16.417ZM14.075,67.3v3.329h-4.7V32.747H23v8.235l-3.412,1.286a8.558,8.558,0,0,0-5.512,7.968v5.571a4.338,4.338,0,0,0-2,3.65v4.189A4.338,4.338,0,0,0,14.075,67.3ZM4.687,31.575A3.52,3.52,0,0,1,8.2,28.059H23V30.4H9.3a2.268,2.268,0,0,0-2.266,2.266V70.625H4.687Zm68.2,46.081H7.109a4.766,4.766,0,0,1-4.765-4.687h17.5a5.854,5.854,0,0,0,4.684,2.344H55.469a5.854,5.854,0,0,0,4.684-2.344h17.5A4.771,4.771,0,0,1,72.891,77.656ZM33.759,54.846V65.913a2.144,2.144,0,0,0,3.309,1.763L45.3,62.143a2.149,2.149,0,0,0,0-3.526l-8.233-5.533a2.137,2.137,0,0,0-3.309,1.763ZM36.1,65.5V55.258l7.62,5.121Zm1.159-35.78a5.714,5.714,0,0,0,2.679.7,5.875,5.875,0,0,0,2.8-.7,1.172,1.172,0,1,0-1.127-2.055,3.344,3.344,0,0,1-3.222,0,1.172,1.172,0,0,0-1.127,2.055Zm8.174-6.228a1.172,1.172,0,0,0,1.172-1.172V20.146a1.172,1.172,0,0,0-2.344,0v2.175A1.172,1.172,0,0,0,45.436,23.493Zm-10.873,0a1.172,1.172,0,0,0,1.172-1.172V20.146a1.172,1.172,0,0,0-2.344,0v2.175A1.172,1.172,0,0,0,34.564,23.493Z"/>
  </g>
</svg>
