<svg xmlns="http://www.w3.org/2000/svg" width="5089.385" height="2208.382" viewBox="0 0 5089.385 2208.382">
  <g id="promo-bg" transform="translate(-784.24 -544.647)">
    <path id="Контур_230" data-name="Контур 230" d="M1765.224,878.784c19.407-30.8,77.628-83.113,72.566-142.6-3.8-44.721-80.16-20.251-123.193,39.236-27.423,37.971-33.33,52.737-24.47,105.052-8.438,8.438-14.766,16.454-23.626,24.892-8.438,8.016-17.719,16.032-25.314,24.47-32.064,35.017-118.974,117.286-159.476,139.225,12.235-56.956,89.442-198.712,81.848-244.276-12.235-10.547-20.673-12.657-43.877-8.016-7.172,11.813-10.125,15.61-13.079,29.954-20.251,2.953-46.408,24.048-62.862,35.861l-172.555,120.24c-21.095,13.922-39.236,26.579-59.909,39.658-38.814,24.47-135.85,72.987-181.836,86.488a59.878,59.878,0,0,1-9.282,2.109l-8.438-1.687c-6.328-16.454,18.563-69.612,26.157-86.066,24.47-52.315,84.8-134.162,126.99-171.289,8.86-8.016,23.2-19.407,29.111-30.376-2.953-30.376-27.423-33.33-45.986-16.876-68.347,59.909-154.835,170.867-185.211,255.246-19.407,54.424-7.594,94.5,52.315,93.238,68.347-1.687,198.712-77.628,249.339-108.848,40.5-24.892,194.915-134.584,212.213-143.444-9.7,32.908-27.423,63.706-39.236,97.458-11.391,32.908-21.938,69.191-25.735,106.317-2.109,21.095,11.813,31.22,32.908,31.22,18.985,0,31.22-15.188,43.033-24.892l112.224-92.395c36.7-29.954,70.034-64.55,103.786-97.457,49.362-48.1,24.048-18.563,97.036-25.736,43.877-4.641,70.034-16.032,108-27.423-13.5,27-106.317,121.927-55.268,176.773,47.252,50.627,125.3,31.22,194.915,2.953,107.161-43.455,191.118-110.958,283.513-174.242,11.813-8.438,25.313-19.829,37.126-26.579-14.344,54.846-45.987,121.505-67.081,176.352-35.017,91.551-210.1,292.372-256.09,472.1-9.282,35.861-18.563,107.583,10.126,126.99,74.253,50.627,173.82-255.245,186.055-287.731,29.533-78.472,59.909-154.413,89.02-232.885,18.141-48.94,122.771-199.556,162.007-243.433l40.08-41.346c25.735-26.579,72.566-56.112,111.38-49.362,8.859,43.033-66.659,127.834-95.348,163.695-14.345,18.141-73.41,82.691-95.77,102.1-5.063,4.219-11.813,9.7-17.3,14.766-32.486,31.642,45.564,43.877,101.676,30.376,30.8-7.594,69.191-22.782,96.614-35.861,31.22-14.766,57.377-29.111,86.909-45.564,28.267-16.032,51.893-37.97,81-52.737-5.907,44.3-6.329,74.253,28.267,90.285,43.455,19.829,97.035-13.923,126.99-46.83l89.863-95.348c-4.641,40.924-12.657,81,37.97,101.676,78.051,32.064,162.851-26.579,228.245-67.081,31.22-19.407,60.331-44.721,91.129-64.55-10.125,30.376-29.955,56.956-25.736,95.348,3.375,32.064,29.111,49.362,62.441,51.049,55.268,2.531,89.863-30.376,124.036-62.44,10.126-9.282,19.829-21.939,29.111-29.111-3.8,12.657-24.47,51.471-31.22,64.128-10.969,21.095-21.094,42.189-31.642,63.706-21.095,43.033-42.189,83.113-64.55,125.724-20.673,39.236-8.016,26.579-53.159,43.455-24.469,8.86-46.83,17.3-70.456,27-83.113,33.751-172.554,82.691-226.979,156.944-25.314,34.173-51.893,70.878-65.815,121.505-36.705,132.053,94.5,166.648,193.227,100.411,86.91-58.643,178.883-237.526,234.151-339.2,20.673-37.971,8.859-41.346,44.3-51.471,24.47-7.172,47.674-14.344,72.987-21.938,204.619-61.175,406.283-112.646,622.293-154.835,202.931-39.236,500.788-74.253,702.031-52.737,181.836,19.407,126.146,58.643,140.913,80.16,16.875,24.47,83.113,20.673,60.331-40.924-26.58-72.144-201.243-80.582-270.855-83.957-378.861-18.985-797.379,72.144-1168.645,178.039-48.94,13.922-101.677,32.064-150.194,43.455,7.172-20.251,21.094-44.721,30.8-64.972l89.02-187.743c18.141-36.7,108.427-200.822,139.225-230.776,7.172-6.75,21.094-15.188,12.656-29.955-4.219-7.594-17.3-13.922-30.8-13.5-31.22,1.266-40.08,25.736-51.894,42.189-10.547,14.344-31.642,34.173-45.142,48.1-63.706,67.5-102.942,128.256-175.93,196.6-10.125,9.7-40.08,35.439-60.33,32.486-15.61-45.564,77.206-195.759,110.958-233.729,14.344-16.032,42.611-44.721,64.971-54.424,0,9.282-.844,22.782,3.375,29.955,12.656,22.782,47.674,11.391,49.361-29.111,2.531-57.378-66.659-72.144-137.115,3.8-16.876,18.142-24.47,18.985-36.7,30.377-117.286,109.27-148.084,142.6-293.216,224.447-112.646,63.706-117.708-9.7-75.519-96.613,41.768-86.066,127.834-137.959,82.269-161.585-35.861-18.563-58.221,25.736-78.472,49.362-21.517,25.314-48.1,44.3-68.347,68.769l-64.971,71.722c-28.267,33.329-90.707,111.8-132.053,127.412-5.906,2.531-.422.422-5.485,1.266l-3.375-.422c-7.172-32.908,18.141-74.675,32.486-94.926,10.547-14.766,18.563-24.47,28.688-37.97,24.47-33.33,69.191-73.41,104.63-96.614,78.051-51.049,59.487-16.454,99.989-30.376,3.8-9.282,5.063-11.813,3.8-25.736-34.6-22.782-43.033-24.47-86.067-6.328-17.72,7.594-25.313,11.813-43.877,17.3-13.079,3.8-22.782,16.032-34.173,24.892-26.579,20.673-41.768,32.908-63.284,56.112-19.407,21.095-40.5,35.439-64.55,54.846-58.644,46.83-232.885,169.179-306.717,176.773,42.189-46.83,193.649-202.509,176.352-272.121-5.485-21.517-37.97-39.236-66.659-40.924-62.018-2.953-116.021,35.439-156.944,73.831l-54.846,55.268c5.063-31.642,20.25-59.909,20.25-91.551,0-21.516,7.172-34.173-13.922-40.08-20.251-5.485-33.33,2.953-43.033,11.813,0,18.141,16.876,24.47-.844,39.236-5.485,4.641-13.079,8.016-18.141,11.391l-81,62.44c-43.033,32.908-85.645,65.816-135.006,96.192a1069.325,1069.325,0,0,1-153.569,78.894c-20.673,8.86-72.988,28.267-92.395,14.766-23.626-16.454-6.75-66.237,6.75-81.425,72.144,18.985,197.447-81.847,231.2-141.756,17.72-31.22,25.736-64.972-7.172-80.582-30.8-14.344-72.144,2.531-97.88,18.142-68.347,41.346-192.384,112.224-273.387,106.739m165.8,66.659c8.016-18.985,24.47-32.064,37.549-46.83,14.344-16.032,24.892-28.689,40.5-43.877,22.36-21.516,59.065-59.487,98.3-70.034C2104.848,845.876,1982.921,932.786,1931.028,945.443Zm1491.394,334.984c-5.063,15.188-47.674,89.442-58.221,107.161-36.705,62.44-58.643,95.348-97.458,151.46-10.969,16.032-23.625,33.33-36.7,44.721-18.141,15.61-82.269,65.393-113.067,32.064-43.455-46.408,44.72-172.554,90.707-214.744C3251.555,1361.008,3346.481,1300.256,3422.422,1280.427ZM1226.887,245.521c15.61-32.908-27.845-48.1-48.518-37.127-11.391,5.906-5.484,10.969-10.125,21.517-2.109,5.063-21.938,32.486-27,39.658-45.565,64.972-88.176,123.193-132.475,191.962-35.017,54.424-70.878,102.1-105.051,155.257-17.3,27-35.017,49.783-52.315,78.05C766.179,832.376,688.551,952.193,602.485,1096.9c-39.658,67.081-166.648,283.934-165.382,354.391.422,20.673,14.344,27.845,32.064,31.642,20.673,4.641,44.3,1.688,30.8-23.626-5.485-10.126-5.485-7.172-.422-23.626,2.531-8.438,5.063-15.61,8.016-23.626a472.682,472.682,0,0,1,18.563-44.721c28.689-58.643,57.8-115.6,89.02-170.867C702.9,1041.635,858.574,785.123,964.047,634.085c75.1-107.583,162.851-249.761,237.1-351.016C1209.167,271.679,1221.4,257.335,1226.887,245.521Zm197.446,1108.736c43.033-4.219,211.791-19.407,238.37-5.063,43.033,23.2,86.066-10.547,59.487-37.549-16.032-16.454-74.253-13.5-104.63-13.922-296.591-3.8-620.606,75.941-911.291,143.444-199.556,46.408-417.253,108.849-603.73,191.962-19.829,8.86-89.02,37.97-58.643,56.112,22.782,13.5,73.41-13.922,96.192-23.626C456.087,1533.563,1085.975,1388.431,1424.333,1354.258ZM3830.815,865.705c49.783,13.079,99.145-22.36,132.9-44.721,40.923-26.579,136.271-112.224,109.692-160.742-9.7-17.72-36.7-27.845-67.081-19.829-72.566,19.829-164.117,110.536-206.306,173.4-18.141,27.423-62.44,94.082-32.063,135.428,96.614,131.209,459.02-143.022,554.368-220.65,9.7-8.016,16.454-12.657,25.735-21.095,8.016-7.172,21.094-16.876,13.079-29.533-21.516-32.908-97.036,31.642-118.552,48.518-96.192,75.1-231.62,177.2-356.078,216.009C3773.86,978.351,3819.424,878.784,3830.815,865.705Zm18.563-31.22c8.016-18.985,24.47-32.064,37.549-46.83,32.486-36.7,89.442-100.411,138.8-113.911C4023.2,734.918,3901.271,821.828,3849.378,834.485ZM1248.826,684.713l-56.112,43.877c-22.782,23.2,13.079,70.034,97.036-10.969C1312.531,695.26,1269.076,672.056,1248.826,684.713Zm850.116,869.1c2.531-37.127,52.315-164.538,84.8-201.665C2174.039,1389.275,2120.88,1525.125,2098.942,1553.814Z" transform="translate(747.941 339.784)" fill="#f7f7f7" fill-rule="evenodd"/>
    <path id="Контур_231" data-name="Контур 231" d="M1491.466,569.528h19.3V706.641h-22.631V593.489l-27.955,7.987-5.325-19.3Zm-72.551,0h19.3V706.641h-22.63V593.489l-27.955,7.987-5.325-19.3ZM1322.4,687.339c9.984,0,17.971-3.993,23.3-12.646s7.987-20.633,7.987-36.608-2.663-27.956-7.987-36.608-13.312-12.646-23.3-12.646-17.971,3.993-23.3,12.646-7.987,20.634-7.987,36.608,2.663,27.955,7.987,36.608C1304.432,682.68,1312.419,687.339,1322.4,687.339Zm39.936,2c-9.318,12.647-22.631,19.3-39.936,19.3s-29.952-6.656-39.936-19.3q-13.978-18.97-13.977-51.917,0-31.949,13.977-51.917c9.319-12.647,22.63-19.3,39.936-19.3s29.952,6.656,39.936,19.3q13.977,18.97,13.977,51.917T1362.34,689.336Zm-197.684,17.305V689.336l47.923-48.589c11.315-11.315,17.305-21.965,17.305-29.952,0-6.656-2-11.981-5.99-15.309-3.993-3.994-9.319-5.325-15.309-5.325-11.316,0-19.968,5.99-25.293,17.305l-19.3-11.315a45.794,45.794,0,0,1,17.971-20.634,50.951,50.951,0,0,1,25.959-7.321,47.506,47.506,0,0,1,31.283,11.315c8.653,7.322,12.647,17.971,12.647,31.283,0,13.977-7.987,28.621-23.3,44.6l-31.283,31.283h56.576v21.965h-89.19Zm-122.47-21.964h60.57v21.3h-83.2V568.862h82.535v21.3h-59.9V626.1h54.579v21.3h-54.579ZM942.346,709.3c-20.634,0-37.94-6.656-51.251-20.634s-20.634-30.617-20.634-50.585,6.656-37.273,20.634-50.585c13.312-13.977,30.617-20.633,51.251-20.633,12.646,0,23.961,2.662,34.611,8.653a65.536,65.536,0,0,1,24.627,23.961l-19.3,11.315q-4.992-9.984-15.974-15.975a44.965,44.965,0,0,0-23.3-5.991c-14.644,0-26.624,4.659-35.277,13.977-9.319,9.319-13.312,21.3-13.312,35.277s4.659,25.958,13.312,35.277c9.319,9.319,20.633,13.977,35.277,13.977a44.962,44.962,0,0,0,23.3-5.99q10.982-5.99,15.974-15.974l19.3,11.315a65.527,65.527,0,0,1-24.627,23.961C966.308,705.976,954.327,709.3,942.346,709.3ZM827.2,569.528h22.63V706.641H831.856l-64.563-93.184v93.184h-22.63V569.528h17.305l64.563,93.184V569.528Zm-132.455,0h22.631V706.641H694.742ZM628.182,709.3c-13.312,0-24.627-3.328-33.28-9.319-9.318-5.99-15.975-13.977-19.3-24.627l19.3-11.315c5.325,15.309,16.64,23.3,33.945,23.3,8.653,0,14.643-2,19.3-5.325a17.375,17.375,0,0,0,6.656-13.312c0-5.325-2-9.984-6.656-12.646s-12.647-5.991-24.627-9.984c-6.656-2-11.981-3.993-15.975-5.325-3.993-2-8.653-3.993-12.646-7.321-4.659-3.328-7.987-6.656-9.984-11.315a40.216,40.216,0,0,1-3.328-15.975c0-11.981,3.993-21.965,12.647-28.621,8.653-7.321,19.3-10.649,31.283-10.649,11.315,0,20.633,2.662,28.621,7.987a56.436,56.436,0,0,1,19.3,21.965l-19.3,10.649c-5.99-12.647-15.309-19.3-28.621-19.3-6.656,0-11.981,1.331-15.974,4.659a15.459,15.459,0,0,0-5.99,12.647q0,7.987,5.99,11.981c3.993,2.662,11.315,5.99,21.965,9.318,5.325,2,9.319,2.663,11.315,3.994a51.341,51.341,0,0,1,9.984,3.993,62.224,62.224,0,0,1,9.984,5.325c2,2,4.659,3.993,7.322,6.656a18.973,18.973,0,0,1,5.325,9.319c1.331,3.328,1.331,7.321,1.331,11.981,0,12.647-4.659,21.965-13.312,29.287C654.141,705.31,642.16,709.3,628.182,709.3Z" transform="translate(3050.289 2043.725)" fill="#f7f7f7"/>
  </g>
</svg>
