<svg id="source-ng" xmlns="http://www.w3.org/2000/svg" width="124.46" height="36.569" viewBox="0 0 124.46 36.569">
  <path id="Контур_23056" data-name="Контур 23056" d="M241.74,417V380.43h25.518V417Zm21.826-3.684v-29.2H245.415v29.2Z" transform="translate(-241.74 -380.43)" fill="#161515"/>
  <path id="Контур_23057" data-name="Контур 23057" d="M288.2,397.278h-1.579c-2.069-2.926-4.13-5.833-6.181-9.124h0v9.124H278.66V384.55h1.579c2.069,2.908,4.13,5.8,6.163,9.071h0V384.55h1.784v12.728Z" transform="translate(-245.73 -380.875)" fill="#161515"/>
  <path id="Контур_23058" data-name="Контур 23058" d="M293.568,392.247c.508-1.668,1.017-3.22,1.472-5.182h0c.508,1.962.963,3.514,1.436,5.182Zm.838-7.688L290,397.278h1.891l1.106-3.47h3.835l1,3.47h2.435l-4.023-12.728H294.46Z" transform="translate(-246.955 -380.875)" fill="#161515"/>
  <path id="Контур_23059" data-name="Контур 23059" d="M303.425,397.279V386.264H300.08v-1.7h8.848v1.7h-3.345v11.015H303.4Z" transform="translate(-248.045 -380.876)" fill="#161515"/>
  <path id="Контур_23060" data-name="Контур 23060" d="M310.83,397.278V384.55H313v12.728H310.83Z" transform="translate(-249.207 -380.875)" fill="#161515"/>
  <path id="Контур_23061" data-name="Контур 23061" d="M320.136,395.621c-2.274,0-3.077-2.506-3.077-4.941s.892-4.585,3.077-4.585,3.077,2.239,3.077,4.585S322.411,395.621,320.136,395.621Zm0,1.784c3.327,0,5.4-2.961,5.4-6.761,0-3.568-2.292-6.4-5.4-6.4s-5.4,2.836-5.4,6.4c0,3.853,2.069,6.823,5.4,6.823Z" transform="translate(-249.629 -380.842)" fill="#161515"/>
  <path id="Контур_23062" data-name="Контур 23062" d="M337.844,397.278h-1.579c-2.069-2.926-4.13-5.833-6.181-9.124h0v9.124H328.3V384.55h1.579c2.069,2.908,4.13,5.8,6.163,9.071h0V384.55h1.784v12.728Z" transform="translate(-251.095 -380.875)" fill="#161515"/>
  <path id="Контур_23063" data-name="Контур 23063" d="M343.239,392.248c.508-1.668,1.017-3.22,1.472-5.182h0c.508,1.962.963,3.514,1.436,5.182H343.2Zm.838-7.688-4.4,12.728h1.891l1.106-3.47h3.835l1,3.47h2.435L345.9,384.56h-1.784Z" transform="translate(-252.324 -380.876)" fill="#161515"/>
  <path id="Контур_23064" data-name="Контур 23064" d="M351.9,384.55h2.167v11.015h4.308v1.713H351.9Z" transform="translate(-253.645 -380.875)" fill="#161515"/>
  <g id="Сгруппировать_29412" data-name="Сгруппировать 29412" transform="translate(31.396 19.89)">
    <path id="Контур_23065" data-name="Контур 23065" d="M286.671,409.9v5.253a10.016,10.016,0,0,1-3.621.785c-3.746,0-6.11-2.908-6.11-6.654,0-3.47,2.364-6.511,6.181-6.511a5.44,5.44,0,0,1,3.095.981l-.7,1.507a4.727,4.727,0,0,0-2.328-.669c-2.328,0-3.907,1.837-3.907,4.727s1.784,4.8,3.693,4.8a3.211,3.211,0,0,0,1.525-.312V409.9h2.185Z" transform="translate(-276.94 -402.734)" fill="#161515"/>
    <path id="Контур_23066" data-name="Контур 23066" d="M295.894,404.721h-3.639v3.487h3.568v1.712h-3.568v4.112h4.29v1.713H290.07V403h5.815v1.713Z" transform="translate(-278.359 -402.759)" fill="#161515"/>
    <path id="Контур_23067" data-name="Контур 23067" d="M303.486,414.111c-2.274,0-3.068-2.506-3.068-4.941s.892-4.585,3.068-4.585,3.077,2.239,3.077,4.585S305.761,414.111,303.486,414.111Zm0,1.784c3.327,0,5.4-2.961,5.4-6.761,0-3.568-2.292-6.4-5.4-6.4s-5.4,2.836-5.4,6.4c0,3.835,2.069,6.8,5.4,6.8Z" transform="translate(-279.226 -402.73)" fill="#161515"/>
    <path id="Контур_23068" data-name="Контур 23068" d="M320.761,409.9v5.253a10.025,10.025,0,0,1-3.621.785c-3.746,0-6.11-2.908-6.11-6.654,0-3.47,2.364-6.511,6.181-6.511a5.432,5.432,0,0,1,3.1.981l-.7,1.507a4.727,4.727,0,0,0-2.328-.669c-2.328,0-3.907,1.837-3.907,4.727s1.784,4.8,3.693,4.8a3.211,3.211,0,0,0,1.525-.312V409.9h2.185Z" transform="translate(-280.624 -402.734)" fill="#161515"/>
    <path id="Контур_23069" data-name="Контур 23069" d="M326.372,404.723h.963a1.846,1.846,0,0,1,2.016,2.051,2.248,2.248,0,0,1-2.069,2.524l-.892.054v-4.638Zm5.53,11.015-2.524-5.271a4.281,4.281,0,0,0,2.2-3.782c0-2.471-1.507-3.675-3.942-3.675h-3.4v12.728h2.185v-4.8h.981l2.051,4.8h2.488Z" transform="translate(-282.052 -402.76)" fill="#161515"/>
    <path id="Контур_23070" data-name="Контур 23070" d="M336.429,410.706c.508-1.668,1.017-3.22,1.472-5.182h0c.508,1.962.963,3.505,1.436,5.182h-2.943Zm.838-7.706-4.4,12.728h1.9l1.106-3.47h3.835l1,3.47h2.435L339.087,403H337.3Z" transform="translate(-282.984 -402.759)" fill="#161515"/>
    <path id="Контур_23071" data-name="Контур 23071" d="M348.588,403h-3.4v12.728h2.185v-4.79h.981a4.156,4.156,0,0,0,4.183-4.254C352.5,404.213,351,403,348.588,403Zm-.312,6.288-.892.053v-4.629h.981a1.846,1.846,0,0,1,2,2.051,2.248,2.248,0,0,1-2.114,2.542Z" transform="translate(-284.316 -402.759)" fill="#161515"/>
    <path id="Контур_23072" data-name="Контур 23072" d="M363.654,415.737h-2.185v-6.128h-4.531v6.128H354.77V403h2.167v4.888h4.531v-4.852h2.185v12.692Z" transform="translate(-285.351 -402.759)" fill="#161515"/>
    <path id="Контур_23073" data-name="Контур 23073" d="M367.07,415.737V403h2.167v12.728H367.07Z" transform="translate(-286.68 -402.759)" fill="#161515"/>
    <path id="Контур_23074" data-name="Контур 23074" d="M379.494,405.3a4.594,4.594,0,0,0-2.239-.7c-2.221,0-3.835,1.837-3.835,4.727s1.784,4.8,3.889,4.8a4.129,4.129,0,0,0,2.185-.633l.6,1.579a5.539,5.539,0,0,1-2.872.892c-3.746,0-6.11-2.908-6.11-6.654,0-3.47,2.346-6.511,6.145-6.511a5.351,5.351,0,0,1,2.926.981Z" transform="translate(-287.117 -402.736)" fill="#161515"/>
  </g>
</svg>
