<svg xmlns="http://www.w3.org/2000/svg" width="104" height="31.734" viewBox="0 0 104 31.734">
  <path id="source-time" d="M50.668.951S49.5.976,48.82.964c-.028.285-.355,2.863-.636,4.938C47.86,7.821,45.3,22.06,44.431,26.322c-.228,1.287-.935,4.923-1,5.286-.815.1-1.778.187-2.407.212-.084,0-.225.03-.292.03v.738c.077,0,.485.028.773.016.692-.022,2.656-.115,3.029-.115,1.412,0,2.354.093,3.661.119.018,0,.376,0,.534-.021v-.746c-.109,0-.253,0-.337,0a24.11,24.11,0,0,1-2.417-.187c.081-.488,1.282-7.862,1.859-10.811,1.1-5.458,1.855-9.327,1.855-9.327l.2.48,8.661,20.643,1.581.008s.9-2.235,1.975-4.743c.028-.059.105-.239.214-.5,1.124-2.6,6.7-15.817,6.7-15.817s.053.238.141.663c.531,2.59,2.326,11.923,2.709,14.175.179,1.158.348,2.333.446,3.022.144.975.239,1.929.239,2.2-.176.008-1.939.168-2.607.2-.095,0-.274.006-.285.007v.751c.239,0,.471.011.7.005,1.363-.026,2.674-.133,4.037-.132,1.532,0,4.016.135,5.608.145.179,0,.5-.016.5-.016v-.759c-.091,0-.492-.02-.639-.032-.713-.056-1.915-.167-2.221-.188,0,0-.2-1.09-.457-2.35-1.04-5.037-4-20.349-4.455-24.117-.155-1.295-.594-4.2-.594-4.2H70.361L68.622,5.954c-.566,1.627-1.335,3.635-1.922,5.175-2.9,7.609-6.142,14.7-6.142,14.7s-6.9-16.465-7.266-17.417S50.668.951,50.668.951ZM1.063.958,1.079,2.7l-.03,4.238.459-.013.048-3.769S4.074,3.132,4.4,3.133l4.694,0,3.03.015,0,26.214v2.264l-.064.009c-.4.031-1.955.126-2.586.149-.141,0-.232.008-.247.006l0,.767c.114.006.421.013.461.012,1.491-.019,3.509-.149,4.94-.148,1.454,0,3.5.142,4.765.157.125,0,.274-.012.395-.012v-.719h-.157c-.4,0-2.634-.145-2.865-.176-.009-.352-.051-2.049-.051-2.087l.011-26.44,2.307-.006,6.018,0,2.009.027c.013.144.115,2.053.113,2.1,0,.139.075,1.561.072,1.911l.476.006-.034-4.287L27.716.979c-1.769.048-6.276.109-13.272.105-6,0-11.781-.054-13.381-.126ZM29.083.965l.007.751c.238.013,1.634.136,1.973.153.271.033.649.067.919.093,0,.24,0,1.9.008,2.554.045,6.2.007,19.917-.012,24.769-.006,1.4-.009,2.307-.009,2.307a6.439,6.439,0,0,1-.973.1c-.356.024-1.631.131-1.916.137v.751c.118,0,.334.025.458.024,1.444,0,3.451-.179,4.93-.178,1.495,0,3.49.183,4.667.183h0c.1,0,.344-.025.446-.025v-.75h-.1c-.046-.01-1.564-.074-1.932-.112a10.253,10.253,0,0,1-1.04-.112c0-.015-.007-.239-.007-.613,0-.355,0-.946,0-1.586,0-4.894.018-19.429.021-24.985,0-1.074,0-1.946,0-2.414.327-.021,1.662-.16,2.14-.2l.914-.054V.971c-1.634,0-3.8.127-5.39.126-1.668,0-3.722-.132-5.106-.132Zm75.612.021H104.2c-1.093,0-3.89.025-7.161.043-2.01.012-3.58.028-5.65.027-1.451.017-3.482.073-4.736.071-2,0-3.637-.127-4.525-.13-.422,0-.657.014-.773.007.007.011.007.741.007.741a2.162,2.162,0,0,0,.376.027c.5.034,1.444.11,1.922.173.095.017.256.044.706.094,0,.166.021,2.047.018,3.177,0,1.047-.011,24.409-.011,24.409,0,.038-.053,1.879-.053,2.027a23.994,23.994,0,0,1-2.839.222h-.155v.743c.074,0,.415.013.608.013.84,0,3-.134,5.214-.135,1.549,0,3.254.057,4.979.081,2.126.03,4.276.031,6.208.058,3.187.045,5.769.049,6.609.05,0,0,.1-5.911.1-6.387l-.46.005c0,.5-.186,2.375-.193,2.457-.06.7-.123,1.443-.172,1.807,0,0-.225.018-.334.016-.524-.01-2.2.051-2.231.051l-7.459,0L88.96,30.55,88.925,29.1l0-11.283c.935-.032,2.361-.081,3.229-.079.738,0,2.477-.04,3.45-.038,2.365,0,4.466.019,4.634.024.39.011,1.114.035,1.388.052.011.1.042.255.046.3.141.864.218,1.462.313,2.311.014.076.021.15.032.22h.538s.014-.3.007-.492c-.011-.665-.053-1.992-.053-3.462,0-1.019.056-2.578.063-3.327,0-.2-.021-.347-.021-.4l-.492.009a3.67,3.67,0,0,1-.042.4c-.042.559-.2,1.273-.327,2.026a1.641,1.641,0,0,0-.06.225c-.056.019-1.6.1-1.736.1-.053,0-2.3.063-2.337.063l-8.629-.032.014-12.441s1.1-.039,1.4-.037c1.244,0,3.268-.011,5.33-.008,3.018,0,5.948.022,5.955.027s.91.021.928.036,1.138.05,1.412.059c0,0,.021.093.035.209.123,1.312.225,2.87.271,3.422l0,.221h.46c0-.808-.042-3.282-.049-4.855,0-.505.007-.917.007-1.151v-.2Z" transform="translate(-1.049 -0.951)" fill="#161515"/>
</svg>
