<svg xmlns="http://www.w3.org/2000/svg" width="119.981" height="23.419" viewBox="0 0 119.981 23.419">
  <path id="source-medium" d="M61.6,31.806c0,.412,0,.505.28.758L63.454,34.1v.065H56.475v-2.95a4.852,4.852,0,0,1-4.627,3.2c-3.588,0-6.192-2.81-6.192-7.981,0-4.843,2.81-8.075,6.754-8.075a4.122,4.122,0,0,1,4.056,2.51v-6.51a.806.806,0,0,0-.319-.787l-1.5-1.443v-.065l6.951-.815V31.806Zm-5.125-.937V21.155a2.614,2.614,0,0,0-2.08-.975c-1.695,0-3.334,1.537-3.334,6.1,0,4.271,1.414,5.78,3.175,5.78a2.81,2.81,0,0,0,2.24-1.19Zm9.752,3.3V21.051a.88.88,0,0,0-.281-.786L64.4,18.672v-.065h6.98v13.3c0,.412,0,.505.28.758L73.2,34.11v.066l-6.97-.01ZM65.974,13.81a2.81,2.81,0,1,1,2.81,2.81,2.81,2.81,0,0,1-2.81-2.81ZM90.208,31.777c0,.413,0,.534.281.787L92.063,34.1v.065H85.046V30.8a5.077,5.077,0,0,1-4.805,3.616c-3.11,0-4.778-2.267-4.778-6.557,0-2.07,0-4.337.066-6.885a.8.8,0,0,0-.281-.76L73.7,18.672v-.065h6.923v8.552c0,2.81.412,4.684,2.173,4.684a2.81,2.81,0,0,0,2.267-1.415V21.061a.88.88,0,0,0-.28-.787l-1.556-1.6v-.065h6.979v13.17Zm23.756,2.39c0-.507.094-6.952.094-8.432,0-2.81-.44-4.75-2.417-4.75a3.138,3.138,0,0,0-2.482,1.35,11.418,11.418,0,0,1,.28,2.67c0,1.948-.065,4.43-.093,6.913a.8.8,0,0,0,.281.759l1.574,1.442v.066h-7.045c0-.468.094-6.95.094-8.431,0-2.857-.44-4.75-2.389-4.75a2.81,2.81,0,0,0-2.323,1.387v9.555c0,.412,0,.506.281.759l1.537,1.442v.066h-6.97V21.1a.88.88,0,0,0-.281-.787l-1.546-1.639v-.065h6.98v3.334a5,5,0,0,1,5-3.587c2.323,0,3.9,1.292,4.562,3.747a5.433,5.433,0,0,1,5.245-3.747c3.11,0,4.872,2.3,4.872,6.632,0,2.07-.066,4.43-.094,6.913a.75.75,0,0,0,.318.759l1.537,1.443v.065h-7.017ZM26.293,32.124l2.07,1.977v.065h-10.5V34.1l2.107-1.977a.8.8,0,0,0,.281-.759V18.728a13.074,13.074,0,0,1,.094-1.873L13.262,34.419h-.084L5.843,18.26c-.16-.4-.206-.43-.31-.7V28.153a3.686,3.686,0,0,0,.348,2.07L8.831,34.1v.065H1V34.1l2.95-3.888a3.69,3.69,0,0,0,.347-2.06V16.444a2.267,2.267,0,0,0-.487-1.6L1.721,12.134v-.065H9.215l6.277,13.686,5.527-13.686h7.335v.065l-2.061,2.3a.806.806,0,0,0-.319.786v16.15a.75.75,0,0,0,.319.759Zm8.215-6.332v.065c0,4.01,2.07,5.62,4.5,5.62a5.105,5.105,0,0,0,4.777-2.894h.066c-.844,3.963-3.3,5.836-6.97,5.836-3.962,0-7.7-2.389-7.7-7.925,0-5.817,3.747-8.14,7.887-8.14,3.335,0,6.886,1.573,6.886,6.632v.806H34.508Zm0-.806h4.618v-.815c0-4.122-.852-5.218-2.136-5.218-1.555,0-2.5,1.64-2.5,6.033Z" transform="translate(-1 -11)" fill="#161515"/>
</svg>
