<svg xmlns="http://www.w3.org/2000/svg" width="86.818" height="40.089" viewBox="0 0 86.818 40.089">
  <g id="source-cnn" transform="translate(-149.744 -168.558)">
    <g id="Сгруппировать_1" data-name="Сгруппировать 1" transform="translate(149.744 168.558)">
      <path id="Контур_1" data-name="Контур 1" d="M177.239,168.59c0-.018-7.471,0-7.471,0a20.024,20.024,0,0,0,0,40.048l14.047-.012a6.371,6.371,0,0,0,6.39-6.368l.008-12.213,9.709,15.314a7.34,7.34,0,0,0,13.467-4.041l0-11.274L223.1,205.36a7.34,7.34,0,0,0,13.466-4.041l0-32.747h-5v32.747a2.341,2.341,0,0,1-4.282,1.309L210,175.407a.886.886,0,0,0-1.616.5l.005,25.41a2.341,2.341,0,0,1-4.282,1.309l-17.282-27.221a.886.886,0,0,0-1.615.5l0,26.35a1.392,1.392,0,0,1-1.392,1.392l-14.047-.011a15.026,15.026,0,1,1,0-30.052l7.471-.006V168.59Z" transform="translate(-149.744 -168.57)" fill="#161515" fill-rule="evenodd"/>
      <path id="Контур_2" data-name="Контур 2" d="M211.874,197.21a.712.712,0,0,0,.712-.712l0-20.6a7.34,7.34,0,0,1,13.481-4.019l9.676,15.178.018-11.159a7.339,7.339,0,0,1,13.48-4.019l9.676,15.178v-18.5h5.03l-.009,32.747a.886.886,0,0,1-1.594.531l-17.3-27.251a2.341,2.341,0,0,0-4.282,1.309l.006,25.41a.886.886,0,0,1-1.594.531l-17.3-27.251a2.341,2.341,0,0,0-4.282,1.309l.01,25.612a.712.712,0,0,1-.712.712l-13.287,0a13.616,13.616,0,0,1,0-27.231s7.471-.029,7.471,0v5.049l-7.471-.006a8.6,8.6,0,0,0,0,17.19l8.276-.01Z" transform="translate(-183.574 -168.558)" fill="#161515" fill-rule="evenodd"/>
    </g>
  </g>
</svg>
