<svg xmlns="http://www.w3.org/2000/svg" width="70" height="70.073" viewBox="0 0 70 70.073">
  <g id="stage-5" transform="translate(-0.267 0)">
    <path id="Контур_23134" data-name="Контур 23134" d="M182.475,23.392A11.686,11.686,0,1,0,178.184.837a1.026,1.026,0,0,0,.754,1.907,9.635,9.635,0,1,1-3.857,2.787,1.026,1.026,0,0,0-1.573-1.316,11.685,11.685,0,0,0,8.968,19.177Z" transform="translate(-147.208 0)" fill="#fff"/>
    <path id="Контур_23135" data-name="Контур 23135" d="M206.435,40.725l2.532,2.468-.6,3.485a1.035,1.035,0,0,0,1.488,1.081l3.13-1.645,3.13,1.645a1.035,1.035,0,0,0,1.488-1.081l-.6-3.485,2.532-2.468a1.035,1.035,0,0,0-.568-1.749l-3.5-.509L213.907,35.3a1.035,1.035,0,0,0-1.839,0L210.5,38.467l-3.5.509a1.035,1.035,0,0,0-.569,1.749Zm4.9-.306a1.025,1.025,0,0,0,.772-.561l.884-1.791.884,1.791a1.025,1.025,0,0,0,.772.561l1.977.287-1.43,1.394a1.025,1.025,0,0,0-.295.908l.338,1.969-1.768-.93a1.034,1.034,0,0,0-.954,0l-1.768.93.338-1.969a1.026,1.026,0,0,0-.295-.908l-1.43-1.394Z" transform="translate(-177.72 -29.987)" fill="#fff"/>
    <path id="Контур_23136" data-name="Контур 23136" d="M70.229,244.9a13.858,13.858,0,0,0-.883-2.7,5.434,5.434,0,0,0-3.775-2.789V226.694a1.025,1.025,0,0,0-1.025-1.025H46.052v-20.62a1.025,1.025,0,0,0-1.025-1.025H25.507a1.025,1.025,0,0,0-1.025,1.025v11.57H5.988a1.025,1.025,0,0,0-1.025,1.025v21.763a5.391,5.391,0,0,0-4.184,3.815L.3,244.9a1.037,1.037,0,0,0,.987,1.3H56.059a1.026,1.026,0,0,0,0-2.051H2.647a3.387,3.387,0,0,1,3.295-2.783H64.592a3.39,3.39,0,0,1,3.295,2.783H61.482a1.026,1.026,0,0,0,0,2.051h7.761a1.037,1.037,0,0,0,.987-1.3ZM63.52,227.719v11.6H46.052v-11.6ZM26.533,206.074H44v33.242H26.533Zm-2.051,12.6v20.647H7.014V218.669Z" transform="translate(0 -176.129)" fill="#fff"/>
    <path id="Контур_23137" data-name="Контур 23137" d="M368.771,263.459h1.152a1.025,1.025,0,0,0,0-2.051h-1.152A1.025,1.025,0,0,0,368.771,263.459Z" transform="translate(-317.242 -225.668)" fill="#fff"/>
    <path id="Контур_23138" data-name="Контур 23138" d="M400.177,288.81a1.025,1.025,0,0,0,1.025-1.025v-1.152a1.025,1.025,0,0,0-2.051,0v1.152A1.025,1.025,0,0,0,400.177,288.81Z" transform="translate(-344.348 -246.565)" fill="#fff"/>
    <path id="Контур_23139" data-name="Контур 23139" d="M423.3,263.556a1.025,1.025,0,0,0,1.025,1.025h1.152a1.025,1.025,0,0,0,0-2.051H424.33A1.025,1.025,0,0,0,423.3,263.556Z" transform="translate(-365.199 -226.637)" fill="#fff"/>
    <path id="Контур_23140" data-name="Контур 23140" d="M401.3,233.2a1.025,1.025,0,0,0,1.025-1.025v-1.152a1.025,1.025,0,0,0-2.051,0v1.152A1.025,1.025,0,0,0,401.3,233.2Z" transform="translate(-345.319 -198.561)" fill="#fff"/>
    <path id="Контур_23141" data-name="Контур 23141" d="M405.677,93.733h1.152a1.025,1.025,0,0,0,0-2.051h-1.152A1.025,1.025,0,0,0,405.677,93.733Z" transform="translate(-349.103 -79.147)" fill="#fff"/>
    <path id="Контур_23142" data-name="Контур 23142" d="M437.085,119.084a1.025,1.025,0,0,0,1.025-1.025v-1.152a1.025,1.025,0,0,0-2.051,0v1.152A1.025,1.025,0,0,0,437.085,119.084Z" transform="translate(-376.21 -100.044)" fill="#fff"/>
    <path id="Контур_23143" data-name="Контур 23143" d="M461.285,94.856h1.152a1.025,1.025,0,0,0,0-2.051h-1.152A1.025,1.025,0,0,0,461.285,94.856Z" transform="translate(-397.107 -80.117)" fill="#fff"/>
    <path id="Контур_23144" data-name="Контур 23144" d="M438.208,63.478a1.025,1.025,0,0,0,1.025-1.025V61.3a1.025,1.025,0,0,0-2.051,0v1.152A1.025,1.025,0,0,0,438.208,63.478Z" transform="translate(-377.18 -52.041)" fill="#fff"/>
    <path id="Контур_23145" data-name="Контур 23145" d="M29.954,158.677h1.152a1.025,1.025,0,0,0,0-2.051H29.954A1.025,1.025,0,0,0,29.954,158.677Z" transform="translate(-24.749 -135.212)" fill="#fff"/>
    <path id="Контур_23146" data-name="Контур 23146" d="M61.36,184.028A1.025,1.025,0,0,0,62.386,183v-1.152a1.025,1.025,0,0,0-2.051,0V183A1.025,1.025,0,0,0,61.36,184.028Z" transform="translate(-51.855 -156.109)" fill="#fff"/>
    <path id="Контур_23147" data-name="Контур 23147" d="M85.56,159.8h1.152a1.025,1.025,0,0,0,0-2.051H85.56A1.025,1.025,0,0,0,85.56,159.8Z" transform="translate(-72.753 -136.181)" fill="#fff"/>
    <path id="Контур_23148" data-name="Контур 23148" d="M62.483,128.422a1.025,1.025,0,0,0,1.025-1.025v-1.152a1.025,1.025,0,0,0-2.051,0V127.4A1.025,1.025,0,0,0,62.483,128.422Z" transform="translate(-52.825 -108.106)" fill="#fff"/>
    <path id="Контур_23149" data-name="Контур 23149" d="M284.518,269.143a1.025,1.025,0,0,0,1.025-1.025V243.042a1.025,1.025,0,0,0-2.051,0v25.076A1.025,1.025,0,0,0,284.518,269.143Z" transform="translate(-244.503 -208.934)" fill="#fff"/>
    <path id="Контур_23150" data-name="Контур 23150" d="M427.252,402.088a1.025,1.025,0,0,0,1.025-1.025v-4.02a1.025,1.025,0,0,0-2.051,0v4.02A1.025,1.025,0,0,0,427.252,402.088Z" transform="translate(-367.721 -341.878)" fill="#fff"/>
    <path id="Контур_23151" data-name="Контур 23151" d="M141.784,348.019a1.025,1.025,0,0,0,1.025-1.025V334.41a1.025,1.025,0,0,0-2.051,0v12.584A1.025,1.025,0,0,0,141.784,348.019Z" transform="translate(-121.284 -287.81)" fill="#fff"/>
  </g>
</svg>
