<svg xmlns="http://www.w3.org/2000/svg" width="70" height="70" viewBox="0 0 70 70">
  <g id="stage-4" transform="translate(0 0.001)">
    <path id="Контур_23152" data-name="Контур 23152" d="M62.684,10.521A2.4,2.4,0,0,0,64.91,9.008H67.6a2.4,2.4,0,0,0,2.4-2.4v-2.7a2.4,2.4,0,0,0-2.4-2.4H64.91A2.4,2.4,0,0,0,62.684,0H52.3a1.027,1.027,0,1,0,0,2.055H62.684a.343.343,0,0,1,.342.342V8.124a.343.343,0,0,1-.342.342H7.316a.343.343,0,0,1-.342-.342V2.4a.343.343,0,0,1,.342-.342H48.19A1.027,1.027,0,1,0,48.19,0H7.316A2.4,2.4,0,0,0,5.09,1.512H2.4A2.4,2.4,0,0,0,0,3.909v2.7a2.4,2.4,0,0,0,2.4,2.4H5.09a2.4,2.4,0,0,0,2.226,1.513h.143V37.56H7.316A2.4,2.4,0,0,0,5.09,39.073H2.4a2.4,2.4,0,0,0-2.4,2.4v2.7a2.4,2.4,0,0,0,2.4,2.4H5.09a2.4,2.4,0,0,0,2.226,1.513H18.524L12.2,66.835A2.414,2.414,0,0,0,14.467,70h3.567a2.4,2.4,0,0,0,2.272-1.631l2.037-6.035H37.534a1.027,1.027,0,0,0,0-2.055h-14.5l1.487-4.4H45.478l1.487,4.4h-5.32a1.027,1.027,0,0,0,0,2.055h6.014l2.037,6.035A2.4,2.4,0,0,0,51.966,70h3.567A2.414,2.414,0,0,0,57.8,66.835L51.475,48.082H62.684a2.4,2.4,0,0,0,2.226-1.513H67.6a2.4,2.4,0,0,0,2.4-2.4v-2.7a2.4,2.4,0,0,0-2.4-2.4H64.91a2.4,2.4,0,0,0-2.226-1.513h-.143V10.521Zm5.261-6.612v2.7a.343.343,0,0,1-.342.342H65.081V3.567H67.6a.343.343,0,0,1,.342.342ZM2.055,6.611v-2.7A.343.343,0,0,1,2.4,3.567H4.919V6.953H2.4A.343.343,0,0,1,2.055,6.611Zm0,37.561v-2.7a.343.343,0,0,1,.342-.342H4.919v3.386H2.4A.343.343,0,0,1,2.055,44.172Zm16.3,23.538a.342.342,0,0,1-.325.233H14.467c-.278-.041-.374-.175-.325-.452l6.551-19.409h4.29L22.8,54.538v0L20.624,61v0Zm6.857-13.891,1.936-5.737h15.7l1.936,5.737ZM55.858,67.491c.05.277-.046.411-.325.452H51.966a.342.342,0,0,1-.325-.233L49.377,61h0L47.2,54.542v0l-2.179-6.457h4.29ZM67.945,41.471v2.7a.343.343,0,0,1-.342.342H65.081V41.128H67.6A.343.343,0,0,1,67.945,41.471Zm-7.459-3.91H22.8a1.027,1.027,0,1,0,0,2.055h39.88a.343.343,0,0,1,.342.342v5.728a.343.343,0,0,1-.342.342H7.316a.343.343,0,0,1-.342-.342V39.958a.343.343,0,0,1,.342-.342H18.694a1.027,1.027,0,0,0,0-2.055H9.514V10.521H60.486Z" fill="#fff"/>
    <path id="Контур_23153" data-name="Контур 23153" d="M146.1,119.789a3.8,3.8,0,0,0,2.878-6.288l2.131-3.01a3.794,3.794,0,0,0,3.8-.881l4.137,2.431a3.8,3.8,0,1,0,6.584-1.481l2.751-3.459a3.813,3.813,0,1,0-1.705-1.157l-2.751,3.459a3.793,3.793,0,0,0-3.835.869l-4.137-2.431a3.8,3.8,0,1,0-6.556,1.513l-2.131,3.01a3.8,3.8,0,1,0-1.165,7.425Zm23.482-18.046a1.749,1.749,0,1,1-1.749,1.749A1.751,1.751,0,0,1,169.583,101.743Zm-6.858,9.519a1.749,1.749,0,1,1-1.749,1.749A1.751,1.751,0,0,1,162.726,111.262Zm-10.45-6.142a1.749,1.749,0,1,1-1.749,1.749A1.751,1.751,0,0,1,152.276,105.121Zm-6.175,9.114a1.749,1.749,0,1,1-1.749,1.749A1.751,1.751,0,0,1,146.1,114.235Z" transform="translate(-122.842 -86.06)" fill="#fff"/>
  </g>
</svg>
