<svg xmlns="http://www.w3.org/2000/svg" width="63" height="63" viewBox="0 0 63 63">
  <g id="stage-3" transform="translate(0)">
    <path id="Контур_23131" data-name="Контур 23131" d="M176.382,150.692a3.027,3.027,0,0,0-2.97,2.465l-9.7,4.028H160.2a2.725,2.725,0,0,0-2.792,2.646v4.551a2.652,2.652,0,0,0,1.7,2.435v5.94a2.858,2.858,0,0,0,5.715,0v-5.269l8.589,3.567a3.023,3.023,0,0,0,5.993-.558v-3.405a5.147,5.147,0,0,0,0-9.972v-3.406A3.026,3.026,0,0,0,176.382,150.692Zm-11.559,8.035,8.536-3.546v13.85l-8.536-3.546Zm-5.568,1.1a.88.88,0,0,1,.943-.8h2.775v6.144H160.2a.88.88,0,0,1-.943-.8v-4.551Zm2.71,13.935a1.009,1.009,0,0,1-1.008-1.008v-5.73h2.017v5.73A1.009,1.009,0,0,1,161.965,173.766Zm15.59-3.268a1.174,1.174,0,1,1-2.347,0V153.715a1.174,1.174,0,1,1,2.347,0Zm3.868-8.392a3.324,3.324,0,0,1-2.019,3.039v-6.078A3.324,3.324,0,0,1,181.424,162.106Z" transform="translate(-138.038 -132.15)" fill="#fff"/>
    <path id="Контур_23132" data-name="Контур 23132" d="M54.518,47.311a7.152,7.152,0,0,0-4.4,1.5l-4.192-4.192a19.425,19.425,0,0,0,5.042-12.194h3.36a4.385,4.385,0,1,0,0-1.849h-3.36a19.426,19.426,0,0,0-5.042-12.194l4.192-4.192a7.154,7.154,0,0,0,4.376,1.5h0a.925.925,0,0,0,0-1.849,5.358,5.358,0,1,1,3.807-1.569,5.4,5.4,0,0,1-.77.639.925.925,0,1,0,1.043,1.527,7.254,7.254,0,0,0,1.034-.858,7.208,7.208,0,1,0-10.8-.7l-4.192,4.192a19.426,19.426,0,0,0-12.194-5.042V8.671a4.385,4.385,0,1,0-1.85,0v3.36a19.426,19.426,0,0,0-12.194,5.042l-4.192-4.192a7.2,7.2,0,1,0-1.307,1.308l4.193,4.193a19.478,19.478,0,0,0-2.652,3.694.925.925,0,0,0,1.619.894,17.655,17.655,0,1,1-1.38,3.224A.925.925,0,0,0,12.9,25.64a19.628,19.628,0,0,0-.879,4.935H8.671a4.385,4.385,0,1,0,0,1.849h3.344a19.434,19.434,0,0,0,5.059,12.193l-4.193,4.193a7.207,7.207,0,1,0-4.4,12.915.925.925,0,0,0,0-1.849,5.358,5.358,0,1,1,3.789-1.569,5.4,5.4,0,0,1-.841.687.925.925,0,0,0,1.019,1.543,7.212,7.212,0,0,0,1.741-10.419l4.192-4.192a19.426,19.426,0,0,0,12.194,5.042v3.36a4.385,4.385,0,1,0,1.849,0v-3.36a19.426,19.426,0,0,0,12.194-5.042l4.192,4.192a7.205,7.205,0,1,0,5.707-2.808ZM28.964,4.385A2.536,2.536,0,1,1,31.5,6.921,2.539,2.539,0,0,1,28.964,4.385ZM4.693,12.271A5.359,5.359,0,1,1,8.482,13.84,5.323,5.323,0,0,1,4.693,12.271ZM58.615,28.964A2.536,2.536,0,1,1,56.079,31.5,2.539,2.539,0,0,1,58.615,28.964ZM4.385,34.036A2.536,2.536,0,1,1,6.921,31.5,2.539,2.539,0,0,1,4.385,34.036ZM34.036,58.615A2.536,2.536,0,1,1,31.5,56.079,2.539,2.539,0,0,1,34.036,58.615Zm24.271-.308a5.358,5.358,0,1,1,1.569-3.789A5.323,5.323,0,0,1,58.307,58.307Z" fill="#fff"/>
  </g>
</svg>
