<svg xmlns="http://www.w3.org/2000/svg" width="65" height="65" viewBox="0 0 65 65">
  <g id="stage-1" transform="translate(0)">
    <path id="Контур_23154" data-name="Контур 23154" d="M158.981,190.609a.954.954,0,0,0-.954.954,11.137,11.137,0,1,1-.551-3.472.954.954,0,1,0,1.813-.594,13.067,13.067,0,1,0,.645,4.065A.954.954,0,0,0,158.981,190.609Z" transform="translate(-116.83 -155.843)" fill="#fff"/>
    <path id="Контур_23155" data-name="Контур 23155" d="M209.02,233.081a.954.954,0,0,0,.954-.954v-.809a4.131,4.131,0,0,0,3.073-3.309,3.589,3.589,0,0,0-2.469-4.108c-.2-.07-.4-.143-.6-.219V220.21a2.3,2.3,0,0,1,.7.363.955.955,0,1,0,1.308-1.391h0l-.025-.022-.008-.007a4.338,4.338,0,0,0-1.979-.906V217.6a.954.954,0,0,0-1.908,0v.711c-.083.021-.167.043-.253.069a3.411,3.411,0,0,0-2.338,2.675,3.021,3.021,0,0,0,1,2.976,7.676,7.676,0,0,0,1.6.926v4.527a3.168,3.168,0,0,1-1.509-.614.954.954,0,0,0-1.044,1.6,4.942,4.942,0,0,0,2.554.934v.721A.954.954,0,0,0,209.02,233.081Zm.954-7.369a1.717,1.717,0,0,1,1.192,1.98,2.216,2.216,0,0,1-1.192,1.612Zm-2.326-3.178a1.156,1.156,0,0,1-.3-1.122,1.59,1.59,0,0,1,.716-1.07v2.476A4.081,4.081,0,0,1,207.647,222.534Z" transform="translate(-179.045 -189.146)" fill="#fff"/>
    <path id="Контур_23156" data-name="Контур 23156" d="M60.2,17.32A35.232,35.232,0,0,0,47.6,4.75.954.954,0,0,0,46.635,6.4a33.106,33.106,0,0,1,16.457,28.63,32.829,32.829,0,0,1-6,19.01l-12-8.939A17.728,17.728,0,0,0,30.926,18.005V1.921a32.832,32.832,0,0,1,12.4,2.79.954.954,0,1,0,.77-1.745A34.772,34.772,0,0,0,29.972,0a.954.954,0,0,0-.954.954V5.072A29.974,29.974,0,0,0,5.953,52.96a.954.954,0,0,0,1.528-1.143A28.064,28.064,0,0,1,29.018,6.981V18.014A17.736,17.736,0,1,0,44,46.661l7.9,5.883a28.333,28.333,0,0,1-9.133,7.47A28.084,28.084,0,0,1,9.881,54.622a.954.954,0,1,0-1.366,1.332,29.992,29.992,0,0,0,35.12,5.757,30.252,30.252,0,0,0,9.794-8.027l3.3,2.46a.954.954,0,0,0,1.335-.195A35.051,35.051,0,0,0,60.2,17.32ZM30.047,51.548A15.828,15.828,0,1,1,45.875,35.72,15.846,15.846,0,0,1,30.047,51.548Z" fill="#fff"/>
  </g>
</svg>
