<svg xmlns="http://www.w3.org/2000/svg" width="70" height="63.336" viewBox="0 0 70 63.336">
  <g id="stage-2" transform="translate(0 -24.369)">
    <path id="Контур_23122" data-name="Контур 23122" d="M138.234,162.181a1.027,1.027,0,0,0-1.453.018l-3.336,3.421-1.4-1.362a1.027,1.027,0,0,0-1.432,1.473l2.136,2.078a1.027,1.027,0,0,0,1.452-.019l4.052-4.155A1.027,1.027,0,0,0,138.234,162.181Z" transform="translate(-112.486 -118.719)" fill="#fff"/>
    <path id="Контур_23123" data-name="Контур 23123" d="M119.708,134.83a7.666,7.666,0,1,0-7.666,7.666A7.675,7.675,0,0,0,119.708,134.83Zm-7.666,5.612a5.612,5.612,0,1,1,5.612-5.612A5.618,5.618,0,0,1,112.041,140.442Z" transform="translate(-90.105 -88.741)" fill="#fff"/>
    <path id="Контур_23124" data-name="Контур 23124" d="M137.921,273.05a1.028,1.028,0,0,0-1.453,0l-1.573,1.573-1.573-1.573a1.027,1.027,0,1,0-1.453,1.453l1.573,1.573-1.573,1.573a1.027,1.027,0,0,0,1.453,1.453l1.573-1.573,1.573,1.573a1.027,1.027,0,1,0,1.453-1.453l-1.573-1.573,1.573-1.573A1.027,1.027,0,0,0,137.921,273.05Z" transform="translate(-113.581 -214.422)" fill="#fff"/>
    <path id="Контур_23125" data-name="Контур 23125" d="M338.047,273.05a1.028,1.028,0,0,0-1.453,0l-1.573,1.573-1.573-1.573A1.027,1.027,0,1,0,332,274.5l1.573,1.573L332,277.649a1.027,1.027,0,0,0,1.453,1.453l1.573-1.573,1.573,1.573a1.027,1.027,0,0,0,1.453-1.453l-1.573-1.573,1.573-1.573A1.027,1.027,0,0,0,338.047,273.05Z" transform="translate(-286.346 -214.422)" fill="#fff"/>
    <path id="Контур_23126" data-name="Контур 23126" d="M270.625,160.6a1.028,1.028,0,0,0,1.453,0l1.573-1.573,1.573,1.573a1.027,1.027,0,1,0,1.453-1.453l-1.573-1.573L276.676,156a1.027,1.027,0,1,0-1.453-1.453l-1.573,1.573-1.573-1.573A1.027,1.027,0,1,0,270.625,156l1.573,1.573-1.573,1.573A1.027,1.027,0,0,0,270.625,160.6Z" transform="translate(-233.365 -112.122)" fill="#fff"/>
    <path id="Контур_23127" data-name="Контур 23127" d="M235.279,152.73a1.027,1.027,0,0,0,.394,1.4A14.67,14.67,0,0,0,257.5,141.323a1.027,1.027,0,1,0-2.055,0,12.616,12.616,0,0,1-18.764,11.012A1.027,1.027,0,0,0,235.279,152.73Z" transform="translate(-202.999 -100.078)" fill="#fff"/>
    <path id="Контур_23128" data-name="Контур 23128" d="M224.122,269.592a4.354,4.354,0,1,0,4.354-4.354A4.359,4.359,0,0,0,224.122,269.592Zm4.354-2.3a2.3,2.3,0,1,1-2.3,2.3A2.3,2.3,0,0,1,228.476,267.293Z" transform="translate(-193.48 -207.938)" fill="#fff"/>
    <path id="Контур_23129" data-name="Контур 23129" d="M49.36,71.64H7.509A1.714,1.714,0,0,1,5.8,69.928V34.049H19.881a1.027,1.027,0,1,0,0-2.055H3.107a1.054,1.054,0,0,1-1.053-1.053V27.476a1.054,1.054,0,0,1,1.053-1.053H49.36a1.027,1.027,0,1,0,0-2.055H3.107A3.111,3.111,0,0,0,0,27.476v3.465a3.111,3.111,0,0,0,3.107,3.107h.635V69.928a3.771,3.771,0,0,0,3.767,3.767H33.968v4.734a4.7,4.7,0,1,0,2.055,0V73.695H49.36a1.027,1.027,0,1,0,0-2.055ZM37.636,83.01A2.641,2.641,0,1,1,35,80.37,2.643,2.643,0,0,1,37.636,83.01Z" fill="#fff"/>
    <path id="Контур_23130" data-name="Контур 23130" d="M211.892,24.37H198.469a1.027,1.027,0,1,0,0,2.055h13.423a1.054,1.054,0,0,1,1.053,1.053v3.465a1.054,1.054,0,0,1-1.053,1.053h-42.9a1.027,1.027,0,0,0,0,2.055H209.2V69.929a1.714,1.714,0,0,1-1.712,1.712h-9.021a1.027,1.027,0,1,0,0,2.055h9.021a3.771,3.771,0,0,0,3.767-3.767V34.049h.634A3.111,3.111,0,0,0,215,30.942V27.477a3.111,3.111,0,0,0-3.108-3.107Z" transform="translate(-144.999 -0.001)" fill="#fff"/>
  </g>
</svg>
