<svg xmlns="http://www.w3.org/2000/svg" width="262.094" height="336.65" viewBox="0 0 262.094 336.65">
  <g id="subscribe-bg" transform="translate(-1144 -3237.35)">
    <path id="Контур_23158" data-name="Контур 23158" d="M38.467,207.78a6.075,6.075,0,0,1-.429-7.181c1.886-3.02,16.348-11,20.265-13.107,3.336-1.8,16.526-8.54,19.584-8.706a6.055,6.055,0,0,1,5.829,3.339c1.542,3.019.278,16.4-.034,19.988-.293,3.333-1.578,17.671-2.834,20.155a6.042,6.042,0,0,1-5.495,3.363c-2.878-.006-15.76-6.2-19.034-7.767-3.222-1.547-15.963-7.744-17.853-10.084" transform="translate(1107.936 3059.574)" fill="none" stroke="#f2f2f2" stroke-miterlimit="10" stroke-width="2" fill-rule="evenodd"/>
    <path id="Контур_23160" data-name="Контур 23160" d="M38.467,207.78a6.075,6.075,0,0,1-.429-7.181c1.886-3.02,16.348-11,20.265-13.107,3.336-1.8,16.526-8.54,19.584-8.706a6.055,6.055,0,0,1,5.829,3.339c1.542,3.019.278,16.4-.034,19.988-.293,3.333-1.578,17.671-2.834,20.155a6.042,6.042,0,0,1-5.495,3.363c-2.878-.006-15.76-6.2-19.034-7.767-3.222-1.547-15.963-7.744-17.853-10.084" transform="translate(1165.329 3126.83)" fill="none" stroke="#ff506f" stroke-miterlimit="10" stroke-width="2" fill-rule="evenodd"/>
    <path id="Контур_23162" data-name="Контур 23162" d="M38.467,207.78a6.075,6.075,0,0,1-.429-7.181c1.886-3.02,16.348-11,20.265-13.107,3.336-1.8,16.526-8.54,19.584-8.706a6.055,6.055,0,0,1,5.829,3.339c1.542,3.019.278,16.4-.034,19.988-.293,3.333-1.578,17.671-2.834,20.155a6.042,6.042,0,0,1-5.495,3.363c-2.878-.006-15.76-6.2-19.034-7.767-3.222-1.547-15.963-7.744-17.853-10.084" transform="translate(1214.295 3059.574)" fill="none" stroke="#ff506f" stroke-miterlimit="10" stroke-width="2" fill-rule="evenodd"/>
    <path id="Контур_23164" data-name="Контур 23164" d="M38.467,207.78a6.075,6.075,0,0,1-.429-7.181c1.886-3.02,16.348-11,20.265-13.107,3.336-1.8,16.526-8.54,19.584-8.706a6.055,6.055,0,0,1,5.829,3.339c1.542,3.019.278,16.4-.034,19.988-.293,3.333-1.578,17.671-2.834,20.155a6.042,6.042,0,0,1-5.495,3.363c-2.878-.006-15.76-6.2-19.034-7.767-3.222-1.547-15.963-7.744-17.853-10.084" transform="translate(1271.689 3126.83)" fill="none" stroke="#f2f2f2" stroke-miterlimit="10" stroke-width="2" fill-rule="evenodd"/>
    <path id="Контур_23166" data-name="Контур 23166" d="M38.467,207.78a6.075,6.075,0,0,1-.429-7.181c1.886-3.02,16.348-11,20.265-13.107,3.336-1.8,16.526-8.54,19.584-8.706a6.055,6.055,0,0,1,5.829,3.339c1.542,3.019.278,16.4-.034,19.988-.293,3.333-1.578,17.671-2.834,20.155a6.042,6.042,0,0,1-5.495,3.363c-2.878-.006-15.76-6.2-19.034-7.767-3.222-1.547-15.963-7.744-17.853-10.084" transform="translate(1320.653 3059.574)" fill="none" stroke="#ff506f" stroke-miterlimit="10" stroke-width="2" fill-rule="evenodd"/>
    <path id="Контур_23171" data-name="Контур 23171" d="M38.467,207.78a6.075,6.075,0,0,1-.429-7.181c1.886-3.02,16.348-11,20.265-13.107,3.336-1.8,16.526-8.54,19.584-8.706a6.055,6.055,0,0,1,5.829,3.339c1.542,3.019.278,16.4-.034,19.988-.293,3.333-1.578,17.671-2.834,20.155a6.042,6.042,0,0,1-5.495,3.363c-2.878-.006-15.76-6.2-19.034-7.767-3.222-1.547-15.963-7.744-17.853-10.084" transform="translate(1320.653 3347.369)" fill="none" stroke="#ff506f" stroke-miterlimit="10" stroke-width="2" fill-rule="evenodd"/>
    <path id="Контур_23173" data-name="Контур 23173" d="M38.467,207.78a6.075,6.075,0,0,1-.429-7.181c1.886-3.02,16.348-11,20.265-13.107,3.336-1.8,16.526-8.54,19.584-8.706a6.055,6.055,0,0,1,5.829,3.339c1.542,3.019.278,16.4-.034,19.988-.293,3.333-1.578,17.671-2.834,20.155a6.042,6.042,0,0,1-5.495,3.363c-2.878-.006-15.76-6.2-19.034-7.767-3.222-1.547-15.963-7.744-17.853-10.084" transform="translate(1214.295 3203.472)" fill="none" stroke="#ff506f" stroke-miterlimit="10" stroke-width="2" fill-rule="evenodd"/>
    <path id="Контур_23174" data-name="Контур 23174" d="M38.467,207.78a6.075,6.075,0,0,1-.429-7.181c1.886-3.02,16.348-11,20.265-13.107,3.336-1.8,16.526-8.54,19.584-8.706a6.055,6.055,0,0,1,5.829,3.339c1.542,3.019.278,16.4-.034,19.988-.293,3.333-1.578,17.671-2.834,20.155a6.042,6.042,0,0,1-5.495,3.363c-2.878-.006-15.76-6.2-19.034-7.767-3.222-1.547-15.963-7.744-17.853-10.084" transform="translate(1271.689 3270.728)" fill="none" stroke="#f2f2f2" stroke-miterlimit="10" stroke-width="2" fill-rule="evenodd"/>
    <path id="Контур_23175" data-name="Контур 23175" d="M38.467,207.78a6.075,6.075,0,0,1-.429-7.181c1.886-3.02,16.348-11,20.265-13.107,3.336-1.8,16.526-8.54,19.584-8.706a6.055,6.055,0,0,1,5.829,3.339c1.542,3.019.278,16.4-.034,19.988-.293,3.333-1.578,17.671-2.834,20.155a6.042,6.042,0,0,1-5.495,3.363c-2.878-.006-15.76-6.2-19.034-7.767-3.222-1.547-15.963-7.744-17.853-10.084" transform="translate(1320.653 3203.472)" fill="none" stroke="#ff506f" stroke-miterlimit="10" stroke-width="2" fill-rule="evenodd"/>
  </g>
</svg>
