<svg xmlns="http://www.w3.org/2000/svg" width="36.918" height="30" viewBox="0 0 36.918 30">
  <path id="twitter" d="M33.938,9.992c.016.325.022.654.022.979,0,10.012-7.618,21.553-21.549,21.553A21.422,21.422,0,0,1,.8,29.119a15.365,15.365,0,0,0,1.806.106,15.2,15.2,0,0,0,9.406-3.24,7.581,7.581,0,0,1-7.075-5.259,7.741,7.741,0,0,0,1.425.132,7.6,7.6,0,0,0,2-.263,7.582,7.582,0,0,1-6.075-7.43v-.094a7.556,7.556,0,0,0,3.431.949A7.58,7.58,0,0,1,3.37,3.906a21.5,21.5,0,0,0,15.612,7.915,7.65,7.65,0,0,1-.195-1.728,7.578,7.578,0,0,1,13.1-5.181A15.253,15.253,0,0,0,36.7,3.076a7.6,7.6,0,0,1-3.331,4.189,15.15,15.15,0,0,0,4.35-1.192A15.3,15.3,0,0,1,33.938,9.992Z" transform="translate(-0.8 -2.524)" fill="#f5f5f5"/>
</svg>
