<svg xmlns="http://www.w3.org/2000/svg" xmlns:xlink="http://www.w3.org/1999/xlink" width="287" height="395" viewBox="0 0 287 395">
  <defs>
    <clipPath id="clip-path">
      <rect id="Прямоугольник_21426" data-name="Прямоугольник 21426" width="287" height="395" transform="translate(1022 2940)" fill="#212121"/>
    </clipPath>
  </defs>
  <g id="review-bg-2" transform="translate(-1022 -2940)" clip-path="url(#clip-path)">
    <g id="Сгруппировать_29967" data-name="Сгруппировать 29967" transform="translate(-69.393 3476.271) rotate(-30)">
      <path id="Контур_23636" data-name="Контур 23636" d="M38.467,196.627a6.075,6.075,0,0,0-.429,7.181c1.886,3.02,16.348,11,20.265,13.107,3.336,1.8,16.526,8.54,19.584,8.706a6.055,6.055,0,0,0,5.829-3.339c1.542-3.019.278-16.4-.034-19.988-.293-3.333-1.578-17.671-2.834-20.155a6.042,6.042,0,0,0-5.495-3.363c-2.878.006-15.76,6.2-19.034,7.767-3.222,1.547-15.963,7.744-17.853,10.084" transform="translate(1110.936 82.527)" fill="none" stroke="#b3b3b3" stroke-miterlimit="10" stroke-width="2" fill-rule="evenodd"/>
      <path id="Контур_23637" data-name="Контур 23637" d="M38.467,196.627a6.075,6.075,0,0,0-.429,7.181c1.886,3.02,16.348,11,20.265,13.107,3.336,1.8,16.526,8.54,19.584,8.706a6.055,6.055,0,0,0,5.829-3.339c1.542-3.019.278-16.4-.034-19.988-.293-3.333-1.578-17.671-2.834-20.155a6.042,6.042,0,0,0-5.495-3.363c-2.878.006-15.76,6.2-19.034,7.767-3.222,1.547-15.963,7.744-17.853,10.084" transform="translate(1110.936 514.22)" fill="none" stroke="#eb3656" stroke-miterlimit="10" stroke-width="2" fill-rule="evenodd"/>
      <path id="Контур_23638" data-name="Контур 23638" d="M38.467,196.627a6.075,6.075,0,0,0-.429,7.181c1.886,3.02,16.348,11,20.265,13.107,3.336,1.8,16.526,8.54,19.584,8.706a6.055,6.055,0,0,0,5.829-3.339c1.542-3.019.278-16.4-.034-19.988-.293-3.333-1.578-17.671-2.834-20.155a6.042,6.042,0,0,0-5.495-3.363c-2.878.006-15.76,6.2-19.034,7.767-3.222,1.547-15.963,7.744-17.853,10.084" transform="translate(1168.329 15.271)" fill="none" stroke="#b3b3b3" stroke-miterlimit="10" stroke-width="2" fill-rule="evenodd"/>
      <path id="Контур_23639" data-name="Контур 23639" d="M38.467,196.627a6.075,6.075,0,0,0-.429,7.181c1.886,3.02,16.348,11,20.265,13.107,3.336,1.8,16.526,8.54,19.584,8.706a6.055,6.055,0,0,0,5.829-3.339c1.542-3.019.278-16.4-.034-19.988-.293-3.333-1.578-17.671-2.834-20.155a6.042,6.042,0,0,0-5.495-3.363c-2.878.006-15.76,6.2-19.034,7.767-3.222,1.547-15.963,7.744-17.853,10.084" transform="translate(1168.329 446.964)" fill="none" stroke="#b3b3b3" stroke-miterlimit="10" stroke-width="2" fill-rule="evenodd"/>
      <path id="Контур_23640" data-name="Контур 23640" d="M38.467,196.627a6.075,6.075,0,0,0-.429,7.181c1.886,3.02,16.348,11,20.265,13.107,3.336,1.8,16.526,8.54,19.584,8.706a6.055,6.055,0,0,0,5.829-3.339c1.542-3.019.278-16.4-.034-19.988-.293-3.333-1.578-17.671-2.834-20.155a6.042,6.042,0,0,0-5.495-3.363c-2.878.006-15.76,6.2-19.034,7.767-3.222,1.547-15.963,7.744-17.853,10.084" transform="translate(1217.295 82.527)" fill="none" stroke="#b3b3b3" stroke-miterlimit="10" stroke-width="2" fill-rule="evenodd"/>
      <path id="Контур_23641" data-name="Контур 23641" d="M38.467,196.627a6.075,6.075,0,0,0-.429,7.181c1.886,3.02,16.348,11,20.265,13.107,3.336,1.8,16.526,8.54,19.584,8.706a6.055,6.055,0,0,0,5.829-3.339c1.542-3.019.278-16.4-.034-19.988-.293-3.333-1.578-17.671-2.834-20.155a6.042,6.042,0,0,0-5.495-3.363c-2.878.006-15.76,6.2-19.034,7.767-3.222,1.547-15.963,7.744-17.853,10.084" transform="translate(1217.295 514.22)" fill="none" stroke="#b3b3b3" stroke-miterlimit="10" stroke-width="2" fill-rule="evenodd"/>
      <path id="Контур_23642" data-name="Контур 23642" d="M38.467,196.627a6.075,6.075,0,0,0-.429,7.181c1.886,3.02,16.348,11,20.265,13.107,3.336,1.8,16.526,8.54,19.584,8.706a6.055,6.055,0,0,0,5.829-3.339c1.542-3.019.278-16.4-.034-19.988-.293-3.333-1.578-17.671-2.834-20.155a6.042,6.042,0,0,0-5.495-3.363c-2.878.006-15.76,6.2-19.034,7.767-3.222,1.547-15.963,7.744-17.853,10.084" transform="translate(1274.688 15.271)" fill="none" stroke="#b3b3b3" stroke-miterlimit="10" stroke-width="2" fill-rule="evenodd"/>
      <path id="Контур_23643" data-name="Контур 23643" d="M38.467,196.627a6.075,6.075,0,0,0-.429,7.181c1.886,3.02,16.348,11,20.265,13.107,3.336,1.8,16.526,8.54,19.584,8.706a6.055,6.055,0,0,0,5.829-3.339c1.542-3.019.278-16.4-.034-19.988-.293-3.333-1.578-17.671-2.834-20.155a6.042,6.042,0,0,0-5.495-3.363c-2.878.006-15.76,6.2-19.034,7.767-3.222,1.547-15.963,7.744-17.853,10.084" transform="translate(1274.688 446.964)" fill="none" stroke="#b3b3b3" stroke-miterlimit="10" stroke-width="2" fill-rule="evenodd"/>
      <path id="Контур_23644" data-name="Контур 23644" d="M38.467,196.627a6.075,6.075,0,0,0-.429,7.181c1.886,3.02,16.348,11,20.265,13.107,3.336,1.8,16.526,8.54,19.584,8.706a6.055,6.055,0,0,0,5.829-3.339c1.542-3.019.278-16.4-.034-19.988-.293-3.333-1.578-17.671-2.834-20.155a6.042,6.042,0,0,0-5.495-3.363c-2.878.006-15.76,6.2-19.034,7.767-3.222,1.547-15.963,7.744-17.853,10.084" transform="translate(1323.653 82.527)" fill="none" stroke="#b3b3b3" stroke-miterlimit="10" stroke-width="2" fill-rule="evenodd"/>
      <path id="Контур_23645" data-name="Контур 23645" d="M38.467,196.627a6.075,6.075,0,0,0-.429,7.181c1.886,3.02,16.348,11,20.265,13.107,3.336,1.8,16.526,8.54,19.584,8.706a6.055,6.055,0,0,0,5.829-3.339c1.542-3.019.278-16.4-.034-19.988-.293-3.333-1.578-17.671-2.834-20.155a6.042,6.042,0,0,0-5.495-3.363c-2.878.006-15.76,6.2-19.034,7.767-3.222,1.547-15.963,7.744-17.853,10.084" transform="translate(1323.653 514.22)" fill="none" stroke="#b3b3b3" stroke-miterlimit="10" stroke-width="2" fill-rule="evenodd"/>
      <path id="Контур_23646" data-name="Контур 23646" d="M38.467,196.627a6.075,6.075,0,0,0-.429,7.181c1.886,3.02,16.348,11,20.265,13.107,3.336,1.8,16.526,8.54,19.584,8.706a6.055,6.055,0,0,0,5.829-3.339c1.542-3.019.278-16.4-.034-19.988-.293-3.333-1.578-17.671-2.834-20.155a6.042,6.042,0,0,0-5.495-3.363c-2.878.006-15.76,6.2-19.034,7.767-3.222,1.547-15.963,7.744-17.853,10.084" transform="translate(1110.936 226.425)" fill="none" stroke="#eb3656" stroke-miterlimit="10" stroke-width="2" fill-rule="evenodd"/>
      <path id="Контур_23647" data-name="Контур 23647" d="M38.467,196.627a6.075,6.075,0,0,0-.429,7.181c1.886,3.02,16.348,11,20.265,13.107,3.336,1.8,16.526,8.54,19.584,8.706a6.055,6.055,0,0,0,5.829-3.339c1.542-3.019.278-16.4-.034-19.988-.293-3.333-1.578-17.671-2.834-20.155a6.042,6.042,0,0,0-5.495-3.363c-2.878.006-15.76,6.2-19.034,7.767-3.222,1.547-15.963,7.744-17.853,10.084" transform="translate(1168.329 159.169)" fill="none" stroke="#b3b3b3" stroke-miterlimit="10" stroke-width="2" fill-rule="evenodd"/>
      <path id="Контур_23648" data-name="Контур 23648" d="M38.467,196.627a6.075,6.075,0,0,0-.429,7.181c1.886,3.02,16.348,11,20.265,13.107,3.336,1.8,16.526,8.54,19.584,8.706a6.055,6.055,0,0,0,5.829-3.339c1.542-3.019.278-16.4-.034-19.988-.293-3.333-1.578-17.671-2.834-20.155a6.042,6.042,0,0,0-5.495-3.363c-2.878.006-15.76,6.2-19.034,7.767-3.222,1.547-15.963,7.744-17.853,10.084" transform="translate(1217.295 226.425)" fill="none" stroke="#b3b3b3" stroke-miterlimit="10" stroke-width="2" fill-rule="evenodd"/>
      <path id="Контур_23649" data-name="Контур 23649" d="M38.467,196.627a6.075,6.075,0,0,0-.429,7.181c1.886,3.02,16.348,11,20.265,13.107,3.336,1.8,16.526,8.54,19.584,8.706a6.055,6.055,0,0,0,5.829-3.339c1.542-3.019.278-16.4-.034-19.988-.293-3.333-1.578-17.671-2.834-20.155a6.042,6.042,0,0,0-5.495-3.363c-2.878.006-15.76,6.2-19.034,7.767-3.222,1.547-15.963,7.744-17.853,10.084" transform="translate(1274.688 159.169)" fill="none" stroke="#b3b3b3" stroke-miterlimit="10" stroke-width="2" fill-rule="evenodd"/>
      <path id="Контур_23650" data-name="Контур 23650" d="M38.467,196.627a6.075,6.075,0,0,0-.429,7.181c1.886,3.02,16.348,11,20.265,13.107,3.336,1.8,16.526,8.54,19.584,8.706a6.055,6.055,0,0,0,5.829-3.339c1.542-3.019.278-16.4-.034-19.988-.293-3.333-1.578-17.671-2.834-20.155a6.042,6.042,0,0,0-5.495-3.363c-2.878.006-15.76,6.2-19.034,7.767-3.222,1.547-15.963,7.744-17.853,10.084" transform="translate(1323.653 226.425)" fill="none" stroke="#b3b3b3" stroke-miterlimit="10" stroke-width="2" fill-rule="evenodd"/>
      <path id="Контур_23651" data-name="Контур 23651" d="M38.467,196.627a6.075,6.075,0,0,0-.429,7.181c1.886,3.02,16.348,11,20.265,13.107,3.336,1.8,16.526,8.54,19.584,8.706a6.055,6.055,0,0,0,5.829-3.339c1.542-3.019.278-16.4-.034-19.988-.293-3.333-1.578-17.671-2.834-20.155a6.042,6.042,0,0,0-5.495-3.363c-2.878.006-15.76,6.2-19.034,7.767-3.222,1.547-15.963,7.744-17.853,10.084" transform="translate(1168.329 303.066)" fill="none" stroke="#b3b3b3" stroke-miterlimit="10" stroke-width="2" fill-rule="evenodd"/>
      <path id="Контур_23652" data-name="Контур 23652" d="M38.467,196.627a6.075,6.075,0,0,0-.429,7.181c1.886,3.02,16.348,11,20.265,13.107,3.336,1.8,16.526,8.54,19.584,8.706a6.055,6.055,0,0,0,5.829-3.339c1.542-3.019.278-16.4-.034-19.988-.293-3.333-1.578-17.671-2.834-20.155a6.042,6.042,0,0,0-5.495-3.363c-2.878.006-15.76,6.2-19.034,7.767-3.222,1.547-15.963,7.744-17.853,10.084" transform="translate(1217.295 370.322)" fill="none" stroke="#eb3656" stroke-miterlimit="10" stroke-width="2" fill-rule="evenodd"/>
      <path id="Контур_23653" data-name="Контур 23653" d="M38.467,196.627a6.075,6.075,0,0,0-.429,7.181c1.886,3.02,16.348,11,20.265,13.107,3.336,1.8,16.526,8.54,19.584,8.706a6.055,6.055,0,0,0,5.829-3.339c1.542-3.019.278-16.4-.034-19.988-.293-3.333-1.578-17.671-2.834-20.155a6.042,6.042,0,0,0-5.495-3.363c-2.878.006-15.76,6.2-19.034,7.767-3.222,1.547-15.963,7.744-17.853,10.084" transform="translate(1274.688 303.066)" fill="none" stroke="#b3b3b3" stroke-miterlimit="10" stroke-width="2" fill-rule="evenodd"/>
      <path id="Контур_23654" data-name="Контур 23654" d="M38.467,196.627a6.075,6.075,0,0,0-.429,7.181c1.886,3.02,16.348,11,20.265,13.107,3.336,1.8,16.526,8.54,19.584,8.706a6.055,6.055,0,0,0,5.829-3.339c1.542-3.019.278-16.4-.034-19.988-.293-3.333-1.578-17.671-2.834-20.155a6.042,6.042,0,0,0-5.495-3.363c-2.878.006-15.76,6.2-19.034,7.767-3.222,1.547-15.963,7.744-17.853,10.084" transform="translate(1323.653 370.322)" fill="none" stroke="#b3b3b3" stroke-miterlimit="10" stroke-width="2" fill-rule="evenodd"/>
    </g>
  </g>
</svg>
