<svg xmlns="http://www.w3.org/2000/svg" xmlns:xlink="http://www.w3.org/1999/xlink" width="270" height="307" viewBox="0 0 270 307">
  <defs>
    <clipPath id="clip-path">
      <rect id="Прямоугольник_21425" data-name="Прямоугольник 21425" width="270" height="307" transform="translate(1039 2335)" fill="#212121"/>
    </clipPath>
  </defs>
  <g id="testimonial-bg" transform="translate(-1039 -2335)" clip-path="url(#clip-path)">
    <g id="Сгруппировать_29456" data-name="Сгруппировать 29456" transform="translate(-142.257 2631.847) rotate(-30)">
      <path id="Контур_23079" data-name="Контур 23079" d="M38.3,194.477a5.343,5.343,0,0,0-.377,6.316c1.659,2.656,14.379,9.675,17.824,11.528,2.934,1.579,14.536,7.511,17.225,7.657a5.325,5.325,0,0,0,5.127-2.937c1.356-2.655.245-14.423-.03-17.58-.257-2.932-1.388-15.543-2.493-17.727a5.315,5.315,0,0,0-4.833-2.958c-2.531.006-13.862,5.449-16.741,6.832-2.834,1.361-14.04,6.811-15.7,8.869" transform="translate(1110.936 74.426)" fill="none" stroke="#b3b3b3" stroke-miterlimit="10" stroke-width="2" fill-rule="evenodd"/>
      <path id="Контур_23097" data-name="Контур 23097" d="M38.3,194.477a5.343,5.343,0,0,0-.377,6.316c1.659,2.656,14.379,9.675,17.824,11.528,2.934,1.579,14.536,7.511,17.225,7.657a5.325,5.325,0,0,0,5.127-2.937c1.356-2.655.245-14.423-.03-17.58-.257-2.932-1.388-15.543-2.493-17.727a5.315,5.315,0,0,0-4.833-2.958c-2.531.006-13.862,5.449-16.741,6.832-2.834,1.361-14.04,6.811-15.7,8.869" transform="translate(1110.936 454.118)" fill="none" stroke="#eb3656" stroke-miterlimit="10" stroke-width="2" fill-rule="evenodd"/>
      <path id="Контур_190" data-name="Контур 190" d="M38.3,194.477a5.343,5.343,0,0,0-.377,6.316c1.659,2.656,14.379,9.675,17.824,11.528,2.934,1.579,14.536,7.511,17.225,7.657a5.325,5.325,0,0,0,5.127-2.937c1.356-2.655.245-14.423-.03-17.58-.257-2.932-1.388-15.543-2.493-17.727a5.315,5.315,0,0,0-4.833-2.958c-2.531.006-13.862,5.449-16.741,6.832-2.834,1.361-14.04,6.811-15.7,8.869" transform="translate(1161.416 15.271)" fill="none" stroke="#b3b3b3" stroke-miterlimit="10" stroke-width="2" fill-rule="evenodd"/>
      <path id="Контур_23095" data-name="Контур 23095" d="M38.3,194.477a5.343,5.343,0,0,0-.377,6.316c1.659,2.656,14.379,9.675,17.824,11.528,2.934,1.579,14.536,7.511,17.225,7.657a5.325,5.325,0,0,0,5.127-2.937c1.356-2.655.245-14.423-.03-17.58-.257-2.932-1.388-15.543-2.493-17.727a5.315,5.315,0,0,0-4.833-2.958c-2.531.006-13.862,5.449-16.741,6.832-2.834,1.361-14.04,6.811-15.7,8.869" transform="translate(1161.416 394.963)" fill="none" stroke="#b3b3b3" stroke-miterlimit="10" stroke-width="2" fill-rule="evenodd"/>
      <path id="Контур_23079-2" data-name="Контур 23079" d="M38.3,194.477a5.343,5.343,0,0,0-.377,6.316c1.659,2.656,14.379,9.675,17.824,11.528,2.934,1.579,14.536,7.511,17.225,7.657a5.325,5.325,0,0,0,5.127-2.937c1.356-2.655.245-14.423-.03-17.58-.257-2.932-1.388-15.543-2.493-17.727a5.315,5.315,0,0,0-4.833-2.958c-2.531.006-13.862,5.449-16.741,6.832-2.834,1.361-14.04,6.811-15.7,8.869" transform="translate(1204.483 74.426)" fill="none" stroke="#eb3656" stroke-miterlimit="10" stroke-width="2" fill-rule="evenodd"/>
      <path id="Контур_23088" data-name="Контур 23088" d="M38.3,194.477a5.343,5.343,0,0,0-.377,6.316c1.659,2.656,14.379,9.675,17.824,11.528,2.934,1.579,14.536,7.511,17.225,7.657a5.325,5.325,0,0,0,5.127-2.937c1.356-2.655.245-14.423-.03-17.58-.257-2.932-1.388-15.543-2.493-17.727a5.315,5.315,0,0,0-4.833-2.958c-2.531.006-13.862,5.449-16.741,6.832-2.834,1.361-14.04,6.811-15.7,8.869" transform="translate(1204.483 454.118)" fill="none" stroke="#b3b3b3" stroke-miterlimit="10" stroke-width="2" fill-rule="evenodd"/>
      <path id="Контур_190-2" data-name="Контур 190" d="M38.3,194.477a5.343,5.343,0,0,0-.377,6.316c1.659,2.656,14.379,9.675,17.824,11.528,2.934,1.579,14.536,7.511,17.225,7.657a5.325,5.325,0,0,0,5.127-2.937c1.356-2.655.245-14.423-.03-17.58-.257-2.932-1.388-15.543-2.493-17.727a5.315,5.315,0,0,0-4.833-2.958c-2.531.006-13.862,5.449-16.741,6.832-2.834,1.361-14.04,6.811-15.7,8.869" transform="translate(1254.963 15.271)" fill="none" stroke="#b3b3b3" stroke-miterlimit="10" stroke-width="2" fill-rule="evenodd"/>
      <path id="Контур_23096" data-name="Контур 23096" d="M38.3,194.477a5.343,5.343,0,0,0-.377,6.316c1.659,2.656,14.379,9.675,17.824,11.528,2.934,1.579,14.536,7.511,17.225,7.657a5.325,5.325,0,0,0,5.127-2.937c1.356-2.655.245-14.423-.03-17.58-.257-2.932-1.388-15.543-2.493-17.727a5.315,5.315,0,0,0-4.833-2.958c-2.531.006-13.862,5.449-16.741,6.832-2.834,1.361-14.04,6.811-15.7,8.869" transform="translate(1254.963 394.963)" fill="none" stroke="#b3b3b3" stroke-miterlimit="10" stroke-width="2" fill-rule="evenodd"/>
      <path id="Контур_23079-3" data-name="Контур 23079" d="M38.3,194.477a5.343,5.343,0,0,0-.377,6.316c1.659,2.656,14.379,9.675,17.824,11.528,2.934,1.579,14.536,7.511,17.225,7.657a5.325,5.325,0,0,0,5.127-2.937c1.356-2.655.245-14.423-.03-17.58-.257-2.932-1.388-15.543-2.493-17.727a5.315,5.315,0,0,0-4.833-2.958c-2.531.006-13.862,5.449-16.741,6.832-2.834,1.361-14.04,6.811-15.7,8.869" transform="translate(1298.03 74.426)" fill="none" stroke="#b3b3b3" stroke-miterlimit="10" stroke-width="2" fill-rule="evenodd"/>
      <path id="Контур_23089" data-name="Контур 23089" d="M38.3,194.477a5.343,5.343,0,0,0-.377,6.316c1.659,2.656,14.379,9.675,17.824,11.528,2.934,1.579,14.536,7.511,17.225,7.657a5.325,5.325,0,0,0,5.127-2.937c1.356-2.655.245-14.423-.03-17.58-.257-2.932-1.388-15.543-2.493-17.727a5.315,5.315,0,0,0-4.833-2.958c-2.531.006-13.862,5.449-16.741,6.832-2.834,1.361-14.04,6.811-15.7,8.869" transform="translate(1298.03 454.118)" fill="none" stroke="#b3b3b3" stroke-miterlimit="10" stroke-width="2" fill-rule="evenodd"/>
      <path id="Контур_23079-4" data-name="Контур 23079" d="M38.3,194.477a5.343,5.343,0,0,0-.377,6.316c1.659,2.656,14.379,9.675,17.824,11.528,2.934,1.579,14.536,7.511,17.225,7.657a5.325,5.325,0,0,0,5.127-2.937c1.356-2.655.245-14.423-.03-17.58-.257-2.932-1.388-15.543-2.493-17.727a5.315,5.315,0,0,0-4.833-2.958c-2.531.006-13.862,5.449-16.741,6.832-2.834,1.361-14.04,6.811-15.7,8.869" transform="translate(1110.936 200.99)" fill="none" stroke="#b3b3b3" stroke-miterlimit="10" stroke-width="2" fill-rule="evenodd"/>
      <path id="Контур_190-3" data-name="Контур 190" d="M38.3,194.477a5.343,5.343,0,0,0-.377,6.316c1.659,2.656,14.379,9.675,17.824,11.528,2.934,1.579,14.536,7.511,17.225,7.657a5.325,5.325,0,0,0,5.127-2.937c1.356-2.655.245-14.423-.03-17.58-.257-2.932-1.388-15.543-2.493-17.727a5.315,5.315,0,0,0-4.833-2.958c-2.531.006-13.862,5.449-16.741,6.832-2.834,1.361-14.04,6.811-15.7,8.869" transform="translate(1161.416 141.835)" fill="none" stroke="#b3b3b3" stroke-miterlimit="10" stroke-width="2" fill-rule="evenodd"/>
      <path id="Контур_23079-5" data-name="Контур 23079" d="M38.3,194.477a5.343,5.343,0,0,0-.377,6.316c1.659,2.656,14.379,9.675,17.824,11.528,2.934,1.579,14.536,7.511,17.225,7.657a5.325,5.325,0,0,0,5.127-2.937c1.356-2.655.245-14.423-.03-17.58-.257-2.932-1.388-15.543-2.493-17.727a5.315,5.315,0,0,0-4.833-2.958c-2.531.006-13.862,5.449-16.741,6.832-2.834,1.361-14.04,6.811-15.7,8.869" transform="translate(1204.483 200.99)" fill="none" stroke="#b3b3b3" stroke-miterlimit="10" stroke-width="2" fill-rule="evenodd"/>
      <path id="Контур_190-4" data-name="Контур 190" d="M38.3,194.477a5.343,5.343,0,0,0-.377,6.316c1.659,2.656,14.379,9.675,17.824,11.528,2.934,1.579,14.536,7.511,17.225,7.657a5.325,5.325,0,0,0,5.127-2.937c1.356-2.655.245-14.423-.03-17.58-.257-2.932-1.388-15.543-2.493-17.727a5.315,5.315,0,0,0-4.833-2.958c-2.531.006-13.862,5.449-16.741,6.832-2.834,1.361-14.04,6.811-15.7,8.869" transform="translate(1254.963 141.835)" fill="none" stroke="#b3b3b3" stroke-miterlimit="10" stroke-width="2" fill-rule="evenodd"/>
      <path id="Контур_23079-6" data-name="Контур 23079" d="M38.3,194.477a5.343,5.343,0,0,0-.377,6.316c1.659,2.656,14.379,9.675,17.824,11.528,2.934,1.579,14.536,7.511,17.225,7.657a5.325,5.325,0,0,0,5.127-2.937c1.356-2.655.245-14.423-.03-17.58-.257-2.932-1.388-15.543-2.493-17.727a5.315,5.315,0,0,0-4.833-2.958c-2.531.006-13.862,5.449-16.741,6.832-2.834,1.361-14.04,6.811-15.7,8.869" transform="translate(1298.03 200.99)" fill="none" stroke="#b3b3b3" stroke-miterlimit="10" stroke-width="2" fill-rule="evenodd"/>
      <path id="Контур_190-5" data-name="Контур 190" d="M38.3,194.477a5.343,5.343,0,0,0-.377,6.316c1.659,2.656,14.379,9.675,17.824,11.528,2.934,1.579,14.536,7.511,17.225,7.657a5.325,5.325,0,0,0,5.127-2.937c1.356-2.655.245-14.423-.03-17.58-.257-2.932-1.388-15.543-2.493-17.727a5.315,5.315,0,0,0-4.833-2.958c-2.531.006-13.862,5.449-16.741,6.832-2.834,1.361-14.04,6.811-15.7,8.869" transform="translate(1161.416 268.399)" fill="none" stroke="#b3b3b3" stroke-miterlimit="10" stroke-width="2" fill-rule="evenodd"/>
      <path id="Контур_23079-7" data-name="Контур 23079" d="M38.3,194.477a5.343,5.343,0,0,0-.377,6.316c1.659,2.656,14.379,9.675,17.824,11.528,2.934,1.579,14.536,7.511,17.225,7.657a5.325,5.325,0,0,0,5.127-2.937c1.356-2.655.245-14.423-.03-17.58-.257-2.932-1.388-15.543-2.493-17.727a5.315,5.315,0,0,0-4.833-2.958c-2.531.006-13.862,5.449-16.741,6.832-2.834,1.361-14.04,6.811-15.7,8.869" transform="translate(1204.483 327.554)" fill="none" stroke="#b3b3b3" stroke-miterlimit="10" stroke-width="2" fill-rule="evenodd"/>
      <path id="Контур_190-6" data-name="Контур 190" d="M38.3,194.477a5.343,5.343,0,0,0-.377,6.316c1.659,2.656,14.379,9.675,17.824,11.528,2.934,1.579,14.536,7.511,17.225,7.657a5.325,5.325,0,0,0,5.127-2.937c1.356-2.655.245-14.423-.03-17.58-.257-2.932-1.388-15.543-2.493-17.727a5.315,5.315,0,0,0-4.833-2.958c-2.531.006-13.862,5.449-16.741,6.832-2.834,1.361-14.04,6.811-15.7,8.869" transform="translate(1254.963 268.399)" fill="none" stroke="#b3b3b3" stroke-miterlimit="10" stroke-width="2" fill-rule="evenodd"/>
      <path id="Контур_23079-8" data-name="Контур 23079" d="M38.3,194.477a5.343,5.343,0,0,0-.377,6.316c1.659,2.656,14.379,9.675,17.824,11.528,2.934,1.579,14.536,7.511,17.225,7.657a5.325,5.325,0,0,0,5.127-2.937c1.356-2.655.245-14.423-.03-17.58-.257-2.932-1.388-15.543-2.493-17.727a5.315,5.315,0,0,0-4.833-2.958c-2.531.006-13.862,5.449-16.741,6.832-2.834,1.361-14.04,6.811-15.7,8.869" transform="translate(1298.03 327.554)" fill="none" stroke="#b3b3b3" stroke-miterlimit="10" stroke-width="2" fill-rule="evenodd"/>
    </g>
  </g>
</svg>
